<svg width="1425" height="265" version="1.1" xmlns="http://www.w3.org/2000/svg" desc="Created with imagetracer.js version 1.2.6" ><path fill="rgb(0,0,0)" stroke="rgb(0,0,0)" stroke-width="1" opacity="0" d="M 0 0 L 1424.5 0 L 1425 0.5 L 1425 265 L 0.5 265 L 0 264.5 L 0 0 Z M 47 21 L 47 26 L 52 35 L 57 36 L 52 25 L 47 21 Z M 492 25 L 485 38 L 485 42 L 492 42 L 507 34 L 513 33 L 514 29 L 512 28 L 490 37 L 495 27 Q 496 24 492 25 Z M 618 25 L 619 31 L 617 41 L 618 46 L 608 49 L 598 50 L 600 54 L 606 54 L 618 51 Q 619 60 615 65 Q 613 71 618 69 L 622 60 L 622 49 L 636 44 L 637 40 L 633 40 L 631 42 L 621 45 L 619 45 Q 623 43 622 38 Q 628 37 632 32 L 633 32 L 633 28 Q 627 29 624 34 L 623 28 Q 622 24 618 25 Z M 183 29 L 167 39 L 165 36 L 162 37 L 162 46 L 161 47 L 161 61 L 157 75 Q 155 82 161 80 L 162 70 L 165 61 L 166 46 L 176 38 L 177 39 L 177 47 L 167 52 L 169 54 L 174 53 Q 177 52 176 56 L 169 60 L 171 62 L 176 61 L 175 87 L 173 90 L 176 93 L 178 92 L 179 90 L 179 75 L 180 74 L 181 59 L 188 52 L 188 67 L 189 68 L 188 77 L 184 73 L 181 71 Q 180 75 183 77 L 190 81 L 192 80 L 193 78 L 192 35 L 191 31 Q 189 27 183 29 Z M 129 30 L 118 38 L 119 49 L 122 50 L 121 52 L 123 54 Q 129 55 131 51 L 131 65 L 132 66 Q 134 71 131 73 L 132 78 Q 133 83 131 84 Q 128 85 129 83 L 126 81 L 127 86 Q 128 89 133 88 L 135 86 L 135 48 L 136 47 L 135 34 Q 133 30 129 30 Z M 428 30 Q 423 35 415 36 L 413 40 L 421 39 L 420 44 L 412 56 Q 411 59 414 60 L 416 59 L 420 51 L 424 48 L 426 50 L 420 59 Q 415 57 416 62 L 421 66 L 421 69 L 417 75 Q 415 79 410 79 Q 409 83 412 84 L 415 83 L 421 76 Q 423 75 422 78 L 428 80 L 432 75 L 435 60 L 460 73 Q 462 72 461 68 L 459 68 L 439 58 Q 445 55 446 49 Q 448 44 444 45 L 441 51 L 434 56 L 432 48 L 424 44 L 425 36 L 431 32 Q 432 28 428 30 Z M 320 31 L 309 36 Q 304 37 305 43 L 311 40 L 311 45 L 307 46 L 305 50 L 310 51 L 307 56 Q 306 61 310 59 L 309 63 L 309 72 L 316 72 Q 320 69 320 62 L 312 59 L 318 54 L 317 50 L 314 51 L 319 45 L 318 42 L 315 43 L 313 39 Q 316 35 321 36 L 322 41 L 322 84 L 321 84 L 319 81 L 316 82 L 317 84 L 323 88 L 326 86 L 326 41 L 324 33 Q 323 30 320 31 Z M 341 31 L 337 35 Q 334 45 328 52 Q 326 56 331 55 L 335 50 L 336 54 L 335 71 L 334 72 L 334 80 L 337 80 L 338 75 L 343 75 L 348 72 L 353 71 L 360 71 L 375 68 L 376 64 L 358 67 L 351 67 L 348 68 L 349 61 Q 354 57 354 51 L 351 52 L 351 51 L 350 46 Q 353 43 352 39 L 346 43 L 340 44 L 339 41 L 342 34 L 352 36 L 353 34 L 348 31 L 344 32 L 341 31 Z M 606 33 L 606 36 L 609 40 Q 610 44 607 46 Q 606 49 611 47 L 613 43 Q 614 37 611 35 L 611 33 L 606 33 Z M 37 35 L 35 37 L 36 44 L 29 47 L 26 47 L 26 41 Q 31 38 28 36 L 16 39 Q 12 38 13 41 Q 15 45 22 43 L 21 49 L 18 51 L 9 52 L 11 56 L 16 55 L 20 55 L 20 64 L 8 71 L 9 73 Q 14 74 17 71 L 19 70 L 19 77 L 17 75 L 14 73 L 15 80 L 20 83 L 22 81 L 24 65 L 28 60 Q 29 57 26 58 L 24 59 L 25 54 L 28 51 L 37 48 L 42 61 L 42 64 L 36 74 Q 34 75 37 76 L 39 75 L 45 67 L 54 82 Q 57 83 58 81 L 57 64 L 53 72 L 47 62 L 53 51 Q 54 44 52 45 L 47 55 L 44 56 L 42 45 L 47 43 L 48 39 L 40 41 L 39 37 Q 40 34 37 35 Z M 90 35 L 77 60 L 77 61 L 81 61 L 83 56 L 84 56 L 84 85 L 87 85 L 89 80 L 88 78 L 88 69 L 89 68 L 89 49 L 88 48 L 94 38 Q 95 33 90 35 Z M 300 37 L 300 59 L 298 69 L 295 76 Q 293 80 297 79 L 300 75 L 303 64 L 304 40 L 300 37 Z M 100 38 L 97 44 L 97 77 L 100 77 L 101 76 L 101 58 Q 107 53 109 45 L 108 40 Q 106 37 100 38 Z M 395 41 L 390 42 L 388 46 Q 398 47 402 43 L 402 41 L 395 41 Z M 499 41 L 497 42 L 493 47 L 491 57 Q 487 61 478 61 Q 473 63 477 65 Q 481 66 483 64 L 488 65 L 487 71 Q 494 74 505 73 L 503 82 L 502 81 L 499 79 L 500 84 Q 500 87 505 86 L 507 84 L 509 73 L 515 74 L 516 70 L 510 69 L 511 60 L 513 58 L 520 58 L 520 57 Q 523 55 519 53 L 512 54 L 511 45 L 508 42 Q 501 40 500 43 L 499 41 Z M 267 42 Q 263 44 267 46 Q 266 48 269 47 L 270 51 L 276 56 L 279 56 L 278 52 L 273 46 Q 272 41 267 42 Z M 397 48 Q 393 51 394 57 L 391 58 L 389 61 Q 390 63 394 62 L 394 75 L 390 79 L 392 81 L 396 80 L 402 75 Q 408 71 409 63 L 398 71 L 398 60 L 403 55 L 403 51 L 398 53 L 399 49 L 397 48 Z M 219 50 L 209 68 Q 208 71 211 72 L 215 70 L 214 68 L 221 51 L 219 50 Z M 245 50 L 243 52 Q 244 55 249 54 L 250 52 Q 249 49 245 50 Z M 571 52 L 544 58 L 540 57 L 538 61 L 541 62 L 548 62 L 564 59 L 576 56 L 577 55 L 577 52 L 571 52 Z M 254 53 L 254 58 L 249 61 L 244 62 L 240 60 L 235 54 L 232 54 L 232 60 L 241 65 Q 250 66 255 63 L 258 59 L 257 55 Q 258 52 254 53 Z M 631 55 L 629 57 L 627 68 L 618 85 L 614 89 L 613 88 L 611 88 L 611 92 L 616 93 L 623 86 L 630 72 L 633 57 L 631 55 Z M 613 56 L 604 69 L 599 74 L 601 75 L 604 74 Q 611 69 614 61 Q 616 55 613 56 Z M 419 162 L 413 171 Q 414 176 411 178 L 409 176 Q 408 172 404 173 L 405 179 L 410 182 L 409 186 L 406 189 L 407 191 Q 404 207 395 219 Q 396 222 392 220 L 388 232 L 391 233 L 404 212 L 411 192 L 414 189 L 415 190 Q 411 193 412 199 L 417 201 L 411 211 L 413 213 L 428 206 L 434 206 L 434 213 L 430 213 L 430 215 L 433 216 Q 433 224 428 228 L 426 226 L 422 224 L 424 230 L 427 231 L 433 230 L 437 218 L 445 221 L 448 221 L 448 216 L 438 213 L 439 209 L 438 205 L 436 202 Q 425 201 421 205 L 419 206 L 422 196 L 417 195 L 419 189 Q 421 183 415 185 L 413 186 L 417 172 L 421 164 L 419 162 Z M 632 162 L 632 170 L 624 172 L 621 175 L 623 177 L 629 175 Q 633 173 632 178 Q 630 181 624 180 L 625 183 L 625 196 L 628 196 Q 629 194 630 197 L 629 199 L 627 201 Q 621 201 618 205 L 620 207 Q 627 207 632 203 L 635 203 L 635 211 L 634 212 L 620 215 L 618 217 L 620 219 L 636 215 L 636 223 L 630 221 Q 624 219 625 223 Q 628 227 635 227 Q 636 232 634 234 L 631 234 L 627 232 L 628 237 Q 630 239 636 238 L 639 234 L 640 215 L 648 211 Q 650 212 649 208 L 639 209 L 638 201 L 646 198 L 649 205 L 652 204 L 652 200 L 649 194 Q 648 190 644 191 L 643 195 L 641 197 L 634 199 L 633 195 L 638 192 L 641 188 L 642 183 L 641 179 L 641 177 L 635 177 L 636 172 L 641 170 L 640 167 L 637 168 L 636 164 L 632 162 Z M 498 164 L 502 173 L 507 176 L 507 172 L 504 167 Q 503 163 498 164 Z M 1280 167 L 1277 170 L 1274 180 Q 1273 183 1276 184 L 1281 184 L 1289 179 Q 1292 178 1291 173 L 1289 173 L 1280 180 L 1278 180 L 1282 169 Q 1283 166 1280 167 Z M 690 170 L 688 173 L 690 174 L 699 174 L 700 174 L 689 183 L 691 185 L 695 184 L 694 188 L 688 189 L 689 194 L 686 196 Q 685 198 692 197 L 694 196 L 693 198 Q 694 200 692 199 L 689 203 L 690 211 L 692 212 L 691 212 L 686 220 L 688 222 L 692 222 L 710 212 L 714 212 L 716 218 L 714 229 L 711 232 L 709 227 L 706 225 L 703 227 L 705 222 L 700 219 Q 695 218 697 223 Q 696 225 695 223 L 692 225 L 694 235 L 696 236 L 700 235 L 706 228 L 709 236 L 713 235 L 719 228 L 719 212 L 714 208 Q 701 210 693 217 L 692 216 L 708 206 L 710 201 Q 711 197 709 196 Q 702 195 700 198 L 697 200 L 699 183 L 696 183 L 702 179 L 706 172 L 705 170 L 690 170 Z M 1001 171 L 982 183 L 983 186 L 982 219 L 981 220 L 982 227 L 987 230 L 992 230 L 1004 222 L 1010 215 L 1012 210 L 1009 209 L 1011 205 L 1010 199 L 1008 198 L 1005 200 L 1002 199 L 1003 203 L 1002 207 Q 1001 213 1003 215 L 1005 216 L 995 224 L 989 226 L 987 225 Q 989 219 986 218 L 987 187 L 988 185 L 1003 175 Q 1005 170 1001 171 Z M 580 173 L 578 176 L 588 185 L 589 185 Q 590 181 587 179 L 580 173 Z M 543 174 L 541 176 L 546 183 Q 545 185 548 184 L 549 182 L 547 177 Q 547 173 543 174 Z M 765 174 L 764 180 L 765 184 L 772 183 L 771 185 L 772 188 L 771 200 L 770 201 Q 767 200 768 204 Q 769 206 773 205 L 776 196 L 776 186 L 780 179 L 779 176 L 776 176 L 772 179 L 769 179 L 769 174 L 765 174 Z M 1244 174 L 1244 178 L 1252 182 Q 1256 184 1255 180 L 1247 174 L 1244 174 Z M 686 175 L 684 176 L 682 178 L 682 184 L 679 200 L 672 219 L 667 226 L 667 229 L 670 230 L 680 210 L 685 191 L 686 180 L 688 176 L 686 175 Z M 487 176 L 488 185 L 477 190 L 467 190 L 466 193 Q 467 195 471 194 L 463 224 L 466 225 Q 470 219 471 211 L 477 209 L 478 209 L 473 217 Q 472 220 477 218 Q 483 214 481 204 L 474 205 L 472 206 L 475 196 L 490 189 Q 491 198 496 206 Q 495 214 490 218 Q 487 217 488 220 L 492 221 L 499 212 L 504 222 L 509 225 L 512 224 L 509 211 Q 510 207 507 208 L 507 217 L 501 207 L 501 203 L 504 196 Q 506 191 502 192 L 499 196 Q 500 199 497 198 L 494 190 Q 493 186 496 185 L 497 185 L 497 181 L 493 183 L 491 178 L 487 176 Z M 1106 176 L 1096 183 L 1094 183 L 1094 187 L 1099 186 L 1100 186 Q 1097 190 1098 198 L 1102 199 L 1106 194 L 1109 192 L 1110 192 L 1110 202 L 1109 203 L 1108 214 L 1106 216 L 1094 217 L 1092 219 L 1094 221 L 1102 221 L 1121 216 L 1137 216 L 1139 214 L 1138 210 Q 1134 209 1135 212 L 1120 212 L 1114 214 L 1111 214 L 1113 209 L 1113 195 L 1114 194 L 1113 190 Q 1114 185 1112 186 L 1111 185 L 1101 194 Q 1104 191 1103 186 L 1108 178 L 1106 176 Z M 1171 176 Q 1166 180 1156 179 L 1154 183 L 1163 183 L 1164 182 L 1165 183 Q 1160 189 1159 200 L 1159 202 L 1159 203 L 1163 203 L 1163 209 L 1157 211 L 1159 215 L 1162 214 L 1163 214 L 1163 216 L 1159 220 L 1159 222 Q 1167 223 1170 218 L 1177 209 Q 1178 206 1175 207 L 1173 210 L 1167 215 L 1166 212 L 1171 208 L 1170 205 L 1168 206 L 1167 199 L 1170 198 L 1172 201 L 1174 200 Q 1175 194 1172 193 L 1166 196 L 1163 198 Q 1165 186 1172 180 L 1171 176 Z M 1349 176 L 1348 177 Q 1345 176 1346 179 L 1350 181 L 1359 179 Q 1361 180 1360 176 L 1354 176 L 1353 177 L 1349 176 Z M 1381 177 L 1379 179 L 1381 186 L 1381 192 Q 1389 191 1393 187 Q 1394 183 1391 184 Q 1392 179 1390 178 L 1384 180 L 1383 179 L 1381 177 Z M 1193 178 L 1190 183 L 1189 195 L 1196 194 L 1197 194 L 1193 203 L 1189 201 L 1186 203 L 1190 208 L 1186 213 Q 1183 212 1184 215 L 1188 216 L 1193 209 L 1219 225 L 1221 222 L 1196 206 L 1202 192 L 1202 187 Q 1198 186 1196 189 L 1193 191 L 1195 179 L 1193 178 Z M 861 179 Q 860 186 862 189 L 865 190 L 872 188 L 873 188 L 873 199 L 869 197 L 863 197 L 863 200 L 872 204 Q 872 211 869 215 L 866 213 Q 863 212 864 217 L 870 220 L 874 215 L 877 204 L 884 208 Q 889 210 887 204 L 877 200 L 877 185 L 876 183 Q 870 182 868 185 Q 866 187 865 185 L 866 181 Q 865 178 861 179 Z M 1082 179 Q 1078 182 1079 189 L 1071 193 L 1073 195 L 1078 194 L 1079 194 L 1077 196 L 1072 211 L 1069 214 Q 1068 217 1072 216 Q 1077 212 1078 205 L 1080 206 L 1080 214 L 1079 213 L 1077 214 L 1079 224 L 1082 225 L 1084 221 L 1084 207 L 1084 205 L 1093 207 L 1094 205 L 1083 200 L 1083 192 L 1088 186 Q 1090 181 1086 182 L 1084 183 Q 1086 178 1082 179 Z M 351 180 L 341 183 L 336 187 Q 337 189 334 188 Q 335 184 333 183 L 330 185 L 330 190 Q 334 194 334 202 Q 335 206 340 205 L 341 205 L 329 219 L 329 221 L 332 222 Q 339 216 344 207 L 343 202 L 353 196 L 351 193 Q 354 189 355 183 Q 354 180 351 180 Z M 707 180 L 701 189 Q 700 193 704 193 Q 710 194 712 191 L 711 187 L 708 188 L 706 189 L 710 182 L 707 180 Z M 1023 181 Q 1022 184 1025 186 Q 1027 192 1024 194 Q 1025 196 1030 195 L 1032 194 L 1030 197 Q 1028 201 1032 200 L 1037 191 Q 1038 186 1036 185 L 1029 190 L 1029 189 L 1028 183 Q 1027 180 1023 181 Z M 1354 181 Q 1352 184 1353 192 L 1351 194 L 1341 198 L 1339 202 L 1343 202 L 1351 198 L 1352 198 L 1343 216 L 1346 217 Q 1350 213 1352 207 L 1353 207 L 1352 223 L 1350 230 L 1354 231 L 1358 205 L 1368 211 Q 1371 212 1370 209 L 1359 201 Q 1356 202 1357 195 L 1364 189 L 1363 185 L 1357 189 L 1358 184 Q 1359 179 1354 181 Z M 553 182 L 540 191 L 534 193 L 532 197 Q 538 198 541 195 L 554 185 L 553 182 Z M 748 182 Q 749 185 747 184 L 739 197 L 743 198 L 745 197 L 745 203 L 743 210 Q 742 215 746 213 L 749 200 L 749 191 L 748 190 L 751 186 Q 753 180 748 182 Z M 998 183 L 991 188 L 992 197 L 994 198 L 996 197 Q 1001 194 1002 186 L 998 183 Z M 829 184 L 818 203 L 821 204 L 827 197 L 829 208 L 829 222 L 832 222 L 833 219 Q 837 220 839 216 L 838 218 Q 836 222 841 221 Q 844 218 843 211 Q 848 208 847 202 L 844 204 L 838 195 Q 832 194 832 198 L 831 194 L 828 192 L 831 188 Q 833 183 829 184 Z M 935 184 L 933 186 L 934 190 L 934 203 L 933 204 Q 932 212 935 216 L 942 219 L 960 219 L 960 212 L 959 210 L 957 210 L 957 214 L 955 215 Q 946 216 942 214 L 937 209 L 938 206 L 942 206 L 949 201 Q 951 202 950 199 L 957 194 L 956 190 L 939 202 L 939 201 L 938 186 L 935 184 Z M 1125 185 L 1120 188 L 1117 192 L 1120 193 L 1122 192 L 1121 194 Q 1122 198 1118 196 L 1119 200 Q 1120 204 1117 204 Q 1114 203 1115 207 L 1118 208 L 1123 202 Q 1124 205 1127 204 Q 1128 199 1124 198 L 1127 186 L 1125 185 Z M 1290 185 Q 1284 192 1275 196 L 1277 199 L 1280 198 Q 1278 202 1279 211 L 1278 212 Q 1276 218 1280 220 L 1284 218 L 1290 208 L 1318 223 Q 1323 225 1321 219 L 1305 212 L 1293 204 L 1298 194 L 1296 194 L 1289 201 L 1287 201 L 1285 205 L 1288 207 L 1286 211 L 1282 214 L 1284 194 L 1292 188 Q 1293 184 1290 185 Z M 1254 186 Q 1250 191 1243 190 L 1242 195 Q 1252 194 1257 188 L 1254 186 Z M 912 189 L 911 196 L 912 199 L 901 207 L 903 209 L 910 206 L 911 206 L 911 212 L 903 221 L 906 222 L 913 217 L 917 210 L 916 209 L 916 191 L 912 189 Z M 767 190 Q 765 198 760 203 L 764 204 L 771 193 Q 772 188 767 190 Z M 777 190 L 777 192 L 791 194 L 791 190 L 777 190 Z M 572 192 L 570 194 L 569 201 L 561 204 L 563 208 L 567 207 L 563 218 L 561 219 L 558 216 Q 556 210 550 211 L 558 222 L 560 227 L 563 228 Q 565 227 564 222 Q 570 215 572 205 L 572 219 L 573 221 L 578 224 L 597 224 L 598 223 L 592 211 L 589 209 L 592 220 Q 582 221 577 219 L 576 217 L 576 205 L 575 204 L 575 202 L 581 196 Q 582 191 577 193 L 575 197 L 573 197 L 573 192 L 572 192 Z M 544 194 L 541 198 L 541 210 L 545 211 L 545 226 L 541 219 Q 542 215 539 216 L 533 227 Q 532 232 536 230 L 540 223 L 541 227 L 546 231 L 548 231 L 549 227 L 549 208 L 551 204 Q 552 197 550 196 L 544 197 L 544 194 Z M 1391 196 L 1381 201 L 1379 205 Q 1383 206 1386 203 Q 1389 202 1388 206 L 1383 209 L 1381 209 L 1381 213 L 1386 212 L 1387 212 L 1384 217 L 1376 217 L 1376 221 L 1380 222 L 1384 222 L 1394 218 L 1419 214 L 1418 210 L 1390 215 L 1391 209 L 1396 204 L 1396 201 Q 1393 200 1392 203 L 1391 200 L 1395 198 Q 1396 194 1391 196 Z M 1027 198 L 1024 201 L 1023 206 L 1017 217 L 1012 220 Q 1010 225 1015 224 L 1025 212 L 1045 223 L 1046 226 Q 1047 228 1052 227 L 1053 225 L 1039 214 L 1026 209 L 1028 203 Q 1030 197 1027 198 Z M 1102 200 L 1100 201 Q 1096 202 1097 208 L 1101 210 L 1105 209 Q 1108 207 1106 201 L 1102 200 Z M 1250 200 L 1247 205 L 1247 210 Q 1244 212 1244 219 L 1240 227 L 1236 230 Q 1234 236 1240 234 L 1248 217 L 1253 219 L 1256 218 L 1260 209 Q 1261 205 1259 204 L 1254 205 L 1251 207 L 1252 204 Q 1254 199 1250 200 Z M 992 202 L 992 213 L 991 214 Q 989 219 994 218 L 1000 208 L 999 203 L 996 204 L 992 202 Z M 356 209 L 356 213 L 362 217 L 369 225 Q 373 226 371 221 L 362 211 L 356 209 Z M 784 211 L 782 213 L 782 215 L 787 219 Q 789 218 788 221 L 795 226 Q 798 225 797 221 L 793 219 L 791 217 L 789 215 L 787 212 L 784 211 Z M 423 214 L 421 216 L 425 220 Q 429 222 428 218 Q 428 214 423 214 Z M 409 216 Q 405 219 404 225 L 407 226 L 411 220 Q 413 215 409 216 Z M 413 216 L 415 221 L 419 224 L 421 222 L 420 219 Q 419 215 413 216 Z M 766 216 L 760 217 L 761 224 L 765 226 L 769 225 L 772 221 L 771 219 L 766 216 Z M 752 218 L 749 219 L 742 229 L 742 231 L 745 232 L 755 219 L 752 218 Z " /><path fill="rgb(0,0,0)" stroke="rgb(0,0,0)" stroke-width="1" opacity="0" d="M 184.5 33 L 187 34.5 Q 189.7 38.3 188 46.5 L 181 52.5 L 182.5 49 L 186 47.5 L 186 45 L 181 45 L 181 36.5 L 180.5 35 L 184.5 33 Z " /><path fill="rgb(0,0,0)" stroke="rgb(0,0,0)" stroke-width="1" opacity="0" d="M 129.5 34 L 131 38.5 L 124.5 41 L 125 39.5 L 127.5 35 L 129.5 34 Z " /><path fill="rgb(0,0,0)" stroke="rgb(0,0,0)" stroke-width="1" opacity="0" d="M 101 42 L 103 42.5 L 101 43.5 L 101 42 Z " /><path fill="rgb(0,0,0)" stroke="rgb(0,0,0)" stroke-width="1" opacity="0" d="M 130.5 43 L 131 44.5 L 123.5 50 L 124 48.5 L 125.5 45 L 130.5 43 Z " /><path fill="rgb(0,0,0)" stroke="rgb(0,0,0)" stroke-width="1" opacity="0" d="M 502.5 46 Q 506.3 45.3 507 47.5 L 508 53.5 L 504 55 Q 504.8 48.5 502.5 46 Z " /><path fill="rgb(0,0,0)" stroke="rgb(0,0,0)" stroke-width="1" opacity="0" d="M 344.5 47 L 345 50 L 340.5 52 L 340 48 L 344.5 47 Z " /><path fill="rgb(0,0,0)" stroke="rgb(0,0,0)" stroke-width="1" opacity="0" d="M 101 48 L 103 48.5 L 101 49.5 L 101 48 Z " /><path fill="rgb(0,0,0)" stroke="rgb(0,0,0)" stroke-width="1" opacity="0" d="M 498.5 48 L 500 56 L 495 57 L 498.5 48 Z " /><path fill="rgb(0,0,0)" stroke="rgb(0,0,0)" stroke-width="1" opacity="0" d="M 428.5 52 L 429 53.5 L 425 62 Q 422.3 63.1 423 60.5 L 428.5 52 Z " /><path fill="rgb(0,0,0)" stroke="rgb(0,0,0)" stroke-width="1" opacity="0" d="M 345.5 54 L 346 56.5 L 340 59 Q 338.3 54.9 342.5 56 L 345.5 54 Z " /><path fill="rgb(0,0,0)" stroke="rgb(0,0,0)" stroke-width="1" opacity="0" d="M 504.5 59 L 507 59 L 507 64.5 L 506 68 L 503 66.5 Q 505.4 58.7 499 61 L 499 69 L 495.5 69 L 491 66.5 L 493.5 62 L 504.5 59 Z " /><path fill="rgb(0,0,0)" stroke="rgb(0,0,0)" stroke-width="1" opacity="0" d="M 429.5 61 L 430 66.5 L 428 73.5 L 425.5 76 Q 423.3 76.8 424 74.5 L 423 72.5 Q 428.1 68.6 429.5 61 Z " /><path fill="rgb(0,0,0)" stroke="rgb(0,0,0)" stroke-width="1" opacity="0" d="M 344.5 62 L 345 64.5 L 343 69 L 339.5 70 L 339 63.5 L 341.5 63 L 344.5 62 Z " /><path fill="rgb(0,0,0)" stroke="rgb(0,0,0)" stroke-width="1" opacity="0" d="M 315.5 65 L 314.5 67 L 315.5 65 Z " /><path fill="rgb(0,0,0)" stroke="rgb(0,0,0)" stroke-width="1" opacity="0" d="M 636.5 180 Q 639.5 179.2 638 183 Q 634.2 184.5 635 181.5 L 636.5 180 Z " /><path fill="rgb(0,0,0)" stroke="rgb(0,0,0)" stroke-width="1" opacity="0" d="M 630.5 183 L 631 185 L 629 184.5 L 630.5 183 Z " /><path fill="rgb(0,0,0)" stroke="rgb(0,0,0)" stroke-width="1" opacity="0" d="M 347.5 185 Q 350.8 183.9 350 186.5 L 339.5 200 L 338 200 L 338 192.5 L 336.5 192 L 335 189.5 L 336 189.5 Q 335.3 191.8 337.5 191 Q 340.5 186 347.5 185 Z " /><path fill="rgb(0,0,0)" stroke="rgb(0,0,0)" stroke-width="1" opacity="0" d="M 636.5 186 L 634.5 189 L 634 187 L 636.5 186 Z " /><path fill="rgb(0,0,0)" stroke="rgb(0,0,0)" stroke-width="1" opacity="0" d="M 997.5 188 L 997 189.5 L 996.5 191 L 996 189.5 L 997.5 188 Z " /><path fill="rgb(0,0,0)" stroke="rgb(0,0,0)" stroke-width="1" opacity="0" d="M 705.5 199 L 706 201.5 L 705 204 Q 702.3 205.1 703 202.5 L 705.5 199 Z " /><path fill="rgb(0,0,0)" stroke="rgb(0,0,0)" stroke-width="1" opacity="0" d="M 547.5 200 L 546 202.5 L 545.5 204 L 545 202.5 L 547.5 200 Z " /><path fill="rgb(0,0,0)" stroke="rgb(0,0,0)" stroke-width="1" opacity="0" d="M 694 200 L 696 200.5 L 695 203.5 L 696 205.5 L 694.5 209 L 693 202.5 L 694 200 Z " /><path fill="rgb(0,0,0)" stroke="rgb(0,0,0)" stroke-width="1" opacity="0" d="M 835 200 L 838 201.5 L 836.5 205 L 833.5 207 L 833 205.5 L 835 200 Z " /><path fill="rgb(0,0,0)" stroke="rgb(0,0,0)" stroke-width="1" opacity="0" d="M 1102.5 204 L 1103 205.5 L 1101 206.5 L 1102.5 204 Z " /><path fill="rgb(0,0,0)" stroke="rgb(0,0,0)" stroke-width="1" opacity="0" d="M 838.5 208 L 839 209.5 L 833 214.5 Q 832.5 210.5 835.5 210 L 838.5 208 Z " /><path fill="rgb(0,0,0)" stroke="rgb(0,0,0)" stroke-width="1" opacity="0" d="M 1255.5 209 L 1255 210.5 Q 1255.5 214.5 1252.5 215 Q 1250.3 215.8 1251 213.5 L 1250.5 212 L 1255.5 209 Z " /><path fill="rgb(0,0,0)" stroke="rgb(0,0,0)" stroke-width="1" opacity="0" d="M 765 220 L 767 220.5 L 765 221.5 L 765 220 Z " /><path fill="rgb(244,244,244)" stroke="rgb(244,244,244)" stroke-width="1" opacity="0.7607843137254902" d="M 47 21 L 52 24.5 L 57 36 L 52 35 L 47 25.5 L 47 21 Z " /><path fill="rgb(244,244,244)" stroke="rgb(244,244,244)" stroke-width="1" opacity="0.7607843137254902" d="M 491.5 25 Q 495.9 23.5 495 26.5 L 490 37 L 511.5 28 L 514 29 L 513 33 L 506.5 34 L 491.5 42 L 485 42 L 485 37.5 L 491.5 25 Z " /><path fill="rgb(244,244,244)" stroke="rgb(244,244,244)" stroke-width="1" opacity="0.7607843137254902" d="M 618 25 Q 621.8 24.3 623 27.5 L 623.5 34 Q 626.8 29 633 28 L 633 32 L 631.5 32 Q 628 37 622 38 Q 622.6 42.6 619 44.5 L 620.5 45 L 630.5 42 L 632.5 40 L 637 40 L 635.5 44 L 622 49 L 622 59.5 L 618 69 Q 613.1 70.8 615 64.5 Q 619.1 59.7 618 51 L 605.5 54 L 599.5 54 L 598 50 L 611 47.5 L 607 47 L 609 39.5 L 606 35.5 L 606 33 L 611 33 L 611 34.5 Q 614 36.5 613 42.5 L 611 46.5 L 614.5 47 L 618 45.5 L 617 40.5 L 619 30.5 L 618 25 Z " /><path fill="rgb(244,244,244)" stroke="rgb(244,244,244)" stroke-width="1" opacity="0.7607843137254902" d="M 182.5 29 Q 189.3 27.2 191 30.5 L 192 34.5 L 193 77.5 L 192 80 L 189.5 81 L 183 76.5 Q 180.4 75.1 181 70.5 L 184 72.5 L 187.5 77 L 189 67.5 L 188 66.5 L 187.5 52 L 181 58.5 L 180 73.5 L 179 74.5 L 179 89.5 L 178 92 L 175.5 93 L 173 89.5 L 175 86.5 L 176 61 L 170.5 62 L 169 59.5 L 176 55.5 Q 177.3 51.8 173.5 53 L 168.5 54 L 167 51.5 L 177 46.5 L 177 38.5 L 175.5 38 L 166 45.5 L 165 60.5 L 162 69.5 L 161 80 Q 154.6 82.3 157 74.5 L 161 60.5 L 161 46.5 L 162 45.5 L 162 37 L 164.5 36 L 166.5 39 L 182.5 29 Z M 185 33 L 181 35 L 181 37 L 181 45 L 186 45 L 186 48 L 188 47 Q 190 38 187 35 L 185 33 Z M 183 49 L 181 53 L 185 50 L 183 49 Z " /><path fill="rgb(244,244,244)" stroke="rgb(244,244,244)" stroke-width="1" opacity="0.7607843137254902" d="M 128.5 30 Q 133.3 30.3 135 33.5 L 136 46.5 L 135 47.5 L 135 85.5 L 132.5 88 Q 127.8 88.8 127 85.5 L 126 81 L 129 82.5 Q 128.3 84.8 130.5 84 Q 133.3 82.8 132 77.5 L 131 72.5 Q 133.5 71 132 65.5 L 131 64.5 L 130.5 51 Q 128.6 54.6 122.5 54 L 121 51.5 L 121.5 50 L 119 48.5 L 118 37.5 L 128.5 30 Z M 130 34 L 128 35 L 125 40 L 125 41 L 131 39 L 130 34 Z M 131 43 L 126 45 L 124 49 Q 129 49 131 45 L 131 43 Z " /><path fill="rgb(244,244,244)" stroke="rgb(244,244,244)" stroke-width="1" opacity="0.7607843137254902" d="M 427.5 30 Q 431.9 28.5 431 31.5 L 425 36 L 424 43.5 L 432 47.5 L 434 56 L 441 50.5 L 443.5 45 Q 447.7 43.7 446 48.5 Q 444.5 55 439 57.5 L 458.5 68 L 461 68 Q 462 71.8 459.5 73 L 434.5 60 L 432 74.5 L 427.5 80 L 422 77.5 Q 422.8 75.3 420.5 76 L 414.5 83 L 411.5 84 Q 409 82.8 410 79 Q 414.7 78.6 417 74.5 L 421 68.5 L 421 65.5 L 416 61.5 Q 417.1 58.2 414.5 59 Q 413.3 61.3 412 58.5 L 412 55.5 L 420 43.5 L 421 39 L 413 40 L 414.5 36 Q 422.7 34.7 427.5 30 Z M 424 48 L 422 49 L 416 58 Q 415 60 420 59 L 426 50 L 424 48 Z M 427 56 L 423 61 Q 422 63 425 62 L 427 58 L 427 56 Z M 430 61 Q 428 69 423 73 L 424 75 Q 423 77 426 76 L 428 74 L 430 67 L 430 61 Z " /><path fill="rgb(244,244,244)" stroke="rgb(244,244,244)" stroke-width="1" opacity="0.7607843137254902" d="M 319.5 31 Q 323.3 30.3 324 32.5 L 326 40.5 L 326 85.5 L 322.5 88 L 317 83.5 L 316 81.5 L 319 81 L 320.5 84 L 322 83.5 L 322 40.5 L 321 36 Q 315.7 35.3 313 38.5 L 315 43 L 317.5 42 L 319 44.5 L 314 51 L 316.5 50 L 318 53.5 L 312 58.5 L 320 61.5 Q 320 69 315.5 72 L 309 72 L 309 62.5 L 310 59 Q 305.5 60.8 307 55.5 L 310 50.5 L 305 50 L 306.5 46 L 311 45 L 310.5 40 L 305 43 Q 304 37.4 308.5 36 L 319.5 31 Z " /><path fill="rgb(244,244,244)" stroke="rgb(244,244,244)" stroke-width="1" opacity="0.7607843137254902" d="M 340.5 31 L 343.5 32 L 347.5 31 L 353 33.5 L 351.5 36 L 342 34 L 339 40.5 L 340 44 L 345.5 43 L 352 39 Q 352.8 43.5 350 45.5 L 351 51 Q 355.1 49.3 354 53.5 Q 347.8 58.1 348 68 L 350.5 67 L 357.5 67 L 376 64 L 374.5 68 L 359.5 71 L 352.5 71 L 347.5 72 L 342.5 75 L 338 75 L 337 80 L 334 80 L 334 71.5 L 335 70.5 L 336 53.5 L 334.5 50 L 330.5 55 Q 326.3 56.3 328 51.5 Q 334.5 45 337 34.5 L 340.5 31 Z M 345 47 L 340 48 L 341 52 L 345 50 L 345 47 Z M 346 54 L 343 56 Q 338 55 340 59 L 346 57 L 346 54 Z M 345 62 L 342 63 L 339 64 L 340 70 L 343 69 L 345 65 L 345 62 Z " /><path fill="rgb(244,244,244)" stroke="rgb(244,244,244)" stroke-width="1" opacity="0.7607843137254902" d="M 36.5 35 Q 39.8 33.9 39 36.5 L 40 41 L 48 39 L 46.5 43 L 42 45 L 44 56 L 47 54.5 L 51.5 45 Q 54.3 44.4 53 50.5 L 47 61.5 L 52.5 72 L 56.5 64 L 58 80.5 Q 57.3 82.8 53.5 82 L 44.5 67 L 38.5 75 L 36.5 76 Q 33.8 74.8 36 73.5 L 42 63.5 L 42 60.5 L 36.5 48 L 27.5 51 L 25 53.5 L 24 58.5 L 25.5 58 Q 28.8 56.9 28 59.5 L 24 64.5 L 22 80.5 L 19.5 83 L 15 79.5 L 14 73 L 9 73 L 9 71.5 Q 6.8 70.3 9.5 69 L 20 64 L 20 55 L 15.5 55 L 10.5 56 L 9 52 L 17.5 51 L 21 48.5 L 22 43 Q 14.9 44.8 13 40.5 Q 12.2 37.9 15.5 39 L 27.5 36 Q 31.2 38.2 26 40.5 L 26 47 L 28.5 47 L 36 44 L 35 36.5 L 36.5 35 Z M 19 69 L 14 73 L 16 73 L 17 76 L 19 77 L 19 69 Z " /><path fill="rgb(244,244,244)" stroke="rgb(244,244,244)" stroke-width="1" opacity="0.7607843137254902" d="M 90 35 Q 95.2 32.9 94 37.5 L 88 47.5 L 89 48.5 L 89 67.5 L 88 68.5 L 88 77.5 L 89 79.5 L 86.5 85 L 84 84.5 L 84 55.5 L 83 55.5 L 81 61 L 77 61 L 77 59.5 L 90 35 Z " /><path fill="rgb(244,244,244)" stroke="rgb(244,244,244)" stroke-width="1" opacity="0.7607843137254902" d="M 300 37 L 304 39.5 L 303 63.5 L 300 74.5 L 296.5 79 Q 293.5 79.9 295 75.5 L 298 68.5 L 300 58.5 L 300 37 Z " /><path fill="rgb(244,244,244)" stroke="rgb(244,244,244)" stroke-width="1" opacity="0.7607843137254902" d="M 99.5 38 Q 105.7 37.4 108 40 L 109 44.5 Q 106.6 52.6 101 57.5 L 101 75.5 L 99.5 77 L 97 76.5 L 97 43.5 L 99.5 38 Z M 101 42 L 101 44 L 103 43 L 101 42 Z M 101 48 L 101 50 L 103 49 L 101 48 Z " /><path fill="rgb(244,244,244)" stroke="rgb(244,244,244)" stroke-width="1" opacity="0.7607843137254902" d="M 394.5 41 L 401.5 41 L 402 42.5 Q 397.6 47.4 388 46 L 389.5 42 L 394.5 41 Z " /><path fill="rgb(244,244,244)" stroke="rgb(244,244,244)" stroke-width="1" opacity="0.7607843137254902" d="M 498.5 41 L 499.5 43 Q 501.3 40.3 507.5 42 L 511 44.5 L 512 54 L 518.5 53 Q 522.8 54.8 520 56.5 L 519.5 58 L 512.5 58 L 511 59.5 L 510 69 L 516 70 L 514.5 74 L 509 73 L 507 83.5 L 504.5 86 Q 500.5 86.5 500 83.5 L 499 78.5 L 502 80.5 L 502.5 82 L 505 73 Q 493.5 74.3 487 71 L 488 64.5 L 482.5 64 Q 481.3 66.3 476.5 65 Q 473 63 477.5 61 Q 486.8 61.3 491 56.5 L 493 46.5 L 496.5 42 L 498.5 41 Z M 503 46 Q 505 49 504 55 L 508 54 L 507 48 Q 506 45 503 46 Z M 499 48 L 495 57 L 500 56 L 499 48 Z M 505 59 L 500 60 L 500 61 Q 506 59 503 67 L 506 68 L 507 65 L 507 59 L 505 59 Z M 496 61 L 494 62 L 491 67 Q 494 70 499 69 L 499 61 L 496 61 Z " /><path fill="rgb(244,244,244)" stroke="rgb(244,244,244)" stroke-width="1" opacity="0.7607843137254902" d="M 266.5 42 Q 272.3 41.3 273 45.5 L 278 51.5 L 279 56 L 275.5 56 L 270 50.5 L 269 47 Q 266.3 48.1 267 45.5 Q 263.3 43.8 266.5 42 Z " /><path fill="rgb(244,244,244)" stroke="rgb(244,244,244)" stroke-width="1" opacity="0.7607843137254902" d="M 396.5 48 L 399 49 L 398 53 L 403 51 L 403 54.5 L 398 59.5 L 398 71 L 409 63 Q 408 71.2 401.5 75 L 395.5 80 L 391.5 81 L 390 78.5 L 394 74.5 L 394 62 Q 390.2 63 389 60.5 L 390.5 58 L 394 57 Q 393.1 51 396.5 48 Z " /><path fill="rgb(244,244,244)" stroke="rgb(244,244,244)" stroke-width="1" opacity="0.7607843137254902" d="M 218.5 50 L 221 51 L 214 67.5 L 215 69.5 L 210.5 72 Q 208.3 71.3 209 67.5 L 218.5 50 Z " /><path fill="rgb(244,244,244)" stroke="rgb(244,244,244)" stroke-width="1" opacity="0.7607843137254902" d="M 244.5 50 Q 249 49 250 51.5 L 248.5 54 Q 243.8 54.8 243 51.5 L 244.5 50 Z " /><path fill="rgb(244,244,244)" stroke="rgb(244,244,244)" stroke-width="1" opacity="0.7607843137254902" d="M 570.5 52 L 577 52 L 577 54.5 L 575.5 56 L 563.5 59 L 547.5 62 L 540.5 62 L 538 61 L 539.5 57 L 543.5 58 L 570.5 52 Z " /><path fill="rgb(244,244,244)" stroke="rgb(244,244,244)" stroke-width="1" opacity="0.7607843137254902" d="M 254 53 Q 257.7 51.5 257 54.5 L 258 58.5 L 254.5 63 Q 249.8 66.3 240.5 65 L 232 59.5 L 232 54 L 234.5 54 L 239.5 60 L 243.5 62 L 248.5 61 L 254 57.5 L 254 53 Z " /><path fill="rgb(244,244,244)" stroke="rgb(244,244,244)" stroke-width="1" opacity="0.7607843137254902" d="M 630.5 55 L 633 56.5 L 630 71.5 L 623 85.5 L 615.5 93 L 611 92 L 611 88 L 612.5 88 L 613.5 89 L 618 84.5 L 627 67.5 L 629 56.5 L 630.5 55 Z " /><path fill="rgb(244,244,244)" stroke="rgb(244,244,244)" stroke-width="1" opacity="0.7607843137254902" d="M 612.5 56 Q 615.9 55.1 614 60.5 Q 610.8 69.3 603.5 74 L 600.5 75 L 599 73.5 L 604 68.5 L 612.5 56 Z " /><path fill="rgb(244,244,244)" stroke="rgb(244,244,244)" stroke-width="1" opacity="0.7607843137254902" d="M 418.5 162 L 421 163.5 L 417 171.5 L 413 185.5 L 414.5 185 Q 420.8 182.8 419 188.5 L 417 195 L 422 196 L 419 205.5 L 420.5 205 Q 425 200.5 435.5 202 L 438 204.5 L 439 208.5 L 438 212.5 L 448 216 L 448 221 L 444.5 221 L 437 218 L 433 230 L 426.5 231 L 424 230 L 422 224 L 426 225.5 L 427.5 228 Q 433.2 224.4 433 216 L 430 214.5 L 430 213 L 434 213 L 434 206 L 427.5 206 L 412.5 213 L 411 210.5 L 417 200.5 L 412 199 Q 411.3 192.9 415 189.5 L 413.5 189 L 411 191.5 L 404 211.5 L 390.5 233 L 388 232 L 392 220 Q 395.7 221.5 395 218.5 Q 403.6 207.1 407 190.5 L 406 188.5 L 409 185.5 L 410 181.5 L 405 178.5 L 404 173 Q 407.8 172.3 409 175.5 L 410.5 178 Q 413.5 176 413 170.5 L 418.5 162 Z " /><path fill="rgb(244,244,244)" stroke="rgb(244,244,244)" stroke-width="1" opacity="0.7607843137254902" d="M 632 162 L 636 163.5 L 636.5 168 L 639.5 167 L 641 169.5 L 636 172 L 635 177 L 640.5 177 L 641 178.5 L 642 182.5 L 641 187.5 L 637.5 192 L 633 194.5 L 633.5 199 L 640.5 197 L 643 194.5 L 644 191 Q 647.8 190.3 649 193.5 L 652 199.5 L 652 203.5 L 649 205 L 645.5 198 L 638 201 L 639 209 L 649 208 Q 650.5 211.8 647.5 211 L 640 214.5 L 639 233.5 L 635.5 238 Q 630.1 238.6 628 237 L 627 232 L 630.5 234 L 633.5 234 Q 636.5 232.4 635 227 Q 628.3 227 625 222.5 Q 624.1 219.1 629.5 221 L 636 223 L 635.5 215 L 619.5 219 L 618 216.5 L 619.5 215 L 633.5 212 L 635 210.5 L 635 203 L 631.5 203 Q 627.2 206.7 619.5 207 L 618 204.5 Q 620.8 201.3 626.5 201 L 629 198.5 L 630 196.5 Q 628.7 193.8 627.5 196 L 625 195.5 L 625 182.5 L 624 180 Q 629.7 181 632 177.5 Q 633.3 173.3 628.5 175 L 622.5 177 L 621 174.5 L 623.5 172 L 632 170 L 632 162 Z M 637 180 L 635 182 Q 634 185 638 183 Q 639 179 637 180 Z M 631 183 L 629 185 L 631 185 L 631 183 Z M 634 187 L 634 189 L 636 188 L 634 187 Z " /><path fill="rgb(244,244,244)" stroke="rgb(244,244,244)" stroke-width="1" opacity="0.7607843137254902" d="M 498 164 Q 502.7 163 504 166.5 L 507 171.5 L 507 176 L 502 172.5 L 498 164 Z " /><path fill="rgb(244,244,244)" stroke="rgb(244,244,244)" stroke-width="1" opacity="0.7607843137254902" d="M 1279.5 167 Q 1282.8 165.9 1282 168.5 L 1278 179.5 L 1279.5 180 L 1288.5 173 L 1291 173 Q 1292 177.7 1288.5 179 L 1280.5 184 L 1275.5 184 Q 1273.3 183.3 1274 179.5 L 1277 169.5 L 1279.5 167 Z " /><path fill="rgb(244,244,244)" stroke="rgb(244,244,244)" stroke-width="1" opacity="0.7607843137254902" d="M 689.5 170 L 704.5 170 L 706 171.5 L 701.5 179 L 696 182.5 L 699 183 L 697 199.5 L 699.5 198 Q 702.2 195.2 708.5 196 Q 710.8 196.8 710 200.5 L 708 206 L 692 215.5 L 692.5 217 Q 700.8 210.2 713.5 208 L 719 211.5 L 719 227.5 L 712.5 235 L 708.5 236 L 705.5 228 L 699.5 235 L 695.5 236 L 694 234.5 L 692 224.5 L 694.5 223 Q 695.8 225.3 697 222.5 L 696.5 219 Q 694.2 222.7 687.5 222 L 686 219.5 L 690.5 212 L 692 211.5 L 690 211 L 689 202.5 L 691.5 199 Q 693.8 199.8 693 197.5 L 694 195.5 L 691.5 197 Q 685.4 198.3 686 195.5 L 689 194 L 688 189 L 694 188 L 695 184 L 690.5 185 L 689 182.5 L 699 174.5 L 689.5 174 L 688 172.5 L 689.5 170 Z M 706 199 L 703 203 Q 702 205 705 204 L 706 202 L 706 199 Z M 694 200 L 693 203 L 695 209 L 696 206 L 695 204 L 696 201 L 694 200 Z M 710 212 L 697 219 L 705 222 L 704 225 L 705 226 L 708 225 L 711 232 L 714 229 L 716 221 L 715 214 Q 714 211 710 212 Z " /><path fill="rgb(244,244,244)" stroke="rgb(244,244,244)" stroke-width="1" opacity="0.7607843137254902" d="M 1000.5 171 Q 1004.7 169.7 1003 174.5 L 988 184.5 L 987 186.5 L 986 217.5 Q 988.5 219 987 224.5 L 988.5 226 L 994.5 224 L 1005 215.5 L 1003 215 Q 1001.3 212.6 1002 206.5 L 1003 202.5 L 1002 199 L 1004.5 200 L 1007.5 198 L 1010 199 L 1011 204.5 L 1010 207.5 L 1012 210.5 L 1004 222 L 991.5 230 L 986.5 230 L 982 226.5 L 981 219.5 L 982 218.5 L 983 185.5 L 982 182.5 L 1000.5 171 Z " /><path fill="rgb(244,244,244)" stroke="rgb(244,244,244)" stroke-width="1" opacity="0.7607843137254902" d="M 579.5 173 L 587 178.5 Q 589.8 180.5 589 185 L 587.5 185 L 578 175.5 L 579.5 173 Z " /><path fill="rgb(244,244,244)" stroke="rgb(244,244,244)" stroke-width="1" opacity="0.7607843137254902" d="M 542.5 174 Q 546.5 173.5 547 176.5 L 549 181.5 L 548 184 Q 545.3 185.1 546 182.5 L 541 175.5 L 542.5 174 Z " /><path fill="rgb(244,244,244)" stroke="rgb(244,244,244)" stroke-width="1" opacity="0.7607843137254902" d="M 765 174 L 769 174 L 769 179 L 771.5 179 L 775.5 176 L 778.5 176 L 780 178.5 L 776 185.5 L 776 195.5 L 772.5 205 Q 768.8 205.8 768 203.5 Q 766.9 200.2 769.5 201 L 771 199.5 L 772 187.5 L 771 184.5 L 771.5 183 L 765 184 L 764 179.5 L 765 174 Z " /><path fill="rgb(244,244,244)" stroke="rgb(244,244,244)" stroke-width="1" opacity="0.7607843137254902" d="M 1244 174 L 1246.5 174 L 1255 179.5 Q 1256.3 183.7 1251.5 182 L 1244 177.5 L 1244 174 Z " /><path fill="rgb(244,244,244)" stroke="rgb(244,244,244)" stroke-width="1" opacity="0.7607843137254902" d="M 685.5 175 L 688 176 L 686 179.5 L 685 190.5 L 680 209.5 L 669.5 230 L 667 228.5 L 667 225.5 L 672 218.5 L 679 199.5 L 682 183.5 L 682 177.5 L 683.5 176 L 685.5 175 Z " /><path fill="rgb(244,244,244)" stroke="rgb(244,244,244)" stroke-width="1" opacity="0.7607843137254902" d="M 487 176 L 491 177.5 L 492.5 183 L 497 181 L 497 185 L 495.5 185 Q 493.3 185.8 494 189.5 L 497 198 Q 500 199.3 499 195.5 L 501.5 192 Q 505.7 190.7 504 195.5 L 501 202.5 L 501 206.5 L 506.5 217 L 507 208 Q 510 206.8 509 210.5 L 512 223.5 L 508.5 225 L 504 221.5 L 498.5 212 L 491.5 221 L 488 219.5 Q 487.3 217.3 489.5 218 Q 494.8 213.8 496 205.5 Q 491.3 198.5 490 189 L 475 195.5 L 472 205.5 L 473.5 205 L 481 204 Q 482.6 214.3 476.5 218 Q 472.1 219.5 473 216.5 L 478 208.5 L 476.5 209 L 471 211 Q 470.3 219.3 465.5 225 L 463 223.5 L 471 194 Q 467.2 195 466 192.5 L 466.5 190 L 476.5 190 L 488 185 L 487 176 Z " /><path fill="rgb(244,244,244)" stroke="rgb(244,244,244)" stroke-width="1" opacity="0.7607843137254902" d="M 1105.5 176 L 1108 177.5 Q 1102.3 182.3 1102 192.5 L 1110.5 185 L 1111.5 186 Q 1114.5 185.1 1113 189.5 L 1114 193.5 L 1113 194.5 L 1113 208.5 L 1111 213.5 L 1113.5 214 L 1119.5 212 L 1135 212 Q 1133.9 208.7 1138 210 L 1139 213.5 L 1136.5 216 L 1120.5 216 L 1101.5 221 L 1093.5 221 L 1092 218.5 L 1093.5 217 L 1105.5 216 L 1108 213.5 L 1109 202.5 L 1110 201.5 L 1110 191.5 L 1108.5 192 L 1106 193.5 L 1101.5 199 L 1098 198 L 1099 186 L 1094 187 L 1094 183 L 1095.5 183 L 1105.5 176 Z " /><path fill="rgb(244,244,244)" stroke="rgb(244,244,244)" stroke-width="1" opacity="0.7607843137254902" d="M 1170.5 176 L 1172 179.5 Q 1164.7 185.7 1163 197.5 L 1165.5 196 L 1171.5 193 Q 1174.6 194.4 1174 199.5 L 1171.5 201 L 1169.5 198 L 1167 199 L 1167.5 206 L 1169.5 205 L 1171 207.5 L 1166 211.5 L 1166.5 215 L 1173 209.5 L 1174.5 207 Q 1177.8 205.9 1177 208.5 L 1169.5 218 Q 1166.5 223 1159 222 L 1159 219.5 L 1163 215.5 L 1163 213.5 L 1161.5 214 L 1158.5 215 L 1157 211 L 1163 208.5 L 1163 203 L 1159 203 L 1159 201.5 L 1159 199.5 Q 1160 189 1165 182.5 L 1163.5 182 L 1162.5 183 L 1154 183 L 1155.5 179 Q 1165.7 180.2 1170.5 176 Z " /><path fill="rgb(244,244,244)" stroke="rgb(244,244,244)" stroke-width="1" opacity="0.7607843137254902" d="M 1348.5 176 L 1352.5 177 L 1353.5 176 L 1360 176 Q 1361.5 179.7 1358.5 179 L 1349.5 181 L 1346 178.5 Q 1345.3 176.3 1347.5 177 L 1348.5 176 Z " /><path fill="rgb(244,244,244)" stroke="rgb(244,244,244)" stroke-width="1" opacity="0.7607843137254902" d="M 1380.5 177 L 1383 178.5 L 1383.5 180 L 1389.5 178 Q 1392.3 179.4 1391 184 Q 1394 182.8 1393 186.5 Q 1388.7 191.4 1381 192 L 1381 185.5 L 1379 178.5 L 1380.5 177 Z " /><path fill="rgb(244,244,244)" stroke="rgb(244,244,244)" stroke-width="1" opacity="0.7607843137254902" d="M 1192.5 178 L 1195 179 L 1193 190.5 L 1195.5 189 Q 1197.5 186.2 1202 187 L 1202 191.5 L 1196 206 L 1221 221.5 L 1218.5 225 L 1193 209 L 1187.5 216 L 1184 214.5 Q 1183.3 212.3 1185.5 213 L 1190 207.5 L 1186 202.5 L 1188.5 201 L 1192.5 203 L 1197 193.5 L 1195.5 194 L 1189 195 L 1190 182.5 L 1192.5 178 Z " /><path fill="rgb(244,244,244)" stroke="rgb(244,244,244)" stroke-width="1" opacity="0.7607843137254902" d="M 861 179 Q 864.8 178 866 180.5 L 865 184.5 Q 866.2 187.3 867.5 185 Q 869.8 182.3 875.5 183 L 877 184.5 L 877 200 L 887 204 Q 889.2 209.6 883.5 208 L 876.5 204 L 874 214.5 L 869.5 220 L 864 216.5 Q 862.5 212.1 865.5 213 L 869 215 Q 871.7 211 872 203.5 L 863 199.5 L 863 197 L 868.5 197 L 872.5 199 L 873 187.5 L 871.5 188 L 864.5 190 L 862 189 Q 860 185.9 861 179 Z " /><path fill="rgb(244,244,244)" stroke="rgb(244,244,244)" stroke-width="1" opacity="0.7607843137254902" d="M 1081.5 179 Q 1085.7 177.7 1084 182.5 L 1085.5 182 Q 1089.7 180.7 1088 185.5 L 1083 191.5 L 1083 199.5 L 1094 204.5 L 1093 207 L 1083.5 205 L 1084 206.5 L 1084 220.5 L 1081.5 225 L 1079 223.5 L 1077 213.5 L 1079 212.5 L 1079.5 214 L 1080 205.5 L 1078 204.5 Q 1076.5 212.1 1071.5 216 Q 1067.8 217.3 1069 213.5 L 1074 206.5 L 1078 194.5 L 1074.5 194 L 1072.5 195 L 1071 192.5 L 1079 189 Q 1077.5 181.8 1081.5 179 Z " /><path fill="rgb(244,244,244)" stroke="rgb(244,244,244)" stroke-width="1" opacity="0.7607843137254902" d="M 350.5 180 Q 354.5 179.5 355 182.5 Q 354.5 189 351 192.5 L 353 195.5 L 343 202 L 344 206.5 Q 339.4 215.9 331.5 222 L 329 220.5 L 329 218.5 L 340 205.5 L 334 201.5 Q 333.5 194 330 189.5 L 330 184.5 L 332.5 183 Q 335 184.2 334 188 Q 336.7 189.1 336 186.5 L 340.5 183 L 350.5 180 Z M 348 185 Q 340 186 337 191 L 337 192 L 338 193 L 338 200 L 340 200 L 350 187 Q 351 184 348 185 Z " /><path fill="rgb(244,244,244)" stroke="rgb(244,244,244)" stroke-width="1" opacity="0.7607843137254902" d="M 706.5 180 L 710 181.5 L 706 188.5 L 707.5 188 L 710.5 187 L 712 191 Q 709.7 193.6 703.5 193 Q 700.5 192.5 701 188.5 L 706.5 180 Z " /><path fill="rgb(244,244,244)" stroke="rgb(244,244,244)" stroke-width="1" opacity="0.7607843137254902" d="M 1023 181 Q 1026.8 180 1028 182.5 L 1029.5 189 L 1035.5 185 Q 1038 186 1037 190.5 L 1031.5 200 Q 1028.5 200.9 1030 196.5 L 1032 193.5 L 1029.5 195 Q 1025 196 1024 193.5 Q 1026.8 191.8 1025 185.5 Q 1022.2 184.4 1023 181 Z " /><path fill="rgb(244,244,244)" stroke="rgb(244,244,244)" stroke-width="1" opacity="0.7607843137254902" d="M 1354 181 Q 1359.2 178.9 1358 183.5 L 1357 189 L 1362.5 185 L 1364 188.5 L 1357 194.5 Q 1355.5 201.5 1358.5 201 L 1370 208.5 Q 1371.3 212.3 1367.5 211 L 1357.5 205 L 1354 231 L 1350 229.5 L 1352 222.5 L 1353 206.5 L 1352 206.5 Q 1350.5 213.4 1345.5 217 L 1343 215.5 L 1352 197.5 L 1350.5 198 L 1342.5 202 L 1339 202 L 1340.5 198 L 1350.5 194 L 1353 191.5 Q 1352 184 1354 181 Z " /><path fill="rgb(244,244,244)" stroke="rgb(244,244,244)" stroke-width="1" opacity="0.7607843137254902" d="M 552.5 182 L 554 184.5 L 540.5 195 Q 537.5 197.8 532 197 L 533.5 193 L 539.5 191 L 552.5 182 Z " /><path fill="rgb(244,244,244)" stroke="rgb(244,244,244)" stroke-width="1" opacity="0.7607843137254902" d="M 748 182 Q 752.5 180.3 751 185.5 L 748 189.5 L 749 190.5 L 749 199.5 L 746 213 Q 741.5 214.8 743 209.5 L 745 202.5 L 745 196.5 L 742.5 198 L 739 196.5 L 746.5 184 Q 749.1 184.7 748 182 Z " /><path fill="rgb(244,244,244)" stroke="rgb(244,244,244)" stroke-width="1" opacity="0.7607843137254902" d="M 997.5 183 L 1002 185.5 Q 1001.3 193.8 995.5 197 L 993.5 198 L 992 196.5 L 991 188 L 997.5 183 Z " /><path fill="rgb(244,244,244)" stroke="rgb(244,244,244)" stroke-width="1" opacity="0.7607843137254902" d="M 828.5 184 Q 832.7 182.7 831 187.5 L 828 191.5 L 831 193.5 L 831.5 198 Q 832.2 194.3 837.5 195 L 843.5 204 L 847 202 Q 847.6 207.8 843 210.5 Q 844.1 218.1 840.5 221 Q 836.3 222.3 838 217.5 L 835.5 219 Q 832.2 217.9 833 220.5 L 829 222 L 829 207.5 L 826.5 197 L 820.5 204 L 818 202.5 L 828.5 184 Z M 835 200 L 833 206 L 834 207 L 837 205 L 838 202 L 835 200 Z M 839 208 L 836 210 Q 833 211 833 215 L 839 210 L 839 208 Z " /><path fill="rgb(244,244,244)" stroke="rgb(244,244,244)" stroke-width="1" opacity="0.7607843137254902" d="M 934.5 184 L 938 185.5 L 939 201 L 942.5 200 L 955.5 190 L 957 193.5 L 950 199 Q 951.1 201.7 948.5 201 L 941.5 206 L 938 206 L 937 208.5 L 941.5 214 Q 946.2 216.3 954.5 215 L 957 214 L 957 210 L 958.5 210 L 960 211.5 L 960 219 L 941.5 219 L 935 215.5 Q 931.7 211.8 933 203.5 L 934 202.5 L 934 189.5 L 933 185.5 L 934.5 184 Z " /><path fill="rgb(244,244,244)" stroke="rgb(244,244,244)" stroke-width="1" opacity="0.7607843137254902" d="M 1124.5 185 L 1127 186 L 1124 197.5 Q 1128 198.9 1127 204 Q 1123.6 204.8 1122.5 202 L 1117.5 208 L 1115 206.5 Q 1113.9 203.2 1116.5 204 Q 1119.5 203.5 1119 199.5 L 1118 196 Q 1122.1 197.7 1121 193.5 L 1122 191.5 L 1119.5 193 L 1117 191.5 L 1119.5 188 L 1124.5 185 Z " /><path fill="rgb(244,244,244)" stroke="rgb(244,244,244)" stroke-width="1" opacity="0.7607843137254902" d="M 1289.5 185 Q 1293.3 183.8 1292 187.5 L 1284 194 L 1282 213.5 L 1286 210.5 L 1288 206.5 L 1285 205 L 1286.5 201 L 1288.5 201 L 1295.5 194 L 1298 194 L 1293 203.5 L 1304.5 212 L 1321 219 Q 1323.2 224.6 1317.5 223 L 1290 208 L 1283.5 218 L 1279.5 220 Q 1276.3 218.3 1278 211.5 L 1279 210.5 Q 1277.8 201.6 1280 198 L 1276.5 199 L 1275 195.5 Q 1283.9 191.9 1289.5 185 Z " /><path fill="rgb(244,244,244)" stroke="rgb(244,244,244)" stroke-width="1" opacity="0.7607843137254902" d="M 1253.5 186 L 1257 187.5 Q 1252.2 194.4 1242 195 L 1243 190 Q 1250.5 191 1253.5 186 Z " /><path fill="rgb(244,244,244)" stroke="rgb(244,244,244)" stroke-width="1" opacity="0.7607843137254902" d="M 912 189 L 916 190.5 L 916 208.5 L 917 209.5 L 912.5 217 L 905.5 222 L 903 221 L 911 211.5 L 911 205.5 L 909.5 206 L 902.5 209 L 901 206.5 L 912 198.5 L 911 195.5 L 912 189 Z " /><path fill="rgb(244,244,244)" stroke="rgb(244,244,244)" stroke-width="1" opacity="0.7607843137254902" d="M 767 190 Q 772.2 187.9 771 192.5 L 763.5 204 L 760 202.5 Q 765.2 197.5 767 190 Z " /><path fill="rgb(244,244,244)" stroke="rgb(244,244,244)" stroke-width="1" opacity="0.7607843137254902" d="M 777 190 L 790.5 190 L 791 194 L 777 192 L 777 190 Z " /><path fill="rgb(244,244,244)" stroke="rgb(244,244,244)" stroke-width="1" opacity="0.7607843137254902" d="M 571.5 192 L 573 192 L 573 197 L 574.5 197 L 577 193 Q 582.2 190.9 581 195.5 L 575 201.5 L 575 203.5 L 576 204.5 L 576 216.5 L 577 219 Q 582.3 221.2 592 220 L 589 209 L 592 210.5 L 598 222.5 L 596.5 224 L 577.5 224 L 573 220.5 L 572 218.5 L 571.5 205 Q 569.6 215.1 564 221.5 Q 565.3 226.8 562.5 228 L 560 226.5 L 558 221.5 L 550 211 Q 556.4 210 558 215.5 L 560.5 219 L 563 217.5 L 567 207 L 562.5 208 L 561 204 L 569 201 L 570 193.5 L 571.5 192 Z " /><path fill="rgb(244,244,244)" stroke="rgb(244,244,244)" stroke-width="1" opacity="0.7607843137254902" d="M 543.5 194 L 544 197 L 549.5 196 Q 552.5 197.5 551 203.5 L 549 207.5 L 549 226.5 L 548 231 L 545.5 231 L 541 226.5 L 539.5 223 L 536 230 Q 531.5 231.8 533 226.5 L 538.5 216 Q 542.3 214.8 541 218.5 L 544.5 226 L 545 211 L 541 209.5 L 541 197.5 L 543.5 194 Z " /><path fill="rgb(244,244,244)" stroke="rgb(244,244,244)" stroke-width="1" opacity="0.7607843137254902" d="M 1390.5 196 Q 1395.9 194.1 1395 197.5 L 1391 200 L 1391.5 203 Q 1392.6 200.3 1396 201 L 1396 203.5 L 1391 208.5 L 1390 215 L 1417.5 210 L 1419 214 L 1393.5 218 L 1383.5 222 L 1379.5 222 L 1376 221 L 1376 217 L 1383.5 217 L 1387 211.5 L 1385.5 212 L 1381 213 L 1381 209 L 1382.5 209 L 1388 205.5 Q 1389.3 201.8 1385.5 203 Q 1383.5 205.8 1379 205 L 1380.5 201 L 1390.5 196 Z " /><path fill="rgb(244,244,244)" stroke="rgb(244,244,244)" stroke-width="1" opacity="0.7607843137254902" d="M 1026.5 198 Q 1029.9 197.1 1028 202.5 L 1026 209 L 1038.5 214 L 1053 224.5 L 1051.5 227 Q 1047 228 1046 225.5 L 1044.5 223 L 1024.5 212 L 1014.5 224 Q 1009.9 225.3 1012 219.5 L 1017 216.5 L 1023 205.5 L 1024 200.5 L 1026.5 198 Z " /><path fill="rgb(244,244,244)" stroke="rgb(244,244,244)" stroke-width="1" opacity="0.7607843137254902" d="M 1101.5 200 L 1106 201 Q 1107.8 207.1 1104.5 209 L 1100.5 210 L 1097 207.5 Q 1096 202 1099.5 201 L 1101.5 200 Z M 1103 204 L 1101 207 L 1103 206 L 1103 204 Z " /><path fill="rgb(244,244,244)" stroke="rgb(244,244,244)" stroke-width="1" opacity="0.7607843137254902" d="M 1249.5 200 Q 1253.7 198.7 1252 203.5 L 1251 206.5 L 1253.5 205 L 1258.5 204 Q 1260.8 204.8 1260 208.5 L 1255.5 218 L 1252.5 219 L 1248 217 L 1240 234 Q 1234 236.3 1236 229.5 L 1240 226.5 L 1244 218.5 Q 1244 212.5 1247 209.5 L 1247 204.5 L 1249.5 200 Z M 1254 210 L 1250 213 L 1251 215 L 1255 213 Q 1256 209 1254 210 Z " /><path fill="rgb(244,244,244)" stroke="rgb(244,244,244)" stroke-width="1" opacity="0.7607843137254902" d="M 992 202 L 995.5 204 L 999 203 L 1000 207.5 L 993.5 218 Q 988.9 219.3 991 213.5 L 992 212.5 L 992 202 Z " /><path fill="rgb(244,244,244)" stroke="rgb(244,244,244)" stroke-width="1" opacity="0.7607843137254902" d="M 356 209 L 361.5 211 L 371 220.5 Q 373.1 226.3 368.5 225 L 361.5 217 L 356 212.5 L 356 209 Z " /><path fill="rgb(244,244,244)" stroke="rgb(244,244,244)" stroke-width="1" opacity="0.7607843137254902" d="M 783.5 211 L 787 212 L 788.5 215 L 791 216.5 L 792.5 219 L 797 221 Q 797.8 224.8 794.5 226 L 788 220.5 Q 788.8 218.3 786.5 219 L 782 214.5 L 782 212.5 L 783.5 211 Z " /><path fill="rgb(244,244,244)" stroke="rgb(244,244,244)" stroke-width="1" opacity="0.7607843137254902" d="M 422.5 214 Q 427.5 213.5 428 217.5 Q 429.3 221.7 424.5 220 L 421 215.5 L 422.5 214 Z " /><path fill="rgb(244,244,244)" stroke="rgb(244,244,244)" stroke-width="1" opacity="0.7607843137254902" d="M 408.5 216 Q 412.7 214.7 411 219.5 L 406.5 226 L 404 224.5 Q 404.7 218.7 408.5 216 Z " /><path fill="rgb(244,244,244)" stroke="rgb(244,244,244)" stroke-width="1" opacity="0.7607843137254902" d="M 413 216 Q 418.5 214.8 420 218.5 L 421 221.5 L 418.5 224 L 415 220.5 L 413 216 Z " /><path fill="rgb(244,244,244)" stroke="rgb(244,244,244)" stroke-width="1" opacity="0.7607843137254902" d="M 765.5 216 L 771 218.5 L 772 220.5 L 768.5 225 L 764.5 226 L 761 223.5 L 760 217 L 765.5 216 Z M 765 220 L 765 222 L 767 221 L 765 220 Z " /><path fill="rgb(244,244,244)" stroke="rgb(244,244,244)" stroke-width="1" opacity="0.7607843137254902" d="M 751.5 218 L 755 218.5 L 744.5 232 L 742 230.5 L 742 228.5 L 749 219 L 751.5 218 Z " /></svg>