<svg width="669" height="313" version="1.1" xmlns="http://www.w3.org/2000/svg" desc="Created with imagetracer.js version 1.2.6" ><path fill="rgb(249,249,249)" stroke="rgb(249,249,249)" stroke-width="1" opacity="1" d="M 73 1 L 76 1.5 L 76 3.5 L 74 10.5 L 76.5 12 L 82.5 7 L 84.5 7 L 86 9.5 Q 81.6 16.1 71.5 17 Q 68.5 16.5 69 12.5 L 73 1 Z " /><path fill="rgb(249,249,249)" stroke="rgb(249,249,249)" stroke-width="1" opacity="1" d="M 504 1 L 506 1 Q 504.9 3.7 507.5 3 Q 510.5 3.5 510 7.5 L 509 11 L 514.5 10 L 516 12.5 Q 510.3 15.8 510 24.5 L 512.5 25 L 514.5 23 Q 518.5 22.5 519 25.5 L 511 31.5 L 512 38.5 L 513.5 40 L 519.5 37 L 521 38.5 L 517.5 42 L 511 46.5 Q 509 55 513.5 57 L 529.5 56 L 534.5 54 Q 539.5 56.5 534.5 59 L 518.5 60 L 508.5 63 Q 505 59 495.5 61 L 494.5 62 L 485.5 62 L 484.5 61 L 476.5 61 L 472.5 62 L 471 59.5 Q 477 57.1 478 49.5 L 475 43.5 L 476 40.5 L 474 36.5 Q 475.4 33.8 480 35 L 481 39.5 L 480 44.5 Q 482.6 45.9 482 50.5 L 480 55.5 L 482.5 58 L 496.5 58 L 497.5 57 L 505.5 57 L 508 54.5 Q 509 50 506.5 49 L 496.5 52 L 495 48 L 504.5 45 L 507 42.5 L 505.5 40 L 502 37.5 L 503 34 L 494 36 L 495.5 32 Q 500.3 31.8 502 28.5 L 503 25.5 L 502 22 L 499.5 21 L 494 22 Q 492.5 18.2 495.5 19 L 503 14.5 L 497 11.5 L 498.5 9 L 503 6.5 L 504 1 Z " /><path fill="rgb(249,249,249)" stroke="rgb(249,249,249)" stroke-width="1" opacity="1" d="M 11.5 2 L 15 3.5 Q 16.1 6.8 13.5 6 L 6 10.5 L 6 20 L 2.5 20 Q -0.5 18.5 1 12.5 L 2 10.5 L 1 6 Q 3.3 3.4 9.5 4 L 11.5 2 Z " /><path fill="rgb(249,249,249)" stroke="rgb(249,249,249)" stroke-width="1" opacity="1" d="M 591.5 5 L 595 10.5 L 590 17.5 L 592.5 19 L 600 16 L 598.5 20 L 585.5 26 L 576 27 Q 574.5 23.3 577.5 24 L 581.5 23 L 586 18.5 L 587 16.5 L 583 11.5 L 588 8.5 L 589.5 6 L 591.5 5 Z " /><path fill="rgb(249,249,249)" stroke="rgb(249,249,249)" stroke-width="1" opacity="1" d="M 335.5 6 L 344.5 7 L 346 8.5 L 347 15.5 L 346 16.5 L 346 25.5 L 348 29.5 L 342 34.5 Q 340.5 38.9 343.5 38 L 346.5 37 L 348 38.5 L 340 46.5 Q 338.5 50.9 341.5 50 L 346.5 53 L 356.5 56 L 363.5 56 L 366 58.5 Q 365 62 359.5 61 L 329.5 52 L 321.5 61 L 319 60.5 L 319 57.5 Q 325.6 52.8 327 44 L 330 45.5 L 332.5 49 L 336 46.5 L 337 39.5 L 334.5 38 Q 331.3 41 325 40 L 326.5 36 L 333 35 L 335 31 L 332 29.5 L 333 18.5 L 334 17.5 L 334 7.5 L 335.5 6 Z M 341 11 L 339 15 L 343 13 L 341 11 Z M 340 19 L 338 23 Q 340 26 342 22 Q 343 18 340 19 Z M 337 29 Q 335 33 339 32 L 339 30 L 337 29 Z " /><path fill="rgb(249,249,249)" stroke="rgb(249,249,249)" stroke-width="1" opacity="1" d="M 652.5 7 L 655 8.5 L 656 22 L 668.5 18 L 669 22 L 665.5 22 L 653 28 L 651 34.5 L 654.5 36 L 661.5 34 L 664 35 Q 665.8 37.4 665 43.5 L 664 46.5 L 664 48.5 Q 662.8 58.3 656.5 63 Q 649.7 64.8 648 61.5 Q 646.7 57.3 651.5 59 L 653.5 60 L 657 57.5 Q 654.5 56 658 54.5 L 661 40.5 Q 659.2 36.2 657.5 39 Q 649 40.5 645 46.5 Q 643.8 52.3 639.5 55 Q 635.8 56.3 637 52.5 Q 644 44.5 647 32.5 L 644.5 31 Q 640.2 34.2 632.5 34 L 630 30.5 Q 643.8 29.3 653 23.5 Q 653.8 19.3 651 18.5 L 652 15.5 Q 649.5 14 651 8.5 L 652.5 7 Z " /><path fill="rgb(249,249,249)" stroke="rgb(249,249,249)" stroke-width="1" opacity="1" d="M 39 8 Q 45.6 8.5 49 13.5 L 46.5 15 L 39 10.5 L 39 8 Z " /><path fill="rgb(249,249,249)" stroke="rgb(249,249,249)" stroke-width="1" opacity="1" d="M 222.5 12 Q 227.3 10.3 226 14.5 Q 219.1 17.1 219 26.5 L 220 30.5 L 222.5 33 Q 234 34.2 241 39 L 242 41.5 Q 241.3 43.8 237.5 43 L 233.5 40 L 221.5 37 L 219 39.5 L 219 50.5 Q 216.2 52.3 218 58.5 L 216.5 60 L 213 58.5 L 213 52.5 Q 215.8 50.8 215 45.5 L 215 43.5 L 216 33.5 L 213 32 L 206 44.5 L 206 47 Q 203.3 45.9 204 48.5 L 200.5 51 L 200 47.5 L 213 25.5 Q 212.3 23.3 208.5 24 Q 206.5 27 200.5 26 L 199 23.5 L 200.5 22 L 212.5 19 L 222.5 12 Z " /><path fill="rgb(249,249,249)" stroke="rgb(249,249,249)" stroke-width="1" opacity="1" d="M 169.5 14 L 177.5 14 L 178 16.5 L 175.5 18 L 171.5 17 L 169.5 14 Z " /><path fill="rgb(249,249,249)" stroke="rgb(249,249,249)" stroke-width="1" opacity="1" d="M 277.5 14 Q 283.8 12.8 285 16.5 L 280 26.5 L 282 27 L 279.5 32 L 274 35.5 Q 271.8 48.3 262.5 54 L 259 53.5 Q 265.6 48.1 269 39.5 L 263 32.5 L 260 18.5 L 262.5 17 L 264 20 L 266.5 20 L 269.5 17 L 277.5 14 Z M 276 19 L 267 23 L 268 31 L 272 32 L 279 22 Q 280 17 276 19 Z " /><path fill="rgb(249,249,249)" stroke="rgb(249,249,249)" stroke-width="1" opacity="1" d="M 425.5 14 Q 429.3 12.8 428 16.5 L 419 23.5 L 417 30.5 L 420.5 32 L 427 26.5 L 426 22.5 L 429.5 20 L 439 30.5 L 440 34 Q 442.7 32.9 442 35.5 Q 443.5 38.5 445 35.5 L 446 32.5 L 445 29.5 L 448.5 28 Q 451.5 29.5 450 35.5 L 445.5 43 L 443.5 43 L 436 35.5 L 430.5 28 L 418 38.5 L 417 44.5 L 418 44.5 L 420 41.5 L 421 38 L 423.5 37 L 424 42.5 Q 421.4 49.9 415.5 54 L 413 51.5 L 413 29.5 L 414 27.5 L 413 22.5 L 425.5 14 Z " /><path fill="rgb(249,249,249)" stroke="rgb(249,249,249)" stroke-width="1" opacity="1" d="M 561.5 16 L 566 19.5 L 564.5 22 Q 559.5 22.5 559 18.5 Q 558.3 16.3 560.5 17 L 561.5 16 Z " /><path fill="rgb(249,249,249)" stroke="rgb(249,249,249)" stroke-width="1" opacity="1" d="M 83.5 19 Q 87.3 17.8 86 21.5 L 79 28.5 L 78 32.5 L 78 34.5 L 77 45 L 81 43.5 L 82 40.5 L 81 35.5 L 88.5 29 L 90.5 29 Q 93.8 30.8 90 32.5 L 88 37.5 L 98.5 45 L 110.5 51 L 112 50.5 Q 111.3 52.8 113.5 52 L 115 56 L 111.5 56 L 97.5 48 L 96 48.5 Q 96.8 46.3 94.5 47 L 87.5 42 L 85.5 42 L 75.5 53 L 72 50.5 L 73 49.5 L 74 33.5 L 70 29.5 L 71 28.5 Q 70.2 25.9 73.5 27 L 81 21.5 Q 80.3 19.3 82.5 20 L 83.5 19 Z " /><path fill="rgb(249,249,249)" stroke="rgb(249,249,249)" stroke-width="1" opacity="1" d="M 144.5 19 Q 147.8 17.9 147 20.5 L 150 26.5 L 146 32.5 L 146 36.5 L 146 38.5 Q 143.7 41.7 145 48.5 L 142.5 51 L 140 47.5 L 142 42.5 L 139 41 L 137.5 44 L 134 42.5 Q 138.2 39.7 139 33.5 Q 137 35.2 135 31.5 L 144.5 19 Z M 144 24 L 139 33 L 141 33 L 147 25 L 144 24 Z " /><path fill="rgb(249,249,249)" stroke="rgb(249,249,249)" stroke-width="1" opacity="1" d="M 48.5 20 L 50 22.5 L 41.5 28 L 38 28 L 37 25.5 L 48.5 20 Z " /><path fill="rgb(249,249,249)" stroke="rgb(249,249,249)" stroke-width="1" opacity="1" d="M 478 20 Q 482.6 18.8 484 21.5 L 482.5 25 L 478 22.5 L 478 20 Z " /><path fill="rgb(249,249,249)" stroke="rgb(249,249,249)" stroke-width="1" opacity="1" d="M 394.5 21 Q 399.5 20.5 400 24.5 L 397 30.5 L 396 36.5 L 400 39 L 397 44.5 Q 397.8 53.1 396 58 Q 392.2 59 391 56.5 L 390 53.5 L 392 50.5 L 390 49.5 L 388.5 52 Q 384.8 52.8 384 50.5 Q 382.9 47.2 385.5 48 L 393 41.5 Q 394.8 34.7 391.5 33 L 386 34 L 387.5 30 L 392 27.5 L 394.5 21 Z " /><path fill="rgb(249,249,249)" stroke="rgb(249,249,249)" stroke-width="1" opacity="1" d="M 178.5 23 L 181 24 L 182 26.5 L 180 29.5 Q 181.3 34.3 179 35.5 L 179 51.5 L 178 54 L 173.5 54 L 167 49.5 L 166 47.5 L 169.5 46 L 173.5 48 Q 177.6 43.1 176 32.5 L 174.5 31 Q 168.5 32.5 167 29.5 L 168.5 27 L 172.5 27 L 178.5 23 Z " /><path fill="rgb(249,249,249)" stroke="rgb(249,249,249)" stroke-width="1" opacity="1" d="M 588.5 27 L 591.5 28 L 595 29.5 L 591 41 Q 595.5 41.8 597.5 39 Q 602.3 41.3 598 43.5 Q 597.5 47.5 600.5 48 L 609 53.5 Q 607.5 57.9 610.5 57 L 613.5 58 Q 614.8 55.8 616 58.5 L 614.5 62 L 601.5 63 L 600.5 64 L 588.5 64 L 587.5 63 L 564.5 61 L 562.5 61 L 554.5 60 L 553 58.5 L 560 52.5 Q 562.6 51.1 562 46.5 L 558 41.5 L 561 37.5 L 558 32 L 563.5 31 Q 566.5 31.5 566 35.5 L 563 40.5 L 566 44.5 L 566 49.5 L 562 54.5 L 563 57 L 573.5 58 L 575.5 58 L 586.5 59 L 587.5 60 L 602.5 60 L 606 59 L 604.5 55 L 597.5 50 L 593.5 50 L 588.5 56 L 586 54.5 Q 587.3 48.4 584.5 49 Q 582.7 46.3 581 50.5 L 579.5 53 L 576.5 55 L 575 52.5 L 583 43.5 L 584 30.5 L 586.5 28 L 588.5 27 Z " /><path fill="rgb(249,249,249)" stroke="rgb(249,249,249)" stroke-width="1" opacity="1" d="M 43 34 L 46 34 L 46 38 L 47.5 38 L 51.5 38 L 54 39.5 Q 54.9 47.9 50.5 51 L 46.5 52 L 43.5 51 L 37 63.5 L 33.5 67 L 31 66 L 38 53.5 L 43 34 Z M 47 45 Q 47 49 49 46 L 47 45 Z " /><path fill="rgb(249,249,249)" stroke="rgb(249,249,249)" stroke-width="1" opacity="1" d="M 286.5 43 L 289.5 44 L 301 54.5 L 299.5 58 L 293 52.5 L 291.5 50 L 286 45.5 L 286.5 43 Z " /><path fill="rgb(249,249,249)" stroke="rgb(249,249,249)" stroke-width="1" opacity="1" d="M 433.5 47 Q 437.3 45.8 436 49.5 L 426.5 58 L 424 57 L 429.5 50 L 433.5 47 Z " /><path fill="rgb(249,249,249)" stroke="rgb(249,249,249)" stroke-width="1" opacity="1" d="M 504.5 121 Q 513 119 515 123.5 L 515 128.5 L 509.5 137 L 502.5 138 Q 499.5 137.5 500 133.5 L 501 130.5 L 498.5 129 L 496 132.5 L 496 140.5 L 494.5 142 Q 492.3 142.8 493 140.5 L 492 138.5 L 493 134.5 L 490.5 133 L 486.5 142 L 484 140.5 L 483 130 L 485.5 129 L 488.5 130 L 504.5 121 Z M 509 124 L 507 125 L 504 129 Q 502 133 506 132 L 507 133 Q 506 130 509 131 L 511 128 L 509 124 Z " /><path fill="rgb(249,249,249)" stroke="rgb(249,249,249)" stroke-width="1" opacity="1" d="M 568 124 L 571 125.5 L 572.5 129 L 577.5 127 L 580 128 L 578.5 131 L 571 134.5 Q 569.8 138.3 573.5 137 L 578.5 134 L 580.5 134 L 584 136.5 Q 584.6 141.6 581.5 143 L 574 147.5 Q 573.3 149.8 575.5 149 L 576 151.5 L 572.5 155 L 568.5 156 L 564.5 152 L 562.5 152 L 561 155.5 L 562 158 Q 567.3 157.4 570 161.5 L 567 169.5 L 571.5 173 L 592.5 178 L 595 180.5 Q 595.5 183.5 588.5 182 L 573.5 178 L 567.5 175 L 562.5 175 L 555.5 181 L 552 181 L 551 178.5 L 558 174.5 Q 559.8 169.3 554.5 171 L 549.5 178 L 546 176.5 L 554 165.5 L 558 152.5 L 558 143.5 L 560.5 141 L 567 138.5 L 568 128.5 L 567 126.5 L 568 124 Z M 576 140 L 574 143 L 577 143 L 578 141 L 576 140 Z M 565 144 L 563 146 Q 562 149 566 147 Q 567 143 565 144 Z " /><path fill="rgb(249,249,249)" stroke="rgb(249,249,249)" stroke-width="1" opacity="1" d="M 38.5 125 Q 43.8 123.5 42 128 L 37 130.5 Q 36.5 134.5 39.5 135 L 45.5 134 Q 49.3 135.3 48 141.5 L 40.5 152 L 33 157.5 L 32 163.5 L 34.5 166 L 49.5 171 L 53.5 171 Q 57.8 174.7 65.5 175 L 69 177.5 L 67.5 180 L 48.5 175 L 33.5 169 L 29.5 169 L 22.5 179 L 20.5 180 L 17 177.5 Q 15.7 173.3 20.5 175 Q 23.8 173.3 24 168.5 L 23 166 L 19 163.5 L 20.5 161 L 26.5 162 L 28 158 Q 24.2 159 23 156.5 L 21 141 Q 25.3 140 26.5 143 L 33 136.5 L 33 134.5 Q 31.2 130.2 29.5 133 L 23.5 134 Q 20 132 24.5 130 L 38.5 125 Z M 43 137 L 40 138 L 39 141 L 41 144 L 44 142 Q 45 138 43 137 Z M 38 144 L 38 146 L 40 145 L 38 144 Z M 29 150 Q 27 153 30 152 L 29 150 Z " /><path fill="rgb(249,249,249)" stroke="rgb(249,249,249)" stroke-width="1" opacity="1" d="M 102.5 126 L 107.5 127 L 109.5 127 Q 113.5 126.5 114 129.5 L 113 145.5 L 116 147.5 L 112.5 152 L 110 153.5 L 109 158 L 112.5 157 L 114 159.5 L 107 166.5 L 107 168.5 L 111.5 172 L 124.5 176 L 131.5 176 L 133 177.5 L 131.5 181 L 117.5 179 L 114.5 177 L 96.5 172 L 88.5 181 L 86 179.5 L 86 177.5 L 92 170.5 L 94 164 L 96.5 163 Q 96.3 167.7 99.5 169 L 103 168 L 105 159.5 L 101.5 158 Q 98.3 161 92 160 L 93.5 156 L 106 152 L 105.5 149 L 101.5 150 L 100 148.5 L 100 140.5 L 101 139.5 L 101 127.5 L 102.5 126 Z M 108 131 L 106 134 Q 108 137 109 134 Q 110 130 108 131 Z M 108 139 L 106 142 L 106 143 L 109 142 Q 110 138 108 139 Z " /><path fill="rgb(249,249,249)" stroke="rgb(249,249,249)" stroke-width="1" opacity="1" d="M 173.5 126 L 178.5 128 Q 180 124.5 181.5 127 Q 183.8 126.3 183 128.5 L 176 135.5 L 176 140.5 L 179.5 142 L 186.5 137 L 188 139.5 L 187 142 L 182 144 L 178 150.5 L 178 154 L 182 152.5 L 184.5 149 L 187 150.5 L 186 155 Q 183.3 153.9 184 156.5 Q 178.2 160.1 178 168 L 197.5 173 L 220.5 174 L 222 175.5 L 221.5 178 L 208.5 178 L 207.5 177 L 191.5 176 L 173.5 171 L 163.5 170 L 153.5 182 Q 149.8 183.3 151 179.5 L 155 176.5 L 163.5 162 L 166 163.5 L 167.5 166 L 170.5 167 L 174 162.5 Q 172.7 155.7 175 152.5 L 172.5 151 L 160.5 157 L 159 154.5 L 171 146.5 L 173 138.5 L 169.5 137 L 165.5 138 L 164 135.5 L 169.5 132 Q 170.8 134.3 172 131.5 L 173 129.5 L 172 127.5 L 173.5 126 Z " /><path fill="rgb(249,249,249)" stroke="rgb(249,249,249)" stroke-width="1" opacity="1" d="M 271.5 127 Q 275.8 128.3 275 133 Q 271.2 134 270 131.5 L 269 128 L 271.5 127 Z " /><path fill="rgb(249,249,249)" stroke="rgb(249,249,249)" stroke-width="1" opacity="1" d="M 261.5 133 L 264.5 140 L 274 138 L 272 144.5 Q 275.9 146.1 275 152.5 L 273 157.5 Q 274.8 160.8 281.5 159 L 285.5 158 L 287 160.5 L 285.5 162 Q 274.5 162 267.5 166 L 265 165 L 268 158.5 Q 264.8 157 266 152 Q 262 150.6 264 157.5 L 262 160.5 Q 263.1 168.1 259.5 171 L 257 169.5 L 260 157.5 L 260 147.5 L 257 146 L 254.5 150 L 252 148.5 L 258 136.5 L 261.5 133 Z M 266 144 Q 261 146 265 148 L 268 147 Q 269 143 266 144 Z " /><path fill="rgb(249,249,249)" stroke="rgb(249,249,249)" stroke-width="1" opacity="1" d="M 325.5 134 L 332.5 138 L 333.5 137 L 342.5 137 L 349 142.5 L 350 144.5 L 350 176.5 L 346.5 178 Q 341.1 173.6 341 165 L 344.5 166 Q 347 165 346 160.5 L 332.5 146 L 329 147 L 324.5 155 Q 320.8 156.3 322 152.5 L 324 147 L 321.5 147 L 317 150.5 L 317 163.5 L 316 164.5 L 318 169.5 L 317 174 L 313 173.5 L 313 148.5 L 312 147.5 L 312 139.5 L 314.5 138 L 317.5 145 L 325 140.5 L 324 135.5 L 325.5 134 Z M 338 140 L 335 143 L 344 152 L 346 151 L 344 144 L 338 140 Z " /><path fill="rgb(249,249,249)" stroke="rgb(249,249,249)" stroke-width="1" opacity="1" d="M 464.5 135 Q 469.6 134.4 471 137.5 Q 471.8 139.8 469.5 139 L 467.5 140 L 463 139 L 464.5 135 Z " /><path fill="rgb(249,249,249)" stroke="rgb(249,249,249)" stroke-width="1" opacity="1" d="M 234.5 139 Q 238.5 138.5 239 141.5 L 240 143.5 L 237.5 144 L 233 140.5 L 234.5 139 Z " /><path fill="rgb(249,249,249)" stroke="rgb(249,249,249)" stroke-width="1" opacity="1" d="M 429 139 L 431.5 139 L 437 144.5 L 441 150.5 L 440 153 L 435 152 L 428 141.5 L 429 139 Z " /><path fill="rgb(249,249,249)" stroke="rgb(249,249,249)" stroke-width="1" opacity="1" d="M 500.5 143 L 505.5 147 L 509.5 145 L 511 147.5 L 503 154.5 L 503 181.5 L 500.5 182 Q 498 181 499 176.5 L 500 173.5 L 497.5 168 Q 495.3 167.3 496 169.5 L 490.5 176 Q 485.3 173.3 491 170.5 L 495.5 163 L 498 161.5 L 499 159.5 L 495.5 158 L 486.5 163 L 484 162 Q 482.5 158.3 485.5 159 Q 494 156.5 499 150.5 Q 497.5 144.5 500.5 143 Z " /><path fill="rgb(249,249,249)" stroke="rgb(249,249,249)" stroke-width="1" opacity="1" d="M 408.5 147 L 411 148.5 Q 412.3 152.3 408.5 151 L 407 148.5 L 408.5 147 Z " /><path fill="rgb(249,249,249)" stroke="rgb(249,249,249)" stroke-width="1" opacity="1" d="M 380.5 149 L 383 150.5 L 377 161.5 L 377 166.5 L 374.5 169 Q 371.3 168.3 372 163.5 L 380.5 149 Z " /><path fill="rgb(249,249,249)" stroke="rgb(249,249,249)" stroke-width="1" opacity="1" d="M 467.5 150 L 470 151 L 467.5 155 L 462.5 156 L 461 154.5 L 464.5 151 L 467.5 150 Z " /><path fill="rgb(249,249,249)" stroke="rgb(249,249,249)" stroke-width="1" opacity="1" d="M 395.5 152 Q 398.8 150.9 398 153.5 Q 401.1 158.9 409.5 159 L 417.5 153 L 420 153 Q 421 158.6 416.5 160 Q 411.8 163.8 401.5 162 L 394 155.5 L 395.5 152 Z " /><path fill="rgb(249,249,249)" stroke="rgb(249,249,249)" stroke-width="1" opacity="1" d="M 233.5 154 Q 238.3 153.3 239 156.5 L 237 161.5 L 240 165.5 L 240 169.5 Q 236.5 171 239 172.5 L 240.5 175 L 252.5 176 L 254.5 176 L 257.5 177 L 278.5 177 L 292.5 173 L 295 174.5 L 291.5 178 L 284.5 179 L 281.5 181 L 277.5 180 L 276.5 181 L 261.5 181 L 260.5 180 L 251.5 180 L 241.5 178 L 230.5 178 Q 229.3 180.3 228 177.5 Q 226.9 174.2 229.5 175 L 235 170.5 L 236 168.5 L 231 164.5 L 233 157.5 L 232 155.5 L 233.5 154 Z " /><path fill="rgb(249,249,249)" stroke="rgb(249,249,249)" stroke-width="1" opacity="1" d="M 577.5 157 Q 583 156 584 159.5 L 586.5 163 Q 591 163.5 591.5 160 L 594 162.5 L 589.5 167 L 584.5 169 L 579.5 162 Q 577.3 161.3 578 163.5 L 575.5 168 Q 571.8 169.3 573 165.5 L 574 164.5 L 574 158 L 577.5 157 Z " /><path fill="rgb(249,249,249)" stroke="rgb(249,249,249)" stroke-width="1" opacity="1" d="M 510.5 161 L 524.5 166 L 529 169.5 L 527.5 172 Q 516.7 169.3 509 163.5 L 510.5 161 Z " /><path fill="rgb(249,249,249)" stroke="rgb(249,249,249)" stroke-width="1" opacity="1" d="M 471.5 162 L 472 165.5 Q 470.4 172.4 464.5 175 Q 460.8 176.3 462 172.5 L 471.5 162 Z " /><path fill="rgb(249,249,249)" stroke="rgb(249,249,249)" stroke-width="1" opacity="1" d="M 37.5 237 L 44.5 237 L 48.5 241 L 51.5 241 L 53.5 241 Q 56.1 240.2 55 243.5 L 46 249.5 L 47 252.5 L 43.5 256 L 27.5 263 L 26 260.5 L 40 252.5 L 38.5 250 Q 32.1 253.6 22.5 254 L 21 251.5 L 24.5 249 L 28.5 249 L 43 245 L 41.5 241 Q 35.2 240.2 32.5 243 L 30 242 Q 28.9 239.3 31.5 240 L 37.5 237 Z " /><path fill="rgb(249,249,249)" stroke="rgb(249,249,249)" stroke-width="1" opacity="1" d="M 346 238 L 352 240.5 L 353 242.5 L 350.5 244 L 346 240.5 L 346 238 Z " /><path fill="rgb(249,249,249)" stroke="rgb(249,249,249)" stroke-width="1" opacity="1" d="M 120.5 242 L 122.5 242 L 128 247.5 Q 129.1 250.8 126.5 250 L 120 245.5 L 119 243.5 L 120.5 242 Z " /><path fill="rgb(249,249,249)" stroke="rgb(249,249,249)" stroke-width="1" opacity="1" d="M 175.5 243 Q 183.3 241.2 185 245.5 L 185 250.5 L 181 258.5 L 181 262 Q 186.4 261.7 189.5 258 L 191.5 258 Q 195.3 256.8 194 260.5 L 171 270.5 Q 173.7 273.8 173 280.5 L 171 289.5 L 171 298.5 L 171 300.5 L 169.5 304 Q 165.1 305.5 166 302.5 L 166 300.5 L 167 295.5 L 164.5 294 L 159.5 299 L 156 299 Q 155.3 295.2 158.5 294 Q 160.8 294.8 160 292.5 L 161 290.5 L 160 289.5 L 160 279.5 L 161 277.5 Q 160.3 275.3 156.5 276 L 152 277 L 153.5 273 L 161.5 269 Q 163 271.5 164.5 268 L 168 266.5 L 167.5 265 L 166 265.5 L 162 257.5 L 160 247 L 166.5 248 L 172.5 244 Q 174 246.5 175.5 243 Z M 178 247 L 174 248 L 174 250 L 172 249 L 166 256 L 167 258 Q 169 261 170 258 L 169 255 L 170 253 Q 172 254 174 251 L 179 252 L 180 249 L 178 247 Z M 173 261 L 172 262 Q 169 261 170 264 L 168 265 L 171 266 L 175 263 L 173 261 Z " /><path fill="rgb(249,249,249)" stroke="rgb(249,249,249)" stroke-width="1" opacity="1" d="M 498 244 L 504.5 245 Q 506.2 242.3 512.5 244 Q 516 245 515 250.5 L 513 259.5 L 507 268.5 L 507 271 L 521.5 265 L 527 269.5 L 527 276.5 L 522 303 L 517.5 304 L 515 300.5 L 519 297.5 L 520 293.5 L 520 291.5 L 523 271.5 L 519.5 269 L 499.5 280 Q 497.3 279.3 498 275.5 L 502 269.5 L 498 264.5 L 498 256.5 L 499 253.5 L 497 246.5 L 498 244 Z M 509 247 L 506 248 L 503 252 Q 502 255 508 253 L 511 250 L 509 247 Z M 506 257 L 503 260 L 505 262 L 508 260 Q 510 256 506 257 Z " /><path fill="rgb(249,249,249)" stroke="rgb(249,249,249)" stroke-width="1" opacity="1" d="M 320.5 245 L 324 246 Q 323 250.7 326.5 252 Q 331.1 250.7 329 256.5 L 328 259.5 L 330 264.5 L 324 268.5 L 326.5 273 L 336 280.5 L 332.5 282 L 327.5 278 L 325.5 278 L 324 279.5 L 323 297.5 L 320.5 300 L 318 298.5 L 318 289.5 L 317 288.5 Q 320.7 286.3 320 279.5 L 317 278 L 314 285 Q 309.9 286.7 311 282.5 L 317 272.5 Q 315.6 269.8 311 271 L 312 263.5 L 313.5 262 Q 318.8 263.3 320 260.5 L 320.5 245 Z " /><path fill="rgb(249,249,249)" stroke="rgb(249,249,249)" stroke-width="1" opacity="1" d="M 263.5 248 Q 267.7 246.7 266 251.5 L 270 256.5 Q 263.8 259 266 269 Q 269.8 270.5 269 267.5 Q 269.5 264.5 273.5 265 Q 276.8 266.8 275 273.5 L 272.5 275 L 271 272 L 267 274.5 Q 263.7 278.2 265 286.5 L 271.5 291 L 285.5 292 L 290 288.5 Q 289.2 285.5 293 287 Q 294.3 293.4 289.5 295 L 269.5 295 L 262 290.5 L 261 283.5 L 256 278.5 L 256 271.5 L 258.5 268 L 262 265.5 Q 263.8 259.8 257.5 262 L 256 259.5 L 263 255.5 L 262 249.5 L 263.5 248 Z " /><path fill="rgb(249,249,249)" stroke="rgb(249,249,249)" stroke-width="1" opacity="1" d="M 356.5 248 Q 359.1 247.2 358 250.5 Q 351.8 253.2 350 260.5 L 353.5 266 L 356 264.5 L 355 261.5 L 359.5 254 Q 363.3 252.8 362 256.5 L 361 261 Q 366.2 258.9 365 263.5 Q 363.4 266.4 358 265.5 L 359.5 269 L 361.5 269 L 365.5 268 L 367 272 Q 360.5 272.9 357 277.5 L 357 309.5 L 356 313 L 353 313 L 353 305.5 L 354 304.5 L 354 292.5 L 353 291.5 L 353 279 L 343 280 L 344.5 276 L 349.5 275 L 353 271.5 Q 355.7 263.7 348.5 266 L 344.5 269 L 343 266.5 L 345 262.5 L 341 261 L 341 257 L 342.5 257 Q 351.2 254.2 356.5 248 Z " /><path fill="rgb(249,249,249)" stroke="rgb(249,249,249)" stroke-width="1" opacity="1" d="M 578.5 248 L 581 249.5 Q 579.1 254.9 582.5 254 L 586.5 251 L 590 252 L 586 271.5 L 582.5 277 L 579.5 278 L 578 275.5 Q 581.7 274.3 581 270 L 575.5 270 L 575 268.5 L 574 265.5 L 576 259.5 L 576 257.5 Q 574.3 249.8 578.5 248 Z " /><path fill="rgb(249,249,249)" stroke="rgb(249,249,249)" stroke-width="1" opacity="1" d="M 553.5 250 L 560 254.5 Q 560.8 256.8 558.5 256 L 555.5 257 L 550 253.5 Q 548.8 249.8 552.5 251 L 553.5 250 Z " /><path fill="rgb(249,249,249)" stroke="rgb(249,249,249)" stroke-width="1" opacity="1" d="M 234.5 253 L 237 254.5 L 234 260.5 L 238 263 L 239 266.5 L 238 269.5 Q 241.8 270.3 241 275.5 Q 240.3 277.8 236.5 277 L 232 276 L 231 273.5 L 234 269.5 L 228 264.5 L 234.5 253 Z " /><path fill="rgb(249,249,249)" stroke="rgb(249,249,249)" stroke-width="1" opacity="1" d="M 429.5 253 L 432 254.5 L 433.5 258 L 441.5 256 L 444 258.5 L 444 272.5 L 445.5 274 L 453 277 L 454 279.5 Q 453.3 281.8 449.5 281 L 445.5 278 L 442 280.5 Q 442.2 289.7 436.5 293 Q 432.5 293.5 432 290.5 Q 430.8 286.8 434.5 288 L 437 285.5 L 439 278.5 L 438 276 L 431 274 L 432.5 270 L 438.5 271 Q 441.5 269.5 440 263.5 Q 438.2 259.3 436.5 262 L 430.5 263 Q 426.5 261.5 428 254.5 L 429.5 253 Z " /><path fill="rgb(249,249,249)" stroke="rgb(249,249,249)" stroke-width="1" opacity="1" d="M 472.5 255 L 478 256 L 476.5 260 L 471 256.5 L 472.5 255 Z " /><path fill="rgb(249,249,249)" stroke="rgb(249,249,249)" stroke-width="1" opacity="1" d="M 564.5 256 L 566 258.5 L 559 264.5 L 558 268.5 L 559.5 271 L 563.5 267 L 565 268.5 Q 563.4 275.4 557.5 278 L 554 276.5 Q 555.8 269.8 552.5 268 L 545.5 270 L 544 266 L 551.5 264 L 564.5 256 Z " /><path fill="rgb(249,249,249)" stroke="rgb(249,249,249)" stroke-width="1" opacity="1" d="M 112.5 258 L 120 259 L 117 263.5 L 117 268 L 119.5 269 L 120 267 L 125 266 L 122 273.5 L 122 279.5 L 125 285 L 128.5 286 Q 129.8 283.8 131 286.5 Q 132.1 292.6 129.5 295 L 126 294 L 121 285 Q 117.3 283.5 118 286.5 L 112.5 293 L 110.5 294 Q 108.3 293.3 109 289.5 Q 115.5 286 116 276.5 L 113 268 L 109.5 268 L 102 273 L 101.5 275 L 98 272.5 L 99.5 270 L 103 269 Q 101.8 266 105.5 267 L 110 263.5 Q 109.3 258.8 112.5 258 Z " /><path fill="rgb(249,249,249)" stroke="rgb(249,249,249)" stroke-width="1" opacity="1" d="M 394.5 258 Q 399.3 256.3 398 260.5 L 396 264.5 L 399.5 270 L 404.5 269 L 410.5 276 Q 412.8 275.3 412 277.5 L 412 279.5 L 410 284.5 L 410 289.5 L 407.5 293 L 401.5 292 L 397.5 295 L 396 293.5 L 395 274.5 L 392.5 272 L 390 273.5 L 388.5 276 L 386 274.5 L 394.5 258 Z M 403 274 L 401 276 L 403 279 L 405 276 L 403 274 Z M 404 283 Q 404 286 401 285 L 401 287 L 404 286 L 404 283 Z " /><path fill="rgb(249,249,249)" stroke="rgb(249,249,249)" stroke-width="1" opacity="1" d="M 49.5 261 Q 53.3 260.3 54 262.5 L 54 267.5 L 48.5 273 L 45.5 274 L 43 271.5 L 42 264.5 Q 43.8 260.2 45.5 263 L 49.5 261 Z " /><path fill="rgb(249,249,249)" stroke="rgb(249,249,249)" stroke-width="1" opacity="1" d="M 87.5 263 L 94 265.5 Q 86.6 270.4 86 281 L 88.5 282 L 91 281 L 86 288.5 L 85 299.5 L 83 303 L 78 299.5 L 76 295.5 Q 83.1 290.6 83 278.5 L 80.5 277 L 78.5 278 L 77 274 Q 81.7 273.6 84 269.5 L 85 264 L 87.5 263 Z " /><path fill="rgb(249,249,249)" stroke="rgb(249,249,249)" stroke-width="1" opacity="1" d="M 29.5 266 L 32 267.5 L 30 273 L 33 271.5 Q 32.3 269.3 34.5 270 L 36 272.5 L 28 282 L 24.5 283 L 22 282 L 23 275 L 18 274.5 L 20.5 271 L 29.5 266 Z " /><path fill="rgb(249,249,249)" stroke="rgb(249,249,249)" stroke-width="1" opacity="1" d="M 192.5 269 L 196 270.5 L 196 274.5 L 193 283.5 L 209 292.5 L 206.5 296 L 192.5 288 L 188.5 288 L 182.5 292 Q 177.5 289.5 182.5 287 L 185 285.5 L 184 280 Q 188.6 281.3 190 278.5 Q 191.3 274.8 187.5 276 L 185.5 277 L 184 274.5 L 192.5 269 Z " /><path fill="rgb(249,249,249)" stroke="rgb(249,249,249)" stroke-width="1" opacity="1" d="M 474.5 270 Q 479.3 268.3 478 272.5 Q 475.3 275.7 470 275 L 471.5 271 L 474.5 270 Z " /><path fill="rgb(249,249,249)" stroke="rgb(249,249,249)" stroke-width="1" opacity="1" d="M 570.5 277 L 574 278.5 L 572 284 L 575 285.5 L 571 291.5 Q 572 295 577.5 294 L 594 291 L 595 293.5 L 592.5 296 L 573.5 298 L 569.5 300 L 554.5 301 L 553 297.5 L 554.5 296 L 564.5 296 L 567 293.5 L 565.5 291 L 563.5 292 L 561 290.5 L 566 286.5 Q 567.3 282.8 563.5 284 L 562 280 L 570.5 277 Z " /><path fill="rgb(249,249,249)" stroke="rgb(249,249,249)" stroke-width="1" opacity="1" d="M 51.5 278 Q 55.3 276.8 54 280.5 L 45 287.5 L 45 292.5 L 48 298.5 Q 44.1 300.1 45 306.5 L 42.5 309 Q 35.2 311.2 37 306 L 41 303.5 L 40 301 L 34 300 L 35.5 296 L 39.5 297 L 42 293.5 L 41 291 L 38.5 290 Q 30.7 296.7 17.5 298 L 16 295 L 29.5 291 L 40 284.5 L 41 280 L 46.5 281 L 51.5 278 Z " /><path fill="rgb(249,249,249)" stroke="rgb(249,249,249)" stroke-width="1" opacity="1" d="M 507.5 280 L 514 282 Q 515.8 287.3 508.5 285 Q 508 288.5 503.5 288 L 501.5 287 L 499 290.5 Q 500.7 294.7 502.5 292 L 510 291 Q 511.5 294.8 508.5 294 Q 505.6 298.1 497.5 297 L 495 296 L 496 285.5 L 497.5 284 L 502.5 286 L 507.5 280 Z " /><path fill="rgb(249,249,249)" stroke="rgb(249,249,249)" stroke-width="1" opacity="1" d="M 478.5 281 Q 481.8 279.9 481 282.5 Q 478.1 290.6 471.5 295 L 469 293.5 L 478.5 281 Z " /><path fill="rgb(249,249,249)" stroke="rgb(249,249,249)" stroke-width="1" opacity="1" d="M 241.5 284 L 244.5 286 L 244 287.5 L 244 294 L 241 294 L 240 285.5 L 241.5 284 Z " /><path fill="rgb(249,249,249)" stroke="rgb(249,249,249)" stroke-width="1" opacity="1" d="M 233 285 Q 237.9 283.2 236 289.5 L 237 293.5 L 234 295 Q 232 291.9 233 285 Z " /><path fill="rgb(249,249,249)" stroke="rgb(249,249,249)" stroke-width="1" opacity="1" d="M 226.5 287 Q 229.8 285.9 229 288.5 L 231 296.5 L 228.5 298 L 225 288.5 L 226.5 287 Z " /><path fill="rgb(249,249,249)" stroke="rgb(249,249,249)" stroke-width="1" opacity="1" d="M 618.5 287 L 620 288.5 Q 619 295.5 622 298.5 Q 619.7 302.7 612.5 302 L 611 299.5 L 617 295.5 Q 615.3 288.8 618.5 287 Z " /><path fill="rgb(255,255,255)" stroke="rgb(255,255,255)" stroke-width="1" opacity="1" d="M 0 0 L 668.5 0 L 669 0.5 L 669 17.5 L 667.5 19 L 656 22 Q 658 11.7 653.5 7 L 651 8.5 L 652 17.5 Q 649.5 19 653 20.5 Q 653.8 24.3 651.5 25 L 639.5 29 L 630 30.5 L 632.5 34 L 636.5 34 L 645.5 31 L 647 33.5 L 643 43.5 L 637 52.5 L 637 55 Q 641.7 55.8 643 51.5 Q 644.5 45 649.5 42 L 658.5 38 Q 662 39 661 44.5 L 658 54.5 L 656 56.5 L 656.5 58 L 652.5 60 L 648 59 L 649.5 63 Q 658.3 64.8 660 59.5 L 665 47.5 L 664 44.5 Q 666.5 43 665 37.5 L 664 35 L 659.5 34 L 652.5 36 L 651 33.5 L 653 28 L 665.5 22 L 669 22 L 669 313 L 356 313 L 357 309.5 L 357 277.5 L 359.5 275 L 367 272 L 365.5 268 L 361.5 269 L 358 267.5 L 358.5 265 Q 363.8 266.3 365 263.5 Q 366.2 258.9 361 261 L 361 257.5 L 362 254 L 358 255.5 L 355 262.5 L 356 264.5 L 353 266 Q 354.5 273.2 349.5 275 Q 344.4 274.4 343 277.5 Q 341.6 282.1 347.5 280 L 353 279 L 354 304.5 L 353 305.5 L 353 313 L 0 313 L 0 0 Z M 73 1 L 69 13 Q 68 17 72 17 Q 82 16 86 10 L 85 7 L 83 7 L 77 12 L 74 11 L 76 4 L 76 2 L 73 1 Z M 504 1 L 503 7 L 499 9 L 497 12 L 503 15 L 496 19 Q 493 18 494 22 L 500 21 L 502 22 L 503 26 L 502 29 Q 500 32 496 32 L 494 36 L 503 34 L 502 38 L 506 40 L 507 43 L 505 45 L 495 48 L 497 52 L 507 49 Q 509 50 508 55 L 506 57 L 498 57 L 497 58 L 483 58 L 480 56 L 482 51 Q 483 46 480 45 L 481 40 L 480 35 Q 475 34 474 37 L 476 41 L 475 44 L 478 50 Q 477 57 471 60 L 473 62 L 477 61 L 485 61 L 486 62 L 495 62 L 496 61 Q 505 59 509 63 L 519 60 L 535 59 Q 540 57 535 54 L 530 56 L 514 57 Q 509 55 511 47 L 518 42 L 521 39 L 520 37 L 514 40 L 512 39 L 511 32 L 519 26 Q 519 23 515 23 L 513 25 L 510 25 Q 510 16 516 13 L 515 10 L 509 11 L 510 8 Q 510 4 508 3 Q 505 4 506 1 L 504 1 Z M 12 2 L 10 4 Q 3 3 1 6 L 2 11 L 1 13 Q -1 18 3 20 L 6 20 L 6 11 L 14 6 Q 16 7 15 4 L 12 2 Z M 592 5 L 590 6 L 588 9 L 583 12 L 587 17 L 586 19 L 582 23 L 578 24 Q 575 23 576 27 L 586 26 L 599 20 L 600 16 L 593 19 L 590 18 L 595 11 L 592 5 Z M 336 6 L 334 8 L 334 18 L 333 19 L 332 30 L 335 31 L 333 35 L 327 36 L 325 40 Q 331 41 335 38 L 337 40 L 336 47 L 333 49 L 330 46 L 327 44 Q 326 53 319 58 L 319 61 L 322 61 L 330 52 L 360 61 Q 365 62 366 59 L 364 56 L 357 56 L 347 53 L 342 50 Q 339 51 340 47 L 348 39 L 347 37 L 344 38 Q 341 39 342 35 L 348 30 L 346 26 L 346 17 L 347 16 L 346 9 L 345 7 L 336 6 Z M 39 8 L 39 11 L 47 15 L 49 14 Q 46 8 39 8 Z M 223 12 L 213 19 L 201 22 L 199 24 L 201 26 Q 207 27 209 24 Q 212 23 213 26 L 200 48 L 201 51 L 204 49 Q 203 46 206 47 L 206 45 L 213 32 L 216 34 L 215 44 L 215 46 Q 216 51 213 53 L 213 59 L 217 60 L 218 59 Q 216 52 219 51 L 219 40 L 222 37 L 234 40 L 238 43 Q 241 44 242 42 L 241 39 Q 234 34 223 33 L 220 31 L 219 27 Q 219 17 226 15 Q 227 10 223 12 Z M 170 14 L 172 17 L 176 18 L 178 17 L 178 14 L 170 14 Z M 278 14 L 270 17 L 267 20 L 264 20 L 263 17 L 260 19 L 263 33 L 269 40 Q 266 48 259 54 L 263 54 Q 272 48 274 36 L 280 32 L 282 27 L 280 27 L 285 17 Q 284 13 278 14 Z M 426 14 L 413 23 L 414 28 L 413 30 L 413 52 L 416 54 Q 421 50 424 43 L 424 37 L 421 38 L 420 42 L 418 45 L 417 45 L 418 39 L 431 28 L 436 36 L 444 43 L 446 43 L 450 36 Q 451 29 449 28 L 445 30 L 446 33 L 445 36 Q 444 39 442 36 Q 443 33 440 34 L 439 31 L 430 20 L 426 23 L 427 27 L 421 32 L 417 31 L 419 24 L 428 17 Q 429 13 426 14 Z M 562 16 L 561 17 Q 558 16 559 19 Q 560 23 565 22 L 566 20 L 562 16 Z M 84 19 L 83 20 Q 80 19 81 22 L 74 27 Q 70 26 71 29 L 70 30 L 74 34 L 73 50 L 72 51 L 76 53 L 86 42 L 88 42 L 95 47 Q 97 46 96 49 L 98 48 L 112 56 L 115 56 L 114 52 Q 111 53 112 51 L 111 51 L 99 45 L 88 38 L 90 33 Q 94 31 91 29 L 89 29 L 81 36 L 82 41 L 81 44 L 77 45 L 78 35 L 78 33 L 79 29 L 86 22 Q 87 18 84 19 Z M 145 19 L 136 31 Q 133 32 138 34 L 144 24 L 147 25 L 143 31 L 139 33 Q 139 39 134 43 L 138 44 L 139 41 L 142 43 L 140 48 L 143 51 L 145 49 Q 144 42 146 39 L 146 37 L 146 33 L 150 27 L 147 21 Q 148 18 145 19 Z M 49 20 L 37 26 L 38 28 L 42 28 L 50 23 L 49 20 Z M 478 20 L 478 23 L 483 25 L 484 22 Q 483 19 478 20 Z M 395 21 L 392 28 L 388 30 L 386 34 L 392 33 Q 395 35 393 42 L 386 48 Q 383 47 384 51 Q 385 53 389 52 L 390 50 L 392 51 L 390 54 L 391 57 Q 392 59 396 58 Q 398 53 397 45 L 400 39 L 396 37 L 397 31 L 400 25 Q 400 21 395 21 Z M 179 23 L 173 27 L 169 27 L 167 30 Q 168 32 175 31 L 176 33 Q 178 43 174 48 L 170 46 L 166 48 L 167 50 L 174 54 L 178 54 L 179 52 L 179 36 Q 181 34 180 30 L 182 27 L 181 24 L 179 23 Z M 589 27 L 587 28 L 584 31 L 583 44 L 575 53 L 577 55 L 580 53 L 581 51 Q 583 46 585 49 Q 587 48 586 55 L 589 56 L 594 50 L 598 50 L 605 55 L 606 59 L 603 60 L 588 60 L 587 59 L 576 58 L 574 58 L 563 57 L 562 55 L 566 50 L 566 45 L 563 41 L 566 36 Q 567 32 564 31 L 558 32 L 561 38 L 558 42 L 562 47 Q 563 51 560 53 L 553 59 L 555 60 L 563 61 L 565 61 L 588 63 L 589 64 L 601 64 L 602 63 L 615 62 L 616 59 Q 615 56 614 58 L 611 57 Q 608 58 609 54 L 601 48 Q 597 47 598 44 Q 602 41 598 39 Q 595 42 591 41 L 595 30 L 592 28 L 589 27 Z M 43 34 L 38 54 L 31 66 L 34 67 L 37 64 L 44 51 L 47 52 L 51 51 Q 55 48 54 40 L 52 38 L 48 38 L 46 38 L 46 34 L 43 34 Z M 287 43 L 286 46 L 292 50 L 293 53 L 300 58 L 301 55 L 290 44 L 287 43 Z M 434 47 L 430 50 L 424 57 L 427 58 L 436 50 Q 437 46 434 47 Z M 505 121 L 489 130 L 486 129 L 483 130 L 484 141 L 487 142 L 491 133 L 493 135 L 492 139 L 493 141 Q 492 143 495 142 L 496 141 L 496 133 L 499 129 L 501 131 L 500 134 Q 500 138 503 138 L 510 137 L 515 129 L 515 124 Q 513 119 505 121 Z M 568 124 L 567 127 L 568 129 L 567 139 L 561 141 L 558 144 L 558 153 L 554 166 L 546 177 L 550 178 L 555 171 Q 560 169 558 175 L 551 179 L 552 181 L 556 181 L 563 175 L 568 175 L 574 178 L 589 182 Q 595 183 595 181 L 593 178 L 572 173 L 567 170 L 570 162 Q 567 157 562 158 L 561 156 L 563 152 L 565 152 L 569 156 L 573 155 L 576 152 L 576 149 Q 573 150 574 148 L 582 143 Q 585 142 584 137 L 581 134 L 579 134 L 574 137 Q 570 138 571 135 L 579 131 L 580 128 L 578 127 L 573 129 L 571 126 L 568 124 Z M 39 125 L 25 130 Q 20 132 24 134 L 30 133 Q 31 130 33 135 L 33 137 L 27 143 Q 25 140 21 141 L 23 157 Q 24 159 28 158 L 27 162 L 21 161 L 19 164 L 23 166 L 24 169 Q 24 173 21 175 Q 16 173 17 178 L 21 180 L 23 179 L 30 169 L 34 169 L 49 175 L 68 180 L 69 178 L 66 175 Q 58 175 54 171 L 50 171 L 35 166 L 32 164 L 33 158 L 41 152 L 48 142 Q 49 135 46 134 L 40 135 Q 37 135 37 131 L 42 128 Q 44 124 39 125 Z M 103 126 L 101 128 L 101 140 L 100 141 L 100 149 L 102 150 L 106 149 L 106 152 L 94 156 L 92 160 Q 98 161 102 158 L 105 160 L 103 168 L 100 169 Q 96 168 97 163 L 94 164 L 92 171 L 86 178 L 86 180 L 89 181 L 97 172 L 115 177 L 118 179 L 132 181 L 133 178 L 132 176 L 125 176 L 112 172 L 107 169 L 107 167 L 114 160 L 113 157 L 109 158 L 110 154 L 113 152 L 116 148 L 113 146 L 114 130 Q 113 127 110 127 L 108 127 L 103 126 Z M 174 126 L 172 128 L 173 130 L 172 132 Q 171 134 170 132 L 164 136 L 166 138 L 170 137 L 173 139 L 171 147 L 159 155 L 161 157 L 173 151 L 175 153 Q 173 156 174 163 L 171 167 L 168 166 L 166 164 L 164 162 L 155 177 L 151 180 Q 150 183 154 182 L 164 170 L 174 171 L 192 176 L 208 177 L 209 178 L 222 178 L 222 176 L 221 174 L 198 173 L 178 168 Q 178 160 184 157 Q 183 154 186 155 L 187 151 L 185 149 L 182 153 L 178 154 L 178 151 L 182 144 L 187 142 L 188 140 L 187 137 L 180 142 L 176 141 L 176 136 L 183 129 Q 184 126 182 127 Q 180 124 179 128 L 174 126 Z M 272 127 L 269 128 L 270 132 Q 271 134 275 133 Q 276 128 272 127 Z M 262 133 L 258 137 L 252 149 L 255 150 L 257 146 L 260 148 L 260 158 L 257 170 L 260 171 Q 263 168 262 161 L 264 158 Q 262 151 266 152 Q 265 157 268 159 L 265 165 L 268 166 Q 275 162 286 162 L 287 161 L 286 158 L 282 159 Q 275 161 273 158 L 275 153 Q 276 146 272 145 L 274 138 L 265 140 L 262 133 Z M 326 134 L 324 136 L 325 141 L 318 145 L 315 138 L 312 140 L 312 148 L 313 149 L 313 174 L 317 174 L 318 170 L 316 165 L 317 164 L 317 151 L 322 147 L 324 147 L 322 153 Q 321 156 325 155 L 329 147 L 333 146 L 346 161 Q 347 165 345 166 L 341 165 Q 341 174 347 178 L 350 177 L 350 145 L 349 143 L 343 137 L 334 137 L 333 138 L 326 134 Z M 465 135 L 463 139 L 468 140 L 470 139 Q 472 140 471 138 Q 470 134 465 135 Z M 235 139 L 233 141 L 238 144 L 240 144 L 239 142 Q 239 138 235 139 Z M 429 139 L 428 142 L 435 152 L 440 153 L 441 151 L 437 145 L 432 139 L 429 139 Z M 501 143 Q 497 145 499 151 Q 494 156 486 159 Q 483 158 484 162 L 487 163 L 496 158 L 499 160 L 498 162 L 496 163 L 491 171 Q 485 173 491 176 L 496 170 Q 495 167 498 168 L 500 174 L 499 177 Q 498 181 501 182 L 503 182 L 503 155 L 511 148 L 510 145 L 506 147 L 501 143 Z M 409 147 L 407 149 L 409 151 Q 412 152 411 149 L 409 147 Z M 381 149 L 372 164 Q 371 168 375 169 L 377 167 L 377 162 L 383 151 L 381 149 Z M 468 150 L 465 151 L 461 155 L 463 156 L 468 155 L 470 151 L 468 150 Z M 396 152 L 394 156 L 402 162 Q 412 164 417 160 Q 421 159 420 153 L 418 153 L 410 159 Q 401 159 398 154 Q 399 151 396 152 Z M 234 154 L 232 156 L 233 158 L 231 165 L 236 169 L 235 171 L 230 175 Q 227 174 228 178 Q 229 180 231 178 L 242 178 L 252 180 L 261 180 L 262 181 L 277 181 L 278 180 L 282 181 L 285 179 L 292 178 L 295 175 L 293 173 L 279 177 L 258 177 L 255 176 L 253 176 L 241 175 L 239 173 Q 237 171 240 170 L 240 166 L 237 162 L 239 157 Q 238 153 234 154 Z M 578 157 L 574 158 L 574 165 L 573 166 Q 572 169 576 168 L 578 164 Q 577 161 580 162 L 585 169 L 590 167 L 594 163 L 592 160 Q 591 164 587 163 L 584 160 Q 583 156 578 157 Z M 511 161 L 509 164 Q 517 169 528 172 L 529 170 L 525 166 L 511 161 Z M 472 162 L 462 173 Q 461 176 465 175 Q 470 172 472 166 L 472 162 Z M 38 237 L 32 240 Q 29 239 30 242 L 33 243 Q 35 240 42 241 L 43 245 L 29 249 L 25 249 L 21 252 L 23 254 Q 32 254 39 250 L 40 253 L 26 261 L 28 263 L 44 256 L 47 253 L 46 250 L 55 244 Q 56 240 54 241 L 52 241 L 49 241 L 45 237 L 38 237 Z M 346 238 L 346 241 L 351 244 L 353 243 L 352 241 L 346 238 Z M 121 242 L 119 244 L 120 246 L 127 250 Q 129 251 128 248 L 123 242 L 121 242 Z M 176 243 Q 174 246 173 244 L 167 248 L 160 247 L 162 258 L 166 266 L 169 264 Q 171 265 170 262 L 173 261 L 175 262 L 172 266 L 170 265 Q 167 264 168 267 L 165 268 Q 163 271 162 269 L 154 273 L 152 277 L 157 276 Q 160 275 161 278 L 160 280 L 160 290 L 161 291 L 160 293 Q 161 295 159 294 Q 155 295 156 299 L 160 299 L 165 294 L 167 296 L 166 301 L 166 303 Q 165 305 170 304 L 171 301 L 171 299 L 171 290 L 173 281 Q 174 274 171 271 L 194 261 Q 195 257 192 258 L 190 258 Q 186 262 181 262 L 181 259 L 185 251 L 185 246 Q 183 241 176 243 Z M 498 244 L 497 247 L 499 254 L 498 257 L 498 265 L 502 270 L 498 276 Q 497 279 500 280 L 520 269 L 523 272 L 520 292 L 520 294 L 519 298 L 515 301 L 518 304 L 522 303 L 527 277 L 527 270 L 522 265 L 507 271 L 507 269 L 513 260 L 515 251 Q 516 245 513 244 Q 506 242 505 245 L 498 244 Z M 321 245 L 320 261 Q 319 263 314 262 L 312 264 L 311 271 Q 316 270 317 273 L 311 283 Q 310 287 314 285 L 317 278 L 320 280 Q 321 286 317 289 L 318 290 L 318 299 L 321 300 L 323 298 L 324 280 L 326 278 L 328 278 L 333 282 L 336 281 L 327 273 L 324 269 L 330 265 L 328 260 L 329 257 Q 331 251 327 252 Q 323 251 324 246 L 321 245 Z M 264 248 L 262 250 L 263 256 L 256 260 L 258 262 Q 264 260 262 266 L 259 268 L 256 272 L 256 279 L 261 284 L 262 291 L 270 295 L 290 295 Q 294 293 293 287 Q 289 285 290 289 L 286 292 L 272 291 L 265 287 Q 264 278 267 275 L 271 272 L 273 275 L 275 274 Q 277 267 274 265 Q 270 264 269 268 Q 270 271 266 269 Q 264 259 270 257 L 266 252 Q 268 247 264 248 Z M 357 248 Q 351 254 343 257 L 341 257 L 341 261 L 345 263 L 343 267 L 345 269 Q 347 265 353 266 L 350 261 Q 352 253 358 251 Q 359 247 357 248 Z M 579 248 Q 574 250 576 258 L 576 260 L 574 266 L 575 269 L 576 270 L 581 270 Q 582 274 578 276 L 580 278 L 583 277 L 586 272 L 590 252 L 587 251 L 583 254 Q 579 255 581 250 L 579 248 Z M 554 250 L 553 251 Q 549 250 550 254 L 556 257 L 559 256 Q 561 257 560 255 L 554 250 Z M 235 253 L 228 265 L 234 270 L 231 274 L 232 276 L 237 277 Q 240 278 241 276 Q 242 270 238 270 L 239 267 L 238 263 L 234 261 L 237 255 L 235 253 Z M 430 253 L 428 255 Q 427 262 431 263 L 437 262 Q 438 259 440 264 Q 441 269 439 271 L 433 270 L 431 274 L 438 276 L 439 279 L 437 286 L 435 288 Q 431 287 432 291 Q 433 293 437 293 Q 442 290 442 281 L 446 278 L 450 281 Q 453 282 454 280 L 453 277 L 446 274 L 444 273 L 444 259 L 442 256 L 434 258 L 432 255 L 430 253 Z M 473 255 L 471 257 L 477 260 L 478 256 L 473 255 Z M 565 256 L 552 264 L 544 266 L 546 270 L 553 268 Q 556 270 554 277 L 558 278 Q 563 275 565 269 L 564 267 L 560 271 L 558 269 L 559 265 L 566 259 L 565 256 Z M 113 258 Q 109 259 110 264 L 106 267 Q 102 266 103 269 L 100 270 L 98 273 L 102 275 L 102 273 L 110 268 L 113 268 L 116 277 Q 116 286 109 290 Q 108 293 111 294 L 113 293 L 118 287 Q 117 284 121 285 L 126 294 L 130 295 Q 132 293 131 287 Q 130 284 129 286 L 125 285 L 122 280 L 122 274 L 125 266 L 120 267 L 120 269 L 117 268 L 117 264 L 120 259 L 113 258 Z M 395 258 L 386 275 L 389 276 L 390 274 L 393 272 L 395 275 L 396 294 L 398 295 L 402 292 L 408 293 L 410 290 L 410 285 L 412 280 L 412 278 Q 413 275 411 276 L 405 269 L 400 270 L 396 265 L 398 261 Q 399 256 395 258 Z M 50 261 L 46 263 Q 44 260 42 265 L 43 272 L 46 274 L 49 273 L 54 268 L 54 263 Q 53 260 50 261 Z M 88 263 L 85 264 L 84 270 Q 82 274 77 274 L 79 278 L 81 277 L 83 279 Q 83 291 76 296 L 78 300 L 83 303 L 85 300 L 86 289 L 91 281 L 89 282 L 86 281 Q 87 270 94 266 L 88 263 Z M 30 266 L 21 271 L 18 275 L 23 275 L 22 282 L 25 283 L 28 282 L 36 273 L 35 270 Q 32 269 33 272 L 30 273 L 32 268 L 30 266 Z M 193 269 L 184 275 L 186 277 L 188 276 Q 191 275 190 279 Q 189 281 184 280 L 185 286 L 183 287 Q 178 290 183 292 L 189 288 L 193 288 L 207 296 L 209 293 L 193 284 L 196 275 L 196 271 L 193 269 Z M 475 270 L 472 271 L 470 275 Q 475 276 478 273 Q 479 268 475 270 Z M 571 277 L 562 280 L 564 284 Q 567 283 566 287 L 561 291 L 564 292 L 566 291 L 567 294 L 565 296 L 555 296 L 553 298 L 555 301 L 570 300 L 574 298 L 593 296 L 595 294 L 594 291 L 578 294 Q 572 295 571 292 L 575 286 L 572 284 L 574 279 L 571 277 Z M 52 278 L 47 281 L 41 280 L 40 285 L 30 291 L 16 295 L 18 298 Q 31 297 39 290 L 41 291 L 42 294 L 40 297 L 36 296 L 34 300 L 40 301 L 41 304 L 37 306 Q 35 311 43 309 L 45 307 Q 44 300 48 299 L 45 293 L 45 288 L 54 281 Q 55 277 52 278 Z M 508 280 L 503 286 L 498 284 L 496 286 L 495 296 L 498 297 Q 506 298 509 294 Q 511 295 510 291 L 503 292 Q 501 295 499 291 L 502 287 L 504 288 Q 508 289 509 285 Q 516 287 514 282 L 508 280 Z M 479 281 L 469 294 L 472 295 Q 478 291 481 283 Q 482 280 479 281 Z M 242 284 L 240 286 L 241 294 L 244 294 L 244 288 L 245 286 L 242 284 Z M 233 285 Q 232 292 234 295 L 237 294 L 236 290 Q 238 283 233 285 Z M 227 287 L 225 289 L 229 298 L 231 297 L 229 289 Q 230 286 227 287 Z M 619 287 Q 615 289 617 296 L 611 300 L 613 302 Q 620 303 622 299 Q 619 296 620 289 L 619 287 Z " /><path fill="rgb(255,255,255)" stroke="rgb(255,255,255)" stroke-width="1" opacity="1" d="M 340.5 11 L 343 12.5 L 339 15 L 340.5 11 Z " /><path fill="rgb(255,255,255)" stroke="rgb(255,255,255)" stroke-width="1" opacity="1" d="M 275.5 19 Q 280.3 17.3 279 21.5 L 271.5 32 L 268 30.5 L 267 23 L 275.5 19 Z " /><path fill="rgb(255,255,255)" stroke="rgb(255,255,255)" stroke-width="1" opacity="1" d="M 339.5 19 Q 343.3 17.8 342 21.5 Q 340 26 338 22.5 L 339.5 19 Z " /><path fill="rgb(255,255,255)" stroke="rgb(255,255,255)" stroke-width="1" opacity="1" d="M 337 29 L 339 29.5 L 338.5 32 Q 335.5 32.7 337 29 Z " /><path fill="rgb(255,255,255)" stroke="rgb(255,255,255)" stroke-width="1" opacity="1" d="M 46.5 45 L 49 45.5 Q 46.9 48.8 46.5 45 Z " /><path fill="rgb(255,255,255)" stroke="rgb(255,255,255)" stroke-width="1" opacity="1" d="M 508.5 124 L 511 127.5 L 508.5 131 Q 506.3 130.3 507 132.5 L 505.5 132 Q 502.5 132.9 504 128.5 L 506.5 125 L 508.5 124 Z " /><path fill="rgb(255,255,255)" stroke="rgb(255,255,255)" stroke-width="1" opacity="1" d="M 107.5 131 Q 110.1 130.2 109 133.5 Q 107.5 136.5 106 133.5 L 107.5 131 Z " /><path fill="rgb(255,255,255)" stroke="rgb(255,255,255)" stroke-width="1" opacity="1" d="M 42.5 137 Q 45 138.2 44 142 L 38.5 146 L 38 144 Q 40.7 145.1 40 142.5 L 39 140.5 L 40 138 L 42.5 137 Z " /><path fill="rgb(255,255,255)" stroke="rgb(255,255,255)" stroke-width="1" opacity="1" d="M 107.5 139 Q 110.1 138.2 109 141.5 L 105.5 143 L 106 141.5 L 107.5 139 Z " /><path fill="rgb(255,255,255)" stroke="rgb(255,255,255)" stroke-width="1" opacity="1" d="M 337.5 140 L 344 143.5 L 346 151 L 343.5 152 L 335 142.5 L 337.5 140 Z " /><path fill="rgb(255,255,255)" stroke="rgb(255,255,255)" stroke-width="1" opacity="1" d="M 575.5 140 L 578 140.5 L 576.5 143 L 574 142.5 L 575.5 140 Z " /><path fill="rgb(255,255,255)" stroke="rgb(255,255,255)" stroke-width="1" opacity="1" d="M 265.5 144 Q 269.3 142.8 268 146.5 L 264.5 148 Q 261 146 265.5 144 Z " /><path fill="rgb(255,255,255)" stroke="rgb(255,255,255)" stroke-width="1" opacity="1" d="M 564.5 144 Q 567.5 143.2 566 147 Q 562.3 148.5 563 145.5 L 564.5 144 Z " /><path fill="rgb(255,255,255)" stroke="rgb(255,255,255)" stroke-width="1" opacity="1" d="M 28.5 150 L 29.5 152 Q 26.7 152.7 28.5 150 Z " /><path fill="rgb(255,255,255)" stroke="rgb(255,255,255)" stroke-width="1" opacity="1" d="M 177.5 247 L 180 248.5 Q 180.5 252.5 177.5 253 L 177.5 251 Q 172.5 250 171.5 253 L 170 252.5 L 169 254.5 L 170 257.5 Q 168.5 260.5 167 257.5 L 166 255.5 L 171.5 249 L 173.5 250 L 174 248 L 177.5 247 Z " /><path fill="rgb(255,255,255)" stroke="rgb(255,255,255)" stroke-width="1" opacity="1" d="M 508.5 247 L 511 249.5 L 507.5 253 Q 502.1 254.9 503 251.5 L 505.5 248 L 508.5 247 Z " /><path fill="rgb(255,255,255)" stroke="rgb(255,255,255)" stroke-width="1" opacity="1" d="M 505.5 257 Q 509.7 255.9 508 260 L 504.5 262 L 503 259.5 L 505.5 257 Z " /><path fill="rgb(255,255,255)" stroke="rgb(255,255,255)" stroke-width="1" opacity="1" d="M 402.5 274 L 405 275.5 L 402.5 279 L 401 275.5 L 402.5 274 Z " /><path fill="rgb(255,255,255)" stroke="rgb(255,255,255)" stroke-width="1" opacity="1" d="M 403.5 283 L 404 285.5 L 401 287 L 401 285 Q 403.8 286 403.5 283 Z " /></svg>