<svg width="112" height="144" viewBox="0 0 112 144" fill="none" xmlns="http://www.w3.org/2000/svg">
<g id="Group 2313">
<path id="Vector" d="M1.89575 31.5728V35.2926C10.4125 36.1854 11.6659 36.8177 11.6659 48.5723V100.575C11.6659 111.325 10.8946 112.516 0.288818 113.408V117.128H21.5004V31.5728H1.89575ZM44.1581 0.735657L25.2927 20.9342L27.5746 24.2076L52.1285 8.95642L52.2249 7.87768C51.0679 5.90618 46.5364 1.40522 44.1581 0.735657Z" fill="white"/>
<path id="Vector_2" d="M53.0284 31.6473V50.5806C53.0284 40.8722 46.633 32.8376 38.3093 31.6473H53.0284Z" fill="white"/>
<path id="Vector_3" d="M60.4193 117.054V98.1212C60.4193 107.83 54.0239 115.864 45.7002 117.054H60.4193Z" fill="white"/>
<path id="Vector_4" d="M33.6489 72.601C41.9728 73.7914 48.3684 81.8261 48.3684 91.5348V72.601V53.6672C48.4006 63.3759 41.9728 71.4107 33.6489 72.601Z" fill="white"/>
<path id="Vector_5" d="M80.2386 31.6473V35.5253C90.0221 36.5723 91.0943 37.5806 91.0943 49.0206V95.3235C91.0943 106.763 90.8933 114.752 89.9216 121.267C88.5479 129.256 84.7953 135.577 78.0608 139.455L79.9371 143.565C83.0866 141.859 87.0402 139.687 90.8933 135.577C98.901 127.355 101.38 117.854 101.38 99.7831V49.0206C101.38 37.5806 102.352 36.6887 111.566 35.5253V31.6473H80.2386Z" fill="white"/>
</g>
</svg>
