<svg width="49" height="49" viewBox="0 0 49 49" fill="none" xmlns="http://www.w3.org/2000/svg">
<g clip-path="url(#clip0_114_21)">
<path d="M31.0377 24.5794C30.4014 24.727 29.676 24.9126 28.9117 25.1458C26.5481 25.8672 23.7062 27.0558 21.986 28.9398L21.8239 29.1243C20.313 30.8948 19.3912 33.7281 18.8453 36.0462C18.7568 36.4221 18.6796 36.7874 18.609 37.1351C18.5404 36.7885 18.4648 36.4247 18.3785 36.0501C17.8781 33.8771 17.0493 31.2508 15.7086 29.47L15.4342 29.1263C13.7328 27.12 10.7676 25.8764 8.31409 25.1351C7.55701 24.9063 6.83786 24.7246 6.20471 24.5794C6.84236 24.4167 7.56791 24.2149 8.33167 23.9642C10.7105 23.1833 13.5638 21.9212 15.276 19.9866L15.4381 19.7972C16.8899 18.0426 17.797 15.2743 18.3424 13.012C18.4429 12.5952 18.5308 12.1917 18.609 11.8118C18.6894 12.1927 18.7785 12.5969 18.8815 13.015C19.4041 15.1364 20.2466 17.702 21.5524 19.4583L21.8199 19.7982C23.508 21.8252 26.4533 23.144 28.8951 23.9534C29.6658 24.2089 30.3972 24.4142 31.0377 24.5794ZM22.2692 23.3616C22.2667 23.3613 22.2622 23.3605 22.2565 23.3597C22.245 23.358 22.2272 23.3557 22.2037 23.3519C22.1566 23.3441 22.0864 23.3322 21.9996 23.3148C21.8255 23.2798 21.5859 23.2243 21.3239 23.1439C20.8453 22.997 20.3602 22.7854 20.0387 22.5081L19.9117 22.386C19.7711 22.2326 19.6376 21.9875 19.5211 21.6693C19.4069 21.3572 19.3203 21.0073 19.2565 20.6732C19.193 20.3407 19.1541 20.0327 19.1305 19.8079C19.1187 19.6959 19.1108 19.6052 19.1061 19.5433C19.1037 19.5123 19.1022 19.4886 19.1012 19.473C19.1007 19.4652 19.1004 19.459 19.1002 19.4554V19.4515L18.1012 19.4544V19.4583C18.101 19.4619 18.1007 19.4681 18.1002 19.4759C18.0993 19.4915 18.0975 19.5153 18.0953 19.5462C18.0909 19.6084 18.0831 19.6994 18.0719 19.8118C18.0495 20.0373 18.0124 20.346 17.9508 20.679C17.8889 21.0137 17.8041 21.3637 17.692 21.6751C17.6062 21.9137 17.5111 22.1097 17.4108 22.2562L17.3092 22.386C17.1626 22.5461 16.9236 22.7016 16.61 22.8431C16.3017 22.9821 15.9527 23.0937 15.6178 23.18C15.2846 23.2658 14.9745 23.3243 14.7477 23.3616C14.635 23.3802 14.5436 23.3933 14.4811 23.4017C14.4498 23.4059 14.4255 23.4095 14.4098 23.4114C14.402 23.4124 14.3958 23.413 14.3922 23.4134H14.3883L14.4186 24.3978C14.418 24.41 14.4176 24.4105 14.4176 24.4105H14.4225C14.426 24.4107 14.4316 24.411 14.4391 24.4114C14.4546 24.4124 14.4784 24.414 14.5094 24.4163C14.5715 24.421 14.6627 24.4285 14.775 24.4407C15.0006 24.4652 15.3083 24.5074 15.6393 24.5765C15.972 24.6459 16.3173 24.7399 16.6217 24.8665C16.854 24.9632 17.0437 25.0707 17.1842 25.1849L17.3082 25.3011C17.439 25.4451 17.5684 25.6905 17.6832 26.0218C17.7951 26.3446 17.8797 26.7106 17.943 27.0618C18.006 27.4114 18.0461 27.7366 18.0699 27.9749C18.0818 28.0936 18.0895 28.1901 18.0944 28.2562C18.0968 28.2891 18.0992 28.3146 18.1002 28.3314C18.1007 28.3396 18.101 28.346 18.1012 28.3499V28.3548L19.1002 28.3362V28.3323C19.1003 28.3289 19.101 28.3233 19.1012 28.3157C19.1016 28.3002 19.1018 28.2757 19.1031 28.2444C19.1058 28.182 19.1104 28.0904 19.1188 27.9769C19.1356 27.7491 19.1673 27.4367 19.2252 27.097C19.3316 26.473 19.5128 25.8527 19.7867 25.4593L19.9098 25.305C20.2635 24.9238 20.8218 24.6782 21.3444 24.5306C21.5978 24.459 21.8269 24.4152 21.9918 24.389C22.0738 24.376 22.1394 24.3677 22.1832 24.3626C22.205 24.3601 22.2217 24.3578 22.2321 24.3568C22.2371 24.3563 22.2408 24.356 22.2428 24.3558H22.2448V24.346L22.2711 23.3626L22.2692 23.3616ZM20.3239 23.8382C19.9605 24.0005 19.5894 24.2195 19.2799 24.5189L19.1764 24.6253C18.9251 24.8963 18.7379 25.2423 18.5944 25.6058C18.4825 25.3009 18.3382 24.9934 18.1432 24.7425L18.0485 24.6292C17.7663 24.3184 17.3821 24.1004 17.0055 23.9437C16.9307 23.9125 16.8544 23.8843 16.778 23.8568C16.8597 23.8245 16.9414 23.7912 17.0211 23.7552C17.3466 23.6084 17.6764 23.4189 17.9391 23.1712L18.0475 23.0609C18.2982 22.7868 18.4768 22.4299 18.609 22.0775C18.7256 22.3831 18.8754 22.6921 19.0778 22.9476L19.1744 23.0609C19.4878 23.4027 19.9095 23.6542 20.3239 23.8382ZM48.0953 24.7952C48.0876 25.3795 47.8122 26.0143 47.1891 26.7337L46.901 27.0472L29.6158 44.3089H22.6012C23.1336 43.7928 23.8809 43.0683 24.774 42.2025C26.6132 40.4195 29.0711 38.0366 31.5465 35.637C36.498 30.8373 41.5179 25.9713 41.7955 25.7034C41.9186 25.5847 42.0635 25.4512 42.1686 25.3314C42.2764 25.2083 42.4094 25.0283 42.444 24.7864C42.4804 24.5311 42.395 24.3067 42.2799 24.1214C42.1684 23.9419 42.0021 23.7563 41.8004 23.556C41.4135 23.1716 36.7183 18.3947 32.1139 13.7083C29.8127 11.3662 27.5352 9.04819 25.8336 7.31573C25.0163 6.48363 24.3322 5.78618 23.8414 5.28644H29.6158L46.9059 22.554L46.9088 22.556C47.7717 23.4039 48.104 24.1343 48.0953 24.7952Z" fill="#142E3F" stroke="#142E3F"/>
</g>
<defs>
<clipPath id="clip0_114_21">
<rect width="48" height="48" fill="white" transform="translate(0.595459 0.797852)"/>
</clipPath>
</defs>
</svg>
