<svg width="49" height="48" viewBox="0 0 49 48" fill="none" xmlns="http://www.w3.org/2000/svg">
<g clip-path="url(#clip0_114_18)">
<path d="M21.1973 23.7816C21.8335 23.9291 22.559 24.1147 23.3232 24.348C25.6869 25.0693 28.5288 26.2579 30.249 28.1419L30.4111 28.3265C31.922 30.0969 32.8438 32.9302 33.3896 35.2484C33.4782 35.6242 33.5554 35.9895 33.626 36.3372C33.6945 35.9907 33.7702 35.6268 33.8564 35.2523C34.3569 33.0793 35.1857 30.4529 36.5264 28.6722L36.8008 28.3284C38.5022 26.3221 41.4673 25.0785 43.9209 24.3372C44.678 24.1085 45.3971 23.9267 46.0303 23.7816C45.3926 23.6189 44.6671 23.417 43.9033 23.1663C41.5245 22.3854 38.6712 21.1234 36.959 19.1888L36.7969 18.9993C35.345 17.2447 34.438 14.4764 33.8926 12.2142C33.7921 11.7973 33.7042 11.3939 33.626 11.014C33.5456 11.3948 33.4565 11.7991 33.3535 12.2171C32.8308 14.3385 31.9884 16.9042 30.6826 18.6605L30.415 19.0003C28.727 21.0273 25.7817 22.3461 23.3398 23.1556C22.5692 23.411 21.8378 23.6163 21.1973 23.7816ZM29.9658 22.5638C29.9682 22.5634 29.9728 22.5627 29.9785 22.5618C29.99 22.5601 30.0078 22.5579 30.0312 22.554C30.0784 22.5463 30.1485 22.5343 30.2354 22.5169C30.4095 22.482 30.6491 22.4264 30.9111 22.346C31.3897 22.1991 31.8747 21.9876 32.1963 21.7103L32.3232 21.5882C32.4639 21.4348 32.5974 21.1896 32.7139 20.8714C32.828 20.5594 32.9147 20.2095 32.9785 19.8753C33.042 19.5428 33.0809 19.2349 33.1045 19.0101C33.1162 18.8981 33.1242 18.8074 33.1289 18.7454C33.1313 18.7145 33.1328 18.6907 33.1338 18.6751C33.1343 18.6673 33.1346 18.6611 33.1348 18.6575V18.6536L34.1338 18.6566V18.6605C34.134 18.6641 34.1343 18.6702 34.1348 18.678C34.1357 18.6937 34.1374 18.7174 34.1396 18.7484C34.1441 18.8106 34.1519 18.9016 34.1631 19.014C34.1855 19.2395 34.2226 19.5481 34.2842 19.8812C34.3461 20.2159 34.4309 20.5658 34.543 20.8773C34.6288 21.1158 34.7239 21.3118 34.8242 21.4583L34.9258 21.5882C35.0724 21.7483 35.3114 21.9038 35.625 22.0452C35.9333 22.1842 36.2823 22.2959 36.6172 22.3821C36.9504 22.468 37.2605 22.5265 37.4873 22.5638C37.6 22.5823 37.6914 22.5954 37.7539 22.6038C37.7852 22.608 37.8095 22.6117 37.8252 22.6136C37.833 22.6145 37.8392 22.6151 37.8428 22.6155H37.8467L37.8164 23.5999C37.817 23.6121 37.8174 23.6126 37.8174 23.6126H37.8125C37.809 23.6128 37.8033 23.6131 37.7959 23.6136C37.7804 23.6145 37.7566 23.6161 37.7256 23.6185C37.6635 23.6232 37.5723 23.6307 37.46 23.6429C37.2344 23.6674 36.9267 23.7096 36.5957 23.7786C36.2629 23.8481 35.9176 23.942 35.6133 24.0687C35.381 24.1653 35.1913 24.2729 35.0508 24.387L34.9268 24.5032C34.796 24.6472 34.6666 24.8927 34.5518 25.2239C34.4398 25.5468 34.3553 25.9127 34.292 26.264C34.229 26.6136 34.1889 26.9388 34.165 27.1771C34.1531 27.2958 34.1455 27.3922 34.1406 27.4583C34.1382 27.4912 34.1358 27.5167 34.1348 27.5335C34.1342 27.5418 34.134 27.5481 34.1338 27.5521V27.5569L33.1348 27.5384V27.5345C33.1347 27.531 33.134 27.5254 33.1338 27.5179C33.1334 27.5023 33.1331 27.4778 33.1318 27.4466C33.1292 27.3841 33.1246 27.2925 33.1162 27.179C33.0994 26.9512 33.0677 26.6388 33.0098 26.2991C32.9034 25.6751 32.7221 25.0549 32.4482 24.6614L32.3252 24.5071C31.9715 24.1259 31.4132 23.8804 30.8906 23.7327C30.6372 23.6611 30.4081 23.6173 30.2432 23.5911C30.1612 23.5781 30.0956 23.5698 30.0518 23.5648C30.0299 23.5622 30.0132 23.5599 30.0029 23.5589C29.9979 23.5584 29.9942 23.5581 29.9922 23.5579H29.9902V23.5482L29.9639 22.5648L29.9658 22.5638ZM31.9111 23.0403C32.2745 23.2027 32.6456 23.4217 32.9551 23.721L33.0586 23.8275C33.3099 24.0984 33.4971 24.4444 33.6406 24.8079C33.7525 24.5031 33.8968 24.1956 34.0918 23.9446L34.1865 23.8314C34.4687 23.5206 34.8529 23.3025 35.2295 23.1458C35.3043 23.1147 35.3805 23.0864 35.457 23.0589C35.3753 23.0266 35.2936 22.9933 35.2139 22.9573C34.8883 22.8105 34.5586 22.6211 34.2959 22.3734L34.1875 22.263C33.9368 21.989 33.7581 21.632 33.626 21.2796C33.5094 21.5852 33.3596 21.8943 33.1572 22.1497L33.0605 22.263C32.7472 22.6049 32.3255 22.8564 31.9111 23.0403ZM4.13965 23.9974C4.14742 24.5817 4.42282 25.2165 5.0459 25.9359L5.33398 26.2493L22.6191 43.511H29.6338C29.1014 42.9949 28.3541 42.2704 27.4609 41.4046C25.6217 39.6217 23.1639 37.2387 20.6885 34.8392C15.737 30.0394 10.7171 25.1735 10.4395 24.9056C10.3164 24.7869 10.1715 24.6534 10.0664 24.5335C9.95857 24.4105 9.82555 24.2305 9.79102 23.9886C9.75462 23.7332 9.83994 23.5089 9.95508 23.3235C10.0666 23.1441 10.2329 22.9585 10.4346 22.7581C10.8214 22.3738 15.5167 17.5969 20.1211 12.9105C22.4223 10.5683 24.6998 8.25034 26.4014 6.51788C27.2186 5.68578 27.9028 4.98833 28.3936 4.48859H22.6191L5.3291 21.7562L5.32617 21.7581C4.46328 22.6061 4.13098 23.3365 4.13965 23.9974Z" fill="#142E3F" stroke="#142E3F"/>
<path d="M32.1217 22.4022C33.257 21.3166 33.6476 18.6806 33.6476 18.6806C33.6476 18.6806 34.0023 21.323 35.1362 22.4022C36.2714 23.4828 39.1927 23.7048 39.1927 23.7048C39.1927 23.7048 36.2513 24.2908 35.1362 25.4912C34.1438 26.5594 33.6476 28.9151 33.6476 28.9151C33.6476 28.9151 33.1252 26.557 32.1217 25.4912C30.8893 24.1823 27.879 23.7048 27.879 23.7048C27.879 23.7048 30.8691 23.6001 32.1217 22.4022Z" fill="#F6FBFC" stroke="#F6FBFC" stroke-width="0.01"/>
</g>
<defs>
<clipPath id="clip0_114_18">
<rect width="48" height="48" fill="white" transform="translate(0.546509)"/>
</clipPath>
</defs>
</svg>
