<svg width="31" height="31" viewBox="0 0 31 31" fill="none" xmlns="http://www.w3.org/2000/svg">
<path d="M30.7715 15.771C30.7715 24.0553 24.0558 30.771 15.7715 30.771C7.48721 30.771 0.771484 24.0553 0.771484 15.771C0.771484 7.48672 7.48721 0.770996 15.7715 0.770996C24.0558 0.770996 30.7715 7.48672 30.7715 15.771Z" fill="#F6FBFC"/>
<path fill-rule="evenodd" clip-rule="evenodd" d="M8.5918 9.09245C8.5918 8.81581 8.81606 8.59155 9.0927 8.59155C10.4073 8.59155 11.1317 9.32056 11.4377 9.92729H22.45C22.5986 9.92729 22.7394 9.9932 22.8346 10.1072C22.9298 10.2213 22.9694 10.3717 22.9428 10.5178L21.6086 17.8562C21.5984 17.9184 21.5768 17.9768 21.5459 18.0291C21.54 18.0391 21.5337 18.0489 21.5272 18.0584C21.5052 18.0903 21.4798 18.1194 21.4514 18.1452C21.4461 18.15 21.4407 18.1547 21.4352 18.1593C21.3477 18.2323 21.2353 18.2756 21.1143 18.2756L11.2504 18.2756C10.7189 18.2756 10.3838 18.3931 10.1938 18.5368C10.0218 18.6669 9.92752 18.8477 9.92752 19.1105C9.92752 19.3733 10.0218 19.554 10.1938 19.6841C10.3838 19.8278 10.7189 19.9453 11.2504 19.9453H20.7804C21.6103 19.9453 22.2831 20.6181 22.2831 21.448C22.2831 22.2779 21.6103 22.9507 20.7804 22.9507C19.9505 22.9507 19.2777 22.2779 19.2777 21.448C19.2777 21.2724 19.3078 21.1038 19.3632 20.9471H15.5189C15.5743 21.1038 15.6044 21.2724 15.6044 21.448C15.6044 22.2779 14.9316 22.9507 14.1017 22.9507C13.2718 22.9507 12.599 22.2779 12.599 21.448C12.599 21.2724 12.6291 21.1038 12.6845 20.9471H11.2504C10.5903 20.9471 10.0134 20.8037 9.58948 20.4831C9.14748 20.1488 8.92572 19.6616 8.92572 19.1105C8.92572 18.5593 9.14748 18.0721 9.58948 17.7378C10.0134 17.4172 10.5903 17.2738 11.2504 17.2738H11.8318L10.6069 10.5364C10.5308 10.2604 10.1381 9.59335 9.0927 9.59335C8.81606 9.59335 8.5918 9.36909 8.5918 9.09245ZM12.8501 17.2738H20.6963L21.8498 10.9291H11.6965L12.8501 17.2738Z" fill="#142E3F"/>
<path d="M19.0781 21.448C19.0781 21.3455 19.0871 21.245 19.1045 21.1472H15.7773C15.7948 21.245 15.8047 21.3454 15.8047 21.448C15.8047 22.3883 15.0419 23.1511 14.1016 23.1511C13.1612 23.1511 12.3994 22.3883 12.3994 21.448C12.3994 21.3455 12.4083 21.2449 12.4258 21.1472H11.25C10.6501 21.1472 10.0966 21.0333 9.65234 20.7664L9.46875 20.6423C8.97286 20.2672 8.72559 19.7187 8.72559 19.1101C8.72568 18.5016 8.97284 17.953 9.46875 17.5779L9.65234 17.4548C10.0966 17.1879 10.65 17.074 11.25 17.074H11.5918L10.4121 10.5857C10.3523 10.3762 10.0258 9.79373 9.09277 9.7937C8.7057 9.7937 8.39164 9.47959 8.3916 9.09253C8.3916 8.70543 8.70568 8.39136 9.09277 8.39136C10.418 8.39138 11.1934 9.09126 11.5566 9.72729H22.4502C22.658 9.72735 22.8551 9.81973 22.9883 9.97925C23.1046 10.1187 23.1618 10.2971 23.1494 10.4763L23.1396 10.5535L21.8057 17.8923L21.8037 17.8914C21.7966 17.9338 21.7868 17.975 21.7725 18.0144L21.7178 18.1306L21.6924 18.1716C21.677 18.194 21.6603 18.2158 21.6426 18.2361L21.5859 18.2927L21.5635 18.3132C21.4716 18.3898 21.3598 18.4428 21.2383 18.4646L21.1143 18.4753H11.25C10.8076 18.4754 10.5328 18.5618 10.375 18.656L10.3145 18.696C10.1962 18.7855 10.128 18.9054 10.1279 19.1101C10.1279 19.3149 10.1962 19.4347 10.3145 19.5242L10.375 19.5652C10.5328 19.6593 10.8077 19.7448 11.25 19.7449H20.7803C21.7206 19.7449 22.4834 20.5076 22.4834 21.448C22.4834 22.3883 21.7206 23.1511 20.7803 23.1511C19.84 23.1511 19.0781 22.3883 19.0781 21.448ZM21.8496 10.7292C21.9087 10.7292 21.9649 10.7553 22.0029 10.8005C22.0409 10.846 22.0574 10.9063 22.0469 10.9646L20.8926 17.3093C20.8753 17.4044 20.7929 17.4734 20.6963 17.4734H12.8496C12.7531 17.4732 12.6706 17.4043 12.6533 17.3093L11.5 10.9646C11.4895 10.9063 11.505 10.846 11.543 10.8005C11.5809 10.7552 11.6372 10.7293 11.6963 10.7292H21.8496ZM13.0166 17.074H20.5293L21.6104 11.1287H11.9365L13.0166 17.074ZM8.79199 9.09253C8.79203 9.25868 8.92662 9.39331 9.09277 9.39331C10.1001 9.39334 10.5783 9.96251 10.7461 10.3367L10.7998 10.4832L10.8037 10.5007L12.0283 17.238C12.0389 17.2964 12.0234 17.3566 11.9854 17.4021C11.9474 17.4475 11.8912 17.4733 11.832 17.4734H11.25C10.6948 17.4734 10.2209 17.58 9.8584 17.7976L9.70996 17.8972C9.32209 18.1906 9.12607 18.6165 9.12598 19.1101C9.12598 19.6039 9.32197 20.0305 9.70996 20.324L9.8584 20.4236C10.2209 20.6412 10.6949 20.7468 11.25 20.7468H12.6846C12.7495 20.7468 12.8102 20.7788 12.8477 20.8318C12.8851 20.8847 12.8946 20.9523 12.873 21.0134C12.8251 21.149 12.7988 21.2954 12.7988 21.448C12.7988 22.1674 13.3822 22.7507 14.1016 22.7507C14.821 22.7507 15.4043 22.1674 15.4043 21.448C15.4043 21.2954 15.378 21.149 15.3301 21.0134C15.3086 20.9524 15.3182 20.8847 15.3555 20.8318C15.3929 20.7789 15.4538 20.7469 15.5186 20.7468H19.3633C19.4282 20.7469 19.4889 20.7788 19.5264 20.8318C19.5638 20.8847 19.5733 20.9523 19.5518 21.0134C19.5038 21.149 19.4775 21.2954 19.4775 21.448C19.4775 22.1674 20.0609 22.7507 20.7803 22.7507C21.4997 22.7507 22.083 22.1674 22.083 21.448C22.083 20.7286 21.4997 20.1453 20.7803 20.1453H11.25C10.7626 20.1452 10.4084 20.0513 10.1689 19.908L10.0732 19.8435C9.8476 19.6728 9.72754 19.4308 9.72754 19.1101C9.72762 18.7896 9.84775 18.5483 10.0732 18.3777L10.1689 18.3132C10.4084 18.1699 10.7625 18.076 11.25 18.0759H21.1143L21.168 18.071C21.2199 18.0617 21.2672 18.0385 21.3066 18.0056L21.3164 17.9968L21.3623 17.9451L21.374 17.9275L21.3975 17.8777C21.4037 17.8605 21.4081 17.8425 21.4111 17.824L21.4121 17.8201L22.7461 10.4822L22.751 10.4158C22.7483 10.3502 22.7235 10.2864 22.6807 10.2351C22.6235 10.1669 22.5392 10.1277 22.4502 10.1277H11.4375C11.3621 10.1276 11.2928 10.0847 11.2588 10.0173C10.9809 9.46643 10.3195 8.79178 9.09277 8.79175C8.92659 8.79175 8.79199 8.92635 8.79199 9.09253Z" fill="#142E3F"/>
</svg>
