<svg width="374" height="43" viewBox="0 0 374 43" fill="none" xmlns="http://www.w3.org/2000/svg">
<path d="M29.2642 10.0269V11.1461C33.1706 11.4627 33.6538 11.6662 33.6538 15.0691V30.9421C33.6538 34.3337 33.2673 34.5372 28.8224 34.899V36.0182H37.9053V31.3378V24.5544V15.0691C37.9053 11.6322 38.4437 11.474 42.3502 11.1461V10.0269H29.2642Z" fill="#142E3F"/>
<path d="M52.2475 36.0069V30.2524C52.2475 33.2032 49.5005 35.6452 45.9254 36.0069H52.2475Z" fill="#142E3F"/>
<path d="M79.2477 34.8878V36.0183H67.197V34.8878C70.3718 34.5486 70.7445 34.1529 70.0406 32.6493C69.2261 30.8517 67.1556 26.2503 67.1141 26.0129C67.0313 25.7416 62.3104 14.6735 62.3104 14.6735C60.723 18.1443 59.0941 21.7734 57.6309 24.905C57.6309 24.9389 56.8993 26.5669 56.8993 26.5669C56.8165 26.8043 56.6923 26.9965 56.6095 27.2L55.4637 24.6337L62.6693 9.66515L64.2568 9.42773C67.3074 16.2563 70.6893 23.831 73.7814 30.7612C75.3412 34.2546 75.7829 34.5599 79.2477 34.8878Z" fill="#142E3F"/>
<path d="M90.4781 11.4067C91.3651 11.9247 92.0349 12.581 92.4615 13.4517V13.4526C92.7795 14.1207 93.1117 14.8124 93.444 15.4927L93.5817 15.7729H93.6031C93.6645 15.9041 93.7255 16.0351 93.7867 16.1646L94.1012 16.8374L94.1061 16.8472C95.3785 19.4821 96.6666 22.1934 97.9586 24.9526L99.2516 27.7271L99.2535 27.7319C99.7093 28.6877 100.165 29.6407 100.618 30.5825L101.961 33.3647L102.271 33.9858C102.402 34.2401 102.53 34.4746 102.659 34.6909C101.774 34.1732 101.106 33.5183 100.68 32.6489H100.681C100.363 31.9809 100.031 31.29 99.6989 30.6099L99.5612 30.3296H99.5397C99.4782 30.1982 99.4175 30.0667 99.3561 29.937L99.0416 29.2642L99.0367 29.2554L97.7594 26.5952C96.905 24.8067 96.0455 22.9884 95.1842 21.1489L93.8912 18.3745L93.8893 18.3696L92.526 15.52L91.1823 12.7368L91.1813 12.7349L90.8717 12.1187C90.7387 11.8619 90.6087 11.6253 90.4781 11.4067Z" fill="#142E3F" stroke="#142E3F"/>
<path d="M111.477 10.5273V10.7002C110.174 10.8251 109.18 11 108.485 11.3779C108.078 11.5993 107.763 11.8947 107.546 12.2881C107.333 12.6734 107.232 13.1208 107.198 13.6221V13.6309L107.197 13.6396C107.156 14.9251 107.031 16.6189 107.031 20.3262V35.5293H105.877L105.837 20.3252C105.837 16.6365 105.755 14.8749 105.586 13.6396C105.554 13.1493 105.449 12.699 105.213 12.3066C104.97 11.9031 104.614 11.6015 104.149 11.376C103.332 10.9788 102.119 10.793 100.426 10.6865V10.5273H111.477ZM87.5684 10.5156V25.459C87.5684 26.3726 87.5681 27.2181 87.6094 27.9326V27.9336C87.6301 28.9529 87.6721 29.7734 87.7139 30.4434L87.8174 32.0508V32.0576C87.8512 32.6117 87.9614 33.1084 88.1924 33.5381C88.427 33.9746 88.7703 34.3126 89.2207 34.5703C90.0087 35.0212 91.142 35.2318 92.6484 35.3516V35.5186H81.8047V35.3496C83.0861 35.2374 84.086 35.0293 84.8086 34.5918C85.6192 34.1009 86.0238 33.3623 86.166 32.3721L86.1914 32.1699V32.167C86.3175 30.8813 86.4424 29.0556 86.4424 25.4141V15.2158C86.4424 14.6401 86.4124 14.131 86.2471 13.6416C86.0795 13.1458 85.7873 12.7105 85.3301 12.2432H85.3311C84.3318 11.156 83.209 10.8868 81.1143 10.6904V10.5156H87.5684Z" fill="#142E3F" stroke="#142E3F"/>
<path d="M271.446 11.4067C272.333 11.9247 273.003 12.581 273.429 13.4517V13.4526C273.747 14.1207 274.079 14.8124 274.412 15.4927L274.549 15.7729H274.571C274.632 15.9041 274.693 16.0351 274.754 16.1646L275.069 16.8374L275.074 16.8472C276.346 19.4821 277.634 22.1934 278.926 24.9526L280.219 27.7271L280.221 27.7319C280.677 28.6877 281.133 29.6407 281.585 30.5825L282.928 33.3647L283.239 33.9858C283.37 34.2401 283.498 34.4746 283.626 34.6909C282.742 34.1732 282.074 33.5183 281.648 32.6489H281.649C281.331 31.9809 280.999 31.29 280.667 30.6099L280.529 30.3296H280.507C280.446 30.1982 280.385 30.0667 280.324 29.937L280.009 29.2642L280.004 29.2554L278.727 26.5952C277.873 24.8067 277.013 22.9884 276.152 21.1489L274.859 18.3745L274.857 18.3696L273.494 15.52L272.15 12.7368L272.149 12.7349L271.839 12.1187C271.706 11.8619 271.576 11.6253 271.446 11.4067Z" fill="#142E3F" stroke="#142E3F"/>
<path d="M292.458 10.5273V10.7002C291.155 10.8251 290.162 11 289.467 11.3779C289.06 11.5993 288.744 11.8947 288.527 12.2881C288.315 12.6734 288.214 13.1209 288.18 13.6221V13.6309L288.179 13.6396C288.138 14.9251 288.014 16.6189 288.014 20.3262V35.5293H286.858L286.818 20.3252C286.818 16.6365 286.736 14.8749 286.567 13.6396C286.535 13.1493 286.43 12.699 286.194 12.3066C285.951 11.9031 285.595 11.6015 285.131 11.376C284.313 10.9788 283.101 10.793 281.407 10.6865V10.5273H292.458ZM268.536 10.5156V25.459C268.536 26.3726 268.536 27.2181 268.577 27.9326V27.9336C268.598 28.9529 268.64 29.7734 268.682 30.4434L268.785 32.0508V32.0576C268.819 32.6124 268.931 33.1093 269.163 33.5391C269.399 33.9754 269.743 34.3129 270.194 34.5703C270.983 35.0207 272.115 35.2318 273.616 35.3516V35.5186H262.772V35.3496C264.054 35.2374 265.054 35.0293 265.776 34.5918C266.587 34.1009 266.992 33.3623 267.134 32.3721L267.159 32.1699V32.167C267.285 30.8813 267.41 29.0556 267.41 25.4141V15.2158C267.41 14.6401 267.38 14.131 267.215 13.6416C267.046 13.1418 266.751 12.7031 266.287 12.2314H266.286C265.29 11.1549 264.169 10.886 262.082 10.6904V10.5156H268.536Z" fill="#142E3F" stroke="#142E3F"/>
<path d="M139.032 10.0269V11.1574C143.063 11.4627 143.504 11.7566 143.504 15.0917V28.5905C143.504 31.9256 143.421 34.2546 143.021 36.1539C142.455 38.4828 140.909 40.3256 138.135 41.4562L138.908 42.6546C140.205 42.1571 141.834 41.524 143.421 40.3256C146.721 37.9289 147.742 35.159 147.742 29.8906V15.0917C147.742 11.7566 148.142 11.4966 151.938 11.1574V10.0269H139.032Z" fill="#142E3F"/>
<path d="M172.368 9.45068C162.07 9.45068 155.845 16.087 155.845 23.2547C155.845 30.7842 162.678 36.6178 172.051 36.6178C181.051 36.6178 188.173 31.2477 188.173 22.6555C188.16 14.6851 180.719 9.45068 172.368 9.45068ZM172.865 35.0916C165.908 35.0916 160.939 29.6197 160.939 22.192C160.939 14.6964 165.908 10.9543 171.402 10.9543C177.793 10.9543 183.204 15.3861 183.204 23.7861C183.204 31.4851 178.759 35.0916 172.865 35.0916Z" fill="#142E3F"/>
<path d="M205.108 10.5156V10.6738C204.344 10.7195 203.706 10.7763 203.184 10.877C202.556 10.9978 202.031 11.1918 201.636 11.5605C201.234 11.9363 201.029 12.4345 200.919 13.0303C200.811 13.6173 200.787 14.3519 200.787 15.25V25.2559C200.787 28.2681 201.659 30.6709 203.356 32.3184C205.051 33.9637 207.501 34.7881 210.522 34.7881C214.057 34.7881 216.51 33.8946 218.056 32.0273C219.583 30.1826 220.132 27.4935 220.132 24.125V20.0547C220.132 17.2924 220.038 15.7277 219.956 14.6689L219.882 13.7529V13.7461L219.834 13.3818C219.772 13.026 219.666 12.6938 219.493 12.3926C219.26 11.985 218.923 11.6622 218.478 11.4141C217.694 10.978 216.559 10.7677 214.997 10.6816V10.5273H225.772V10.6846C224.45 10.7721 223.443 10.9786 222.733 11.4121C221.933 11.9003 221.569 12.6327 221.469 13.5684L221.452 13.7578L221.451 13.7686C221.41 14.6674 221.327 16.3825 221.327 20.0547V24.3848C221.327 28.2845 220.749 31.1696 218.318 33.4238L218.083 33.6328C215.9 35.4527 212.747 36.0498 209.404 36.0498C206.795 36.0498 204.051 35.6435 202.043 34.5283L201.652 34.2959L201.648 34.2939L201.39 34.1279C200.125 33.2864 199.198 32.2532 198.573 30.9326C197.902 29.5158 197.563 27.7355 197.563 25.4473V15.25C197.563 14.349 197.538 13.6164 197.429 13.0332C197.318 12.4402 197.11 11.9482 196.705 11.5781C196.31 11.2166 195.786 11.0269 195.162 10.9043C194.641 10.8018 194.005 10.7381 193.242 10.6807V10.5156H205.108Z" fill="#142E3F" stroke="#142E3F"/>
<path d="M241.414 10.5269C244.747 10.5269 246.975 10.8555 248.659 11.6655L248.989 11.8345L248.997 11.8384C250.861 12.807 252.068 14.4491 252.068 16.6636C252.068 19.7569 249.654 21.8082 246.095 23.0542L245.473 23.271L245.85 23.812C246.744 25.0944 248.839 27.774 250.303 29.5728L250.691 29.2573L250.303 29.5737L250.312 29.5835C252.143 31.7148 253.05 32.75 254.228 33.7729V33.772C255.429 34.8191 256.507 35.302 257.593 35.605L257.551 35.8296C257.086 35.8194 256.666 35.7946 256.157 35.7681H256.158C254.419 35.6679 253.123 35.4301 252.011 34.939C251.043 34.5117 250.186 33.8796 249.288 32.9282L248.901 32.5015L248.899 32.4995L248.234 31.7212C246.69 29.8642 245.199 27.7367 243.787 25.9263H243.788C243.278 25.2491 242.81 24.7751 242.094 24.5034C241.413 24.2451 240.553 24.1899 239.317 24.1899H237.105V30.9868C237.105 31.8317 237.137 32.5237 237.26 33.0786C237.386 33.6485 237.617 34.1124 238.037 34.4595C238.442 34.7938 238.971 34.975 239.599 35.0991C240.127 35.2035 240.769 35.2742 241.536 35.3442V35.5181H229.505V35.3423C230.296 35.2678 230.949 35.1953 231.478 35.0894C232.102 34.9643 232.623 34.7829 233.014 34.4429C233.42 34.0898 233.623 33.6213 233.73 33.0601C233.833 32.5126 233.854 31.8258 233.854 30.9868V15.0239C233.854 14.1708 233.822 13.4773 233.7 12.9243C233.576 12.3566 233.347 11.8968 232.93 11.5552C232.529 11.2266 232.006 11.0529 231.392 10.9351C230.877 10.8364 230.25 10.7722 229.505 10.7036V10.5269H241.414ZM240.752 10.9292C240.019 10.9292 239.421 10.9686 238.954 11.0435C238.561 11.1065 238.214 11.2016 237.956 11.3511L237.89 11.3931C237.566 11.5838 237.344 11.8487 237.219 12.2349C237.107 12.5826 237.077 13.0187 237.077 13.5542V23.8218H239.897C242.488 23.8217 244.203 23.5179 245.547 22.605L245.546 22.604C246.558 21.9857 247.294 21.2395 247.773 20.3384C248.253 19.4333 248.457 18.4068 248.457 17.2622C248.457 14.9734 247.516 13.3588 246.043 12.3364C244.596 11.3321 242.681 10.9292 240.752 10.9292Z" fill="#142E3F" stroke="#142E3F"/>
<path d="M334.063 10.5269V10.7153C333.383 10.8029 332.844 10.8974 332.428 11.0093C331.949 11.1383 331.531 11.3141 331.285 11.6196C330.991 11.9843 331.033 12.3961 331.155 12.7271C331.24 12.9591 331.383 13.2068 331.541 13.4556L331.701 13.7036L331.704 13.7075C333.734 16.753 336.028 20.383 338.099 23.3804L338.521 23.9907L338.928 23.3706C340.684 20.6984 343.461 16.3308 344.842 14.1245L344.847 14.1167L344.852 14.1079C345.136 13.612 345.374 13.1587 345.478 12.7632C345.589 12.3411 345.57 11.8864 345.212 11.522C344.908 11.2137 344.428 11.0504 343.877 10.937C343.397 10.8384 342.787 10.7643 342.034 10.6978V10.5269H352.035V10.7036C350.587 10.8503 349.608 11.0489 348.775 11.5269C347.976 11.9855 347.349 12.6802 346.554 13.6987L346.202 14.1548L346.199 14.1597C343.995 17.111 342.19 19.8857 339.795 23.4146L339.788 23.4243L339.782 23.4351C339.493 23.9084 339.285 24.3001 339.154 24.7134C339.021 25.1333 338.977 25.5473 338.977 26.0581V30.9868C338.977 31.8113 339.004 32.4969 339.131 33.0503C339.263 33.6239 339.511 34.09 339.965 34.437C340.399 34.7677 340.973 34.9524 341.674 35.0815C342.282 35.1933 343.032 35.2702 343.946 35.3472V35.5181H330.949V35.3354C331.843 35.2401 332.575 35.1559 333.164 35.0425C333.842 34.9118 334.399 34.7336 334.818 34.4097C335.26 34.0676 335.493 33.6086 335.614 33.0435C335.731 32.4991 335.753 31.817 335.753 30.9868V25.8208C335.753 25.3686 335.691 25.0069 335.51 24.5952C335.384 24.3068 335.2 23.9974 334.955 23.6187L334.689 23.2153C333.414 21.2631 332.155 19.3669 330.486 16.9517L328.663 14.3403C327.718 12.9926 327.062 12.1013 326.19 11.5464C325.388 11.0363 324.446 10.8351 323.053 10.7007V10.5269H334.063Z" fill="#142E3F" stroke="#142E3F"/>
<path d="M365.621 9.96191C368.03 9.96191 370.388 10.4341 371.606 10.6572C371.692 11.264 371.782 11.9142 371.883 12.6709C371.988 13.46 372.111 14.3618 372.264 15.4434L371.667 15.5371C371.266 14.3257 370.699 13.0923 369.702 12.1328C368.574 11.0475 366.953 10.3643 364.572 10.3643C362.551 10.3643 361.125 10.9716 360.206 11.9229C359.293 12.8678 358.938 14.0934 358.938 15.2275C358.938 16.771 359.539 17.9468 360.673 18.9404C361.776 19.9074 363.39 20.7067 365.426 21.5547V21.5557C368.359 22.8049 370.385 23.8594 371.679 25.041C372.859 26.1189 373.432 27.3052 373.494 28.8984L373.5 29.2217V29.2236C373.5 31.1323 372.5 32.8426 370.71 34.0938C368.915 35.3487 366.335 36.1289 363.261 36.1289C360.516 36.1289 358.135 35.5003 356.204 34.8945C355.854 33.7892 355.389 31.6131 355.045 29.6865L355.699 29.5576C356.209 30.8353 356.986 32.268 358.223 33.4219C359.602 34.7091 361.525 35.625 364.199 35.625C366.046 35.625 367.583 35.0978 368.667 34.1816C369.756 33.2613 370.359 31.9713 370.359 30.5244C370.359 28.8542 369.804 27.6438 368.665 26.6143C367.704 25.7453 366.328 25.0093 364.573 24.1943L363.798 23.8389L363.794 23.8379L362.861 23.416C360.754 22.4435 359.127 21.5315 357.991 20.5068C356.719 19.3592 356.072 18.0809 356.072 16.3926C356.072 13.2295 359.324 9.96196 365.621 9.96191Z" fill="#142E3F" stroke="#142E3F"/>
<path d="M0.690312 10.0271V11.1576C4.34832 11.4289 4.88666 11.6211 4.88666 15.1937V30.9988C4.88666 34.2661 4.55537 34.6279 0.00012207 34.8992V36.0298H9.11063V10.0271H0.690312ZM18.8423 0.654785L10.7395 6.79368L11.7195 7.78857L22.2656 3.1533L22.3071 2.82544C21.8101 2.22625 19.8638 0.858284 18.8423 0.654785Z" fill="#142E3F"/>
<path d="M22.6522 10.0498V15.8043C22.6522 12.8536 19.9052 10.4116 16.33 10.0498H22.6522Z" fill="#142E3F"/>
<path d="M25.827 36.0074V30.2529C25.827 33.2037 23.0801 35.6457 19.5049 36.0074H25.827Z" fill="#142E3F"/>
<path d="M14.3285 22.4972C17.9037 22.859 20.6506 25.301 20.6506 28.2517V22.4972V16.7427C20.6644 19.6934 17.9037 22.1354 14.3285 22.4972Z" fill="#142E3F"/>
<path d="M305.337 10.5269V35.5298H297.226V35.3667C298.146 35.306 298.897 35.2374 299.502 35.1265C300.203 34.998 300.771 34.8056 301.194 34.4595C301.636 34.0989 301.862 33.6207 301.979 33.0493C302.093 32.4953 302.113 31.8116 302.113 30.9985V15.1938C302.113 14.2977 302.08 13.5717 301.962 12.9937C301.841 12.4055 301.622 11.9247 301.22 11.5649C300.826 11.2135 300.313 11.0287 299.713 10.9097C299.218 10.8116 298.621 10.7501 297.917 10.6938V10.5269H305.337Z" fill="#142E3F" stroke="#142E3F"/>
<path d="M318.879 10.5493V12.6948C318.273 11.8258 317.421 11.0932 316.411 10.5493H318.879Z" fill="#142E3F" stroke="#142E3F"/>
<path d="M322.053 35.5073H319.586C320.596 34.9634 321.447 34.2301 322.053 33.3608V35.5073Z" fill="#142E3F" stroke="#142E3F"/>
<path d="M316.877 25.1416C316.058 23.9675 314.792 23.0416 313.289 22.4961C314.792 21.9504 316.058 21.025 316.877 19.8506V25.1416Z" fill="#142E3F" stroke="#142E3F"/>
<path d="M172.007 19.2231C172.743 20.8104 174.234 22.0652 176.088 22.7368C174.236 23.4116 172.744 24.6657 172.008 26.2485C171.271 24.6636 169.778 23.4078 167.921 22.7339C169.776 22.0603 171.27 20.8067 172.007 19.2231Z" fill="#142E3F" stroke="#142E3F"/>
</svg>
