<svg width="374" height="43" viewBox="0 0 374 43" fill="none" xmlns="http://www.w3.org/2000/svg">
<path d="M29.2659 10.1819V11.3011C33.1724 11.6177 33.6555 11.8212 33.6555 15.2241V31.0971C33.6555 34.4887 33.269 34.6922 28.8242 35.054V36.1733H37.9071V31.4928V24.7095V15.2241C37.9071 11.7873 38.4455 11.629 42.3519 11.3011V10.1819H29.2659Z" fill="#F6FBFC"/>
<path d="M52.2479 36.162V30.4075C52.2479 33.3582 49.501 35.8002 45.9258 36.162H52.2479Z" fill="#F6FBFC"/>
<path d="M79.2488 35.0428V36.1733H67.1981V35.0428C70.3729 34.7036 70.7456 34.3079 70.0416 32.8043C69.2272 31.0067 67.1567 26.4054 67.1152 26.168C67.0324 25.8966 62.3115 14.8285 62.3115 14.8285C60.7241 18.2993 59.0952 21.9284 57.632 25.06C57.632 25.0939 56.9004 26.7219 56.9004 26.7219C56.8176 26.9593 56.6934 27.1515 56.6106 27.355L55.4648 24.7887L62.6704 9.82018L64.2579 9.58276C67.3085 16.4113 70.6904 23.986 73.7825 30.9163C75.3423 34.4097 75.784 34.7149 79.2488 35.0428Z" fill="#F6FBFC"/>
<path d="M90.4775 11.5615C91.3645 12.0795 92.0342 12.7358 92.4609 13.6064V13.6074C92.7789 14.2755 93.1111 14.9672 93.4434 15.6475L93.5811 15.9277H93.6025C93.6639 16.0589 93.7249 16.1898 93.7861 16.3193L94.1006 16.9922L94.1055 17.002C95.3779 19.6369 96.666 22.3482 97.958 25.1074L99.251 27.8818L99.2529 27.8867C99.7087 28.8425 100.165 29.7954 100.617 30.7373L101.96 33.5195L102.271 34.1406C102.402 34.3949 102.529 34.6294 102.658 34.8457C101.774 34.328 101.105 33.6731 100.68 32.8037H100.681C100.363 32.1357 100.03 31.4448 99.6982 30.7646L99.5605 30.4844H99.5391C99.4776 30.353 99.4168 30.2215 99.3555 30.0918L99.041 29.4189L99.0361 29.4102L97.7588 26.75C96.9044 24.9615 96.0449 23.1432 95.1836 21.3037L93.8906 18.5293L93.8887 18.5244L92.5254 15.6748L91.1816 12.8916L91.1807 12.8896L90.8711 12.2734C90.7381 12.0167 90.6081 11.7801 90.4775 11.5615Z" fill="#F6FBFC" stroke="#F6FBFC"/>
<path d="M111.476 10.6821V10.855C110.173 10.9799 109.179 11.1548 108.484 11.5327C108.077 11.754 107.762 12.0495 107.545 12.4429C107.332 12.8282 107.231 13.2756 107.197 13.7769V13.7856L107.196 13.7944C107.155 15.0799 107.03 16.7737 107.03 20.481V35.6841H105.876L105.836 20.48C105.836 16.7913 105.754 15.0297 105.585 13.7944C105.553 13.304 105.448 12.8537 105.212 12.4614C104.969 12.0579 104.613 11.7563 104.148 11.5308C103.331 11.1336 102.118 10.9478 100.425 10.8413V10.6821H111.476ZM87.5674 10.6704V25.6138C87.5674 26.5274 87.5671 27.3729 87.6084 28.0874V28.0884C87.6291 29.1077 87.6712 29.9281 87.7129 30.5981L87.8164 32.2056V32.2124C87.8502 32.7665 87.9604 33.2632 88.1914 33.6929C88.4261 34.1294 88.7693 34.4673 89.2197 34.7251C90.0077 35.176 91.141 35.3866 92.6475 35.5063V35.6733H81.8037V35.5044C83.0851 35.3922 84.085 35.1841 84.8076 34.7466C85.6182 34.2557 86.0229 33.5171 86.165 32.5269L86.1904 32.3247V32.3218C86.3166 31.0361 86.4414 29.2104 86.4414 25.5688V15.3706C86.4414 14.7949 86.4115 14.2858 86.2461 13.7964C86.0785 13.3006 85.7863 12.8653 85.3291 12.3979H85.3301C84.3308 11.3108 83.208 11.0416 81.1133 10.8452V10.6704H87.5674Z" fill="#F6FBFC" stroke="#F6FBFC"/>
<path d="M271.446 11.5615C272.333 12.0795 273.003 12.7358 273.43 13.6064V13.6074C273.748 14.2755 274.08 14.9672 274.412 15.6475L274.55 15.9277H274.571C274.633 16.0589 274.694 16.1898 274.755 16.3193L275.069 16.9922L275.074 17.002C276.347 19.6369 277.635 22.3482 278.927 25.1074L280.22 27.8818L280.222 27.8867C280.677 28.8425 281.134 29.7954 281.586 30.7373L282.929 33.5195L283.239 34.1406C283.37 34.3949 283.498 34.6294 283.627 34.8457C282.743 34.328 282.074 33.6731 281.648 32.8037H281.649C281.331 32.1357 280.999 31.4448 280.667 30.7646L280.529 30.4844H280.508C280.446 30.353 280.386 30.2215 280.324 30.0918L280.01 29.4189L280.005 29.4102L278.728 26.75C277.873 24.9615 277.014 23.1432 276.152 21.3037L274.859 18.5293L274.857 18.5244L273.494 15.6748L272.15 12.8916L272.149 12.8896L271.84 12.2734C271.707 12.0167 271.577 11.7801 271.446 11.5615Z" fill="#F6FBFC" stroke="#F6FBFC"/>
<path d="M292.458 10.6821V10.855C291.155 10.9799 290.162 11.1548 289.467 11.5327C289.06 11.754 288.744 12.0495 288.527 12.4429C288.315 12.8282 288.214 13.2756 288.18 13.7769V13.7856L288.179 13.7944C288.138 15.0799 288.014 16.7737 288.014 20.481V35.6841H286.858L286.818 20.48C286.818 16.7912 286.737 15.0297 286.567 13.7944C286.535 13.304 286.43 12.8537 286.194 12.4614C285.952 12.0579 285.595 11.7563 285.131 11.5308C284.313 11.1336 283.101 10.9478 281.407 10.8413V10.6821H292.458ZM268.536 10.6704V25.6138C268.536 26.5274 268.536 27.3729 268.577 28.0874V28.0884C268.598 29.1077 268.64 29.9281 268.682 30.5981L268.785 32.2056V32.2124C268.819 32.7672 268.931 33.2641 269.163 33.6938C269.399 34.1302 269.743 34.4677 270.194 34.7251C270.983 35.1755 272.115 35.3866 273.616 35.5063V35.6733H262.772V35.5044C264.054 35.3922 265.054 35.1841 265.776 34.7466C266.587 34.2557 266.992 33.5171 267.134 32.5269L267.159 32.3247V32.3218C267.285 31.0361 267.41 29.2104 267.41 25.5688V15.3706C267.41 14.7949 267.38 14.2858 267.215 13.7964C267.046 13.2965 266.751 12.8579 266.287 12.3862H266.286C265.29 11.3096 264.169 11.0408 262.082 10.8452V10.6704H268.536Z" fill="#F6FBFC" stroke="#F6FBFC"/>
<path d="M139.03 10.1819V11.3124C143.061 11.6177 143.502 11.9116 143.502 15.2468V28.7455C143.502 32.0807 143.42 34.4096 143.019 36.3089C142.453 38.6379 140.907 40.4807 138.133 41.6112L138.906 42.8096C140.203 42.3122 141.832 41.6791 143.42 40.4807C146.719 38.0839 147.74 35.314 147.74 30.0457V15.2468C147.74 11.9116 148.141 11.6516 151.937 11.3124V10.1819H139.03Z" fill="#F6FBFC"/>
<path d="M172.367 9.60522C162.069 9.60522 155.844 16.2416 155.844 23.4093C155.844 30.9387 162.677 36.7724 172.049 36.7724C181.049 36.7724 188.172 31.4023 188.172 22.8101C188.158 14.8397 180.718 9.60522 172.367 9.60522ZM172.864 35.2461C165.907 35.2461 160.937 29.7743 160.937 22.3465C160.937 14.851 165.907 11.1089 171.401 11.1089C177.792 11.1089 183.203 15.5406 183.203 23.9406C183.203 31.6397 178.758 35.2461 172.864 35.2461Z" fill="#F6FBFC"/>
<path d="M205.107 10.6707V10.8289C204.344 10.8745 203.706 10.9313 203.184 11.032C202.556 11.1529 202.031 11.3468 201.636 11.7156C201.233 12.0913 201.028 12.5896 200.919 13.1853C200.811 13.7724 200.787 14.5069 200.787 15.405V25.4109C200.787 28.4232 201.658 30.8259 203.355 32.4734C205.051 34.1187 207.5 34.9431 210.521 34.9431C214.057 34.9431 216.51 34.0496 218.056 32.1824C219.583 30.3376 220.132 27.6486 220.132 24.28V20.2097C220.132 17.4474 220.038 15.8827 219.956 14.824L219.882 13.908V13.9011L219.834 13.5369C219.772 13.181 219.665 12.8489 219.493 12.5476C219.26 12.14 218.923 11.8172 218.478 11.5691C217.694 11.133 216.559 10.9227 214.997 10.8367V10.6824H225.771V10.8396C224.449 10.9271 223.443 11.1337 222.732 11.5671C221.932 12.0554 221.568 12.7878 221.469 13.7234L221.452 13.9128L221.451 13.9236C221.409 14.8225 221.327 16.5375 221.327 20.2097V24.5398C221.327 28.4395 220.749 31.3247 218.317 33.5789L218.083 33.7878C215.9 35.6077 212.747 36.2048 209.403 36.2048C206.794 36.2048 204.051 35.7986 202.043 34.6833L201.651 34.4509L201.647 34.449L201.39 34.283C200.124 33.4414 199.198 32.4082 198.572 31.0876C197.902 29.6708 197.562 27.8905 197.562 25.6023V15.405C197.562 14.504 197.538 13.7714 197.429 13.1882C197.318 12.5953 197.11 12.1032 196.705 11.7332C196.31 11.3716 195.785 11.182 195.162 11.0593C194.641 10.9568 194.004 10.8931 193.242 10.8357V10.6707H205.107Z" fill="#F6FBFC" stroke="#F6FBFC"/>
<path d="M241.413 10.6819C244.746 10.6819 246.974 11.0105 248.658 11.8206L248.988 11.9895L248.996 11.9934C250.86 12.962 252.067 14.6041 252.067 16.8186C252.067 19.9119 249.653 21.9632 246.094 23.2092L245.472 23.426L245.849 23.967C246.743 25.2494 248.838 27.929 250.302 29.7278L250.689 29.4124L250.302 29.7288L250.311 29.7385C252.142 31.8698 253.049 32.905 254.227 33.928V33.927C255.428 34.9741 256.506 35.4571 257.592 35.76L257.55 35.9846C257.085 35.9745 256.665 35.9497 256.156 35.9231H256.157C254.417 35.8229 253.122 35.5851 252.01 35.094C251.042 34.6667 250.185 34.0346 249.287 33.0833L248.899 32.6565L248.897 32.6545L248.232 31.8762C246.689 30.0192 245.198 27.8917 243.786 26.0813H243.787C243.277 25.4041 242.809 24.9301 242.093 24.6584C241.411 24.4001 240.552 24.345 239.315 24.345H237.104V31.1418C237.104 31.9867 237.136 32.6787 237.259 33.2336C237.385 33.8035 237.616 34.2674 238.036 34.6145C238.441 34.9488 238.97 35.1301 239.598 35.2542C240.126 35.3586 240.768 35.4292 241.535 35.4993V35.6731H229.504V35.4973C230.294 35.4228 230.948 35.3503 231.477 35.2444C232.101 35.1193 232.622 34.9379 233.013 34.5979C233.419 34.2448 233.622 33.7763 233.729 33.2151C233.832 32.6676 233.853 31.9808 233.853 31.1418V15.179C233.853 14.3258 233.821 13.6323 233.699 13.0793C233.574 12.5117 233.346 12.0519 232.929 11.7102C232.528 11.3816 232.005 11.2079 231.391 11.0901C230.876 10.9914 230.249 10.9272 229.504 10.8586V10.6819H241.413ZM240.751 11.0842C240.018 11.0842 239.42 11.1236 238.953 11.1985C238.56 11.2616 238.213 11.3567 237.955 11.5061L237.889 11.5481C237.565 11.7388 237.343 12.0037 237.218 12.3899C237.105 12.7377 237.076 13.1737 237.076 13.7092V23.9768H239.896C242.487 23.9768 244.202 23.673 245.546 22.76L245.545 22.759C246.557 22.1407 247.293 21.3946 247.771 20.4934C248.252 19.5883 248.456 18.5618 248.456 17.4172C248.456 15.1284 247.515 13.5138 246.042 12.4915C244.595 11.4871 242.68 11.0842 240.751 11.0842Z" fill="#F6FBFC" stroke="#F6FBFC"/>
<path d="M334.064 10.6819V10.8704C333.384 10.9579 332.845 11.0524 332.43 11.1643C331.95 11.2933 331.533 11.4691 331.286 11.7747C330.992 12.1394 331.035 12.5512 331.156 12.8821C331.242 13.1141 331.384 13.3618 331.542 13.6106L331.702 13.8586L331.705 13.8625C333.736 16.9081 336.029 20.538 338.101 23.5354L338.522 24.1458L338.93 23.5256C340.685 20.8534 343.462 16.4858 344.844 14.2795L344.849 14.2717L344.854 14.2629C345.137 13.7671 345.375 13.3137 345.479 12.9182C345.591 12.4962 345.572 12.0414 345.213 11.677C344.909 11.3688 344.429 11.2055 343.878 11.092C343.398 10.9935 342.788 10.9193 342.035 10.8528V10.6819H352.036V10.8586C350.588 11.0054 349.609 11.2039 348.776 11.6819C347.977 12.1405 347.351 12.8352 346.556 13.8538L346.203 14.3098L346.2 14.3147C343.997 17.266 342.191 20.0408 339.796 23.5696L339.789 23.5793L339.783 23.5901C339.494 24.0634 339.286 24.4551 339.155 24.8684C339.022 25.2883 338.979 25.7023 338.979 26.2131V31.1418C338.979 31.9664 339.006 32.652 339.133 33.2053C339.265 33.779 339.512 34.245 339.967 34.592C340.4 34.9228 340.974 35.1074 341.676 35.2366C342.283 35.3484 343.034 35.4252 343.947 35.5022V35.6731H330.95V35.4905C331.845 35.3952 332.577 35.3109 333.165 35.1975C333.843 35.0668 334.4 34.8886 334.819 34.5647C335.262 34.2226 335.494 33.7636 335.615 33.1985C335.732 32.6542 335.754 31.9721 335.754 31.1418V25.9758C335.754 25.5236 335.693 25.1619 335.512 24.7502C335.385 24.4618 335.201 24.1524 334.956 23.7737L334.69 23.3704C333.416 21.4181 332.156 19.522 330.487 17.1067L328.664 14.4954C327.719 13.1476 327.064 12.2564 326.191 11.7014C325.39 11.1914 324.448 10.9901 323.055 10.8557V10.6819H334.064Z" fill="#F6FBFC" stroke="#F6FBFC"/>
<path d="M365.622 10.1165C368.031 10.1165 370.389 10.5886 371.607 10.8118C371.693 11.4186 371.783 12.0687 371.884 12.8254C371.989 13.6145 372.112 14.5163 372.265 15.5979L371.668 15.6917C371.267 14.4803 370.7 13.2468 369.703 12.2874C368.575 11.202 366.954 10.5188 364.573 10.5188C362.552 10.5188 361.126 11.1261 360.207 12.0774C359.294 13.0224 358.939 14.2479 358.938 15.3821C358.938 16.9255 359.54 18.1013 360.674 19.095C361.777 20.062 363.391 20.8612 365.427 21.7092V21.7102C368.36 22.9594 370.386 24.0139 371.68 25.1956C372.86 26.2735 373.433 27.4598 373.495 29.053L373.501 29.3762V29.3782C373.501 31.2869 372.501 32.9971 370.711 34.2483C368.916 35.5032 366.336 36.2834 363.262 36.2834C360.517 36.2834 358.136 35.6549 356.205 35.0491C355.855 33.9438 355.39 31.7677 355.046 29.8411L355.7 29.7122C356.21 30.9899 356.987 32.4225 358.224 33.5764C359.603 34.8637 361.526 35.7795 364.2 35.7795C366.047 35.7795 367.584 35.2524 368.668 34.3362C369.757 33.4158 370.36 32.1259 370.36 30.679C370.36 29.0087 369.805 27.7983 368.666 26.7688C367.705 25.8998 366.329 25.1639 364.574 24.3489L363.799 23.9934L363.795 23.9924L362.862 23.5706C360.755 22.598 359.128 21.686 357.992 20.6614C356.72 19.5138 356.073 18.2355 356.073 16.5471C356.073 13.384 359.325 10.1165 365.622 10.1165Z" fill="#F6FBFC" stroke="#F6FBFC"/>
<path d="M0.69019 10.1818V11.3124C4.3482 11.5837 4.88654 11.7759 4.88654 15.3485V31.1536C4.88654 34.4209 4.55525 34.7827 0 35.054V36.1845H9.1105V10.1818H0.69019ZM18.8422 0.80957L10.7394 6.94847L11.7194 7.94335L22.2655 3.30809L22.3069 2.98023C21.81 2.38104 19.8637 1.01307 18.8422 0.80957Z" fill="#F6FBFC"/>
<path d="M22.6503 10.2043V15.9589C22.6503 13.0081 19.9033 10.5661 16.3281 10.2043H22.6503Z" fill="#F6FBFC"/>
<path d="M25.826 36.1617V30.4072C25.826 33.358 23.0791 35.8 19.5039 36.1617H25.826Z" fill="#F6FBFC"/>
<path d="M14.3281 22.6517C17.9033 23.0135 20.6503 25.4555 20.6503 28.4062V22.6517V16.8972C20.6641 19.848 17.9033 22.2899 14.3281 22.6517Z" fill="#F6FBFC"/>
<path d="M305.337 10.6819V35.6848H297.227V35.5217C298.147 35.461 298.897 35.3924 299.502 35.2815C300.203 35.153 300.771 34.9606 301.194 34.6145C301.636 34.2539 301.862 33.7757 301.979 33.2043C302.093 32.6503 302.113 31.9666 302.113 31.1536V15.3489C302.113 14.4527 302.08 13.7268 301.962 13.1487C301.841 12.5605 301.622 12.0797 301.22 11.72C300.826 11.3686 300.313 11.1837 299.713 11.0647C299.218 10.9666 298.621 10.9051 297.917 10.8489V10.6819H305.337Z" fill="#F6FBFC" stroke="#F6FBFC"/>
<path d="M318.877 10.7043V12.8499C318.271 11.9808 317.42 11.2482 316.409 10.7043H318.877Z" fill="#F6FBFC" stroke="#F6FBFC"/>
<path d="M322.053 35.6624H319.585C320.596 35.1184 321.447 34.3851 322.053 33.5159V35.6624Z" fill="#F6FBFC" stroke="#F6FBFC"/>
<path d="M316.877 25.2969C316.058 24.1227 314.792 23.1969 313.289 22.6514C314.792 22.1057 316.058 21.1803 316.877 20.0059V25.2969Z" fill="#F6FBFC" stroke="#F6FBFC"/>
<path d="M172.008 19.3779C172.743 20.9652 174.235 22.22 176.089 22.8916C174.236 23.5664 172.745 24.8205 172.009 26.4033C171.272 24.8184 169.778 23.5626 167.922 22.8887C169.777 22.2151 171.27 20.9615 172.008 19.3779Z" fill="#F6FBFC" stroke="#F6FBFC"/>
</svg>
