<svg width="32" height="31" viewBox="0 0 32 31" fill="none" xmlns="http://www.w3.org/2000/svg">
<path d="M30.8992 15.771C30.8992 24.0553 24.1834 30.771 15.8992 30.771C7.6149 30.771 0.89917 24.0553 0.89917 15.771C0.89917 7.48672 7.6149 0.770996 15.8992 0.770996C24.1834 0.770996 30.8992 7.48672 30.8992 15.771Z" fill="#F6FBFC"/>
<path d="M14.3208 23.993H11.501C11.175 24.0069 10.8496 23.9564 10.5432 23.8444C10.2368 23.7324 9.95552 23.5611 9.71544 23.3402C9.47535 23.1194 9.28118 22.8534 9.14403 22.5575C9.00688 22.2616 8.92944 21.9416 8.91614 21.6157V9.9263C8.92944 9.60045 9.00688 9.2804 9.14403 8.98449C9.28118 8.68858 9.47535 8.42261 9.71544 8.2018C9.95552 7.98098 10.2368 7.80966 10.5432 7.69765C10.8496 7.58562 11.175 7.5351 11.501 7.54896H14.3208C14.5077 7.54896 14.6871 7.62321 14.8193 7.75537C14.9515 7.88754 15.0257 8.06679 15.0257 8.2537C15.0257 8.44062 14.9515 8.61987 14.8193 8.75203C14.6871 8.88421 14.5077 8.95845 14.3208 8.95845H11.501C11.2219 8.93419 10.9441 9.01826 10.7254 9.19321C10.5066 9.36816 10.3636 9.62058 10.326 9.89811V21.6157C10.3636 21.8933 10.5066 22.1456 10.7254 22.3206C10.9441 22.4956 11.2219 22.5797 11.501 22.5553H14.3208C14.5077 22.5553 14.6871 22.6297 14.8193 22.7618C14.9515 22.894 15.0257 23.0732 15.0257 23.2601C15.0257 23.4471 14.9515 23.6263 14.8193 23.7585C14.6871 23.8906 14.5077 23.9648 14.3208 23.9648V23.993Z" fill="#142E3F"/>
<path d="M20.3812 20.3735C20.2887 20.374 20.1968 20.356 20.1113 20.3204C20.0258 20.2849 19.9481 20.2327 19.8831 20.1668C19.7511 20.0347 19.6769 19.8556 19.6769 19.6688C19.6769 19.4821 19.7511 19.3029 19.8831 19.1708L23.1447 15.9101L19.8831 12.6495C19.8138 12.585 19.7582 12.5072 19.7197 12.4207C19.6812 12.3343 19.6605 12.241 19.6588 12.1463C19.6571 12.0517 19.6746 11.9577 19.71 11.87C19.7455 11.7822 19.7982 11.7025 19.8652 11.6356C19.9321 11.5686 20.0118 11.5159 20.0996 11.4804C20.1874 11.445 20.2814 11.4276 20.3761 11.4293C20.4707 11.4309 20.5641 11.4516 20.6505 11.4902C20.737 11.5287 20.8148 11.5842 20.8794 11.6535L24.6392 15.4121C24.7712 15.5442 24.8453 15.7234 24.8453 15.9101C24.8453 16.0969 24.7712 16.276 24.6392 16.4081L20.8794 20.1668C20.8144 20.2327 20.7367 20.2849 20.6512 20.3204C20.5657 20.356 20.4738 20.374 20.3812 20.3735Z" fill="#142E3F"/>
<path d="M24.1403 16.6149H13.801C13.6141 16.6149 13.4347 16.5406 13.3025 16.4084C13.1703 16.2763 13.0961 16.097 13.0961 15.9101C13.0961 15.7232 13.1703 15.5439 13.3025 15.4118C13.4347 15.2796 13.6141 15.2054 13.801 15.2054H24.1403C24.3273 15.2054 24.5066 15.2796 24.6388 15.4118C24.771 15.5439 24.8453 15.7232 24.8453 15.9101C24.8453 16.097 24.771 16.2763 24.6388 16.4084C24.5066 16.5406 24.3273 16.6149 24.1403 16.6149Z" fill="#142E3F"/>
</svg>
