<svg width="165" height="26" viewBox="0 0 165 26" fill="none" xmlns="http://www.w3.org/2000/svg">
<path d="M12.9107 5.802V6.49487C14.6341 6.69083 14.8473 6.81681 14.8473 8.9234V18.7495C14.8473 20.8491 14.6768 20.9751 12.7158 21.199V21.8919H16.723V18.9945V14.7953V8.9234C16.723 6.79581 16.9605 6.69783 18.6839 6.49487V5.802H12.9107Z" fill="#F6FBFC"/>
<path d="M23.0499 21.8848V18.3225C23.0499 20.1492 21.838 21.6609 20.2607 21.8848H23.0499Z" fill="#F6FBFC"/>
<path d="M34.9617 21.1919V21.8917H29.6452V21.1919C31.0459 20.9819 31.2103 20.737 30.8997 19.8061C30.5404 18.6934 29.6269 15.8449 29.6086 15.6979C29.5721 15.53 27.4893 8.67828 27.4893 8.67828C26.789 10.8269 26.0704 13.0734 25.4249 15.0121C25.4249 15.0331 25.1021 16.0409 25.1021 16.0409C25.0656 16.1878 25.0108 16.3068 24.9742 16.4328L24.4688 14.8441L27.6477 5.57788L28.348 5.43091C29.6939 9.65809 31.1859 14.3472 32.5501 18.6374C33.2382 20.7999 33.4331 20.9889 34.9617 21.1919Z" fill="#F6FBFC"/>
<mask id="path-4-inside-1_261_2662" fill="white">
<path d="M45.1817 20.1142C44.792 18.9875 44.39 17.8117 43.9881 16.6289C43.2269 14.3264 42.4656 12.0658 41.7166 9.88922C41.6252 9.60927 41.5278 9.32932 41.4364 9.04938H41.4243C41.2781 8.62946 41.1319 8.20254 40.9919 7.78962C40.6143 6.70483 39.8592 6.13094 38.8848 5.73901C39.4329 6.05395 39.6521 6.53686 40.0297 7.61465C40.4194 8.74144 40.8214 9.91721 41.2233 11.1C41.9845 13.4025 42.7458 15.6631 43.4948 17.8397C43.5862 18.1196 43.6836 18.3996 43.775 18.6795H43.7871C43.9333 19.0994 44.0795 19.5264 44.2195 19.9393C44.5971 21.0241 45.3522 21.598 46.3266 21.9899C45.7785 21.6749 45.5593 21.199 45.1817 20.1142Z"/>
</mask>
<path d="M45.1817 20.1142C44.792 18.9875 44.39 17.8117 43.9881 16.6289C43.2269 14.3264 42.4656 12.0658 41.7166 9.88922C41.6252 9.60927 41.5278 9.32932 41.4364 9.04938H41.4243C41.2781 8.62946 41.1319 8.20254 40.9919 7.78962C40.6143 6.70483 39.8592 6.13094 38.8848 5.73901C39.4329 6.05395 39.6521 6.53686 40.0297 7.61465C40.4194 8.74144 40.8214 9.91721 41.2233 11.1C41.9845 13.4025 42.7458 15.6631 43.4948 17.8397C43.5862 18.1196 43.6836 18.3996 43.775 18.6795H43.7871C43.9333 19.0994 44.0795 19.5264 44.2195 19.9393C44.5971 21.0241 45.3522 21.598 46.3266 21.9899C45.7785 21.6749 45.5593 21.199 45.1817 20.1142Z" fill="#F6FBFC"/>
<path d="M45.1817 20.1142L44.2367 20.4411L44.2373 20.443L45.1817 20.1142ZM43.9881 16.6289L43.0386 16.9428L43.0413 16.9507L43.9881 16.6289ZM41.7166 9.88922L40.7659 10.1994L40.7684 10.207L40.771 10.2146L41.7166 9.88922ZM41.4364 9.04938L42.3871 8.73917L42.162 8.04938H41.4364V9.04938ZM41.4243 9.04938L40.4798 9.3781L40.7135 10.0494H41.4243V9.04938ZM40.9919 7.78962L41.9389 7.46837L41.9363 7.4609L40.9919 7.78962ZM38.8848 5.73901L39.2579 4.81125L38.3865 6.60607L38.8848 5.73901ZM40.0297 7.61465L40.9747 7.28775L40.9734 7.28403L40.0297 7.61465ZM41.2233 11.1L42.1728 10.7861L42.1701 10.7782L41.2233 11.1ZM43.4948 17.8397L44.4455 17.5295L44.443 17.5219L44.4404 17.5143L43.4948 17.8397ZM43.775 18.6795L42.8243 18.9897L43.0494 19.6795H43.775V18.6795ZM43.7871 18.6795L44.7316 18.3508L44.4979 17.6795H43.7871V18.6795ZM44.2195 19.9393L43.2725 20.2605L43.2751 20.268L44.2195 19.9393ZM46.3266 21.9899L45.9535 22.9177L46.8249 21.1228L46.3266 21.9899ZM45.1817 20.1142L46.1268 19.7874C45.7378 18.6628 45.3365 17.4889 44.9349 16.3072L43.9881 16.6289L43.0413 16.9507C43.4436 18.1345 43.8461 19.3121 44.2367 20.4411L45.1817 20.1142ZM43.9881 16.6289L44.9376 16.315C44.1752 14.0091 43.4127 11.7446 42.6621 9.5638L41.7166 9.88922L40.771 10.2146C41.5186 12.3869 42.2785 14.6436 43.0387 16.9428L43.9881 16.6289ZM41.7166 9.88922L42.6672 9.579C42.6198 9.43359 42.571 9.28897 42.5241 9.14979C42.4766 9.00903 42.431 8.8737 42.3871 8.73917L41.4364 9.04938L40.4858 9.35959C40.5332 9.505 40.582 9.64962 40.6289 9.78881C40.6764 9.92956 40.722 10.0649 40.7659 10.1994L41.7166 9.88922ZM41.4364 9.04938V8.04938H41.4243V9.04938V10.0494H41.4364V9.04938ZM41.4243 9.04938L42.3687 8.72066C42.2236 8.30388 42.0783 7.87956 41.9389 7.46839L40.9919 7.78962L40.0449 8.11085C40.1855 8.52552 40.3326 8.95503 40.4798 9.3781L41.4243 9.04938ZM40.9919 7.78962L41.9363 7.4609C41.4339 6.01745 40.4026 5.27166 39.2579 4.81125L38.8848 5.73901L38.5116 6.66678C39.3157 6.99022 39.7947 7.3922 40.0474 8.11834L40.9919 7.78962ZM38.8848 5.73901L38.3865 6.60607C38.5665 6.70948 38.6907 6.81723 39.0859 7.94527L40.0297 7.61465L40.9734 7.28403C40.6135 6.25649 40.2992 5.39843 39.383 4.87196L38.8848 5.73901ZM40.0297 7.61465L39.0846 7.94155C39.4736 9.06606 39.8749 10.24 40.2765 11.4217L41.2233 11.1L42.1701 10.7782C41.7678 9.59441 41.3653 8.41681 40.9747 7.28776L40.0297 7.61465ZM41.2233 11.1L40.2738 11.4139C41.0362 13.7198 41.7987 15.9843 42.5493 18.1651L43.4948 17.8397L44.4404 17.5143C43.6928 15.342 42.9329 13.0853 42.1728 10.7861L41.2233 11.1ZM43.4948 17.8397L42.5442 18.1499C42.5916 18.2953 42.6404 18.4399 42.6873 18.5791C42.7348 18.7199 42.7804 18.8552 42.8243 18.9897L43.775 18.6795L44.7256 18.3693C44.6782 18.2239 44.6294 18.0793 44.5825 17.9401C44.535 17.7993 44.4894 17.664 44.4455 17.5295L43.4948 17.8397ZM43.775 18.6795V19.6795H43.7871V18.6795V17.6795H43.775V18.6795ZM43.7871 18.6795L42.8427 19.0082C42.9878 19.425 43.133 19.8493 43.2725 20.2605L44.2195 19.9393L45.1665 19.618C45.0259 19.2034 44.8788 18.7739 44.7316 18.3508L43.7871 18.6795ZM44.2195 19.9393L43.2751 20.268C43.7775 21.7114 44.8088 22.4572 45.9535 22.9177L46.3266 21.9899L46.6998 21.0621C45.8957 20.7387 45.4167 20.3367 45.164 19.6106L44.2195 19.9393ZM46.3266 21.9899L46.8249 21.1228C46.6442 21.019 46.5195 20.9155 46.1262 19.7855L45.1817 20.1142L44.2373 20.443C44.5992 21.4826 44.9129 22.3309 45.8284 22.8569L46.3266 21.9899Z" fill="#F6FBFC" mask="url(#path-4-inside-1_261_2662)"/>
<path d="M38.3887 17.6309C38.3975 17.936 38.4074 18.2051 38.418 18.4434L38.4639 19.4385V19.4434C38.4939 20.1331 38.6616 20.7167 39.1592 21.1162C39.3001 21.2293 39.4604 21.3177 39.6357 21.3916H37.2002C37.3547 21.3197 37.4983 21.2335 37.626 21.125C38.0236 20.7869 38.2071 20.3179 38.2803 19.7598L38.3047 19.5146L38.3057 19.5117C38.338 19.0487 38.3674 18.4732 38.3887 17.6309ZM48.0303 6.30176C47.8971 6.36014 47.7735 6.4284 47.6631 6.5127C47.2537 6.82519 47.0877 7.26996 47.0322 7.79492L47.0146 8.02441L47.0137 8.03711C47.0018 8.56019 46.9748 9.19419 46.957 10.2217C46.9468 9.57303 46.9332 9.07663 46.9102 8.67188L46.8604 8.02051C46.8292 7.40248 46.6611 6.86133 46.1338 6.50195C46.0185 6.42343 45.8901 6.35793 45.75 6.30176H48.0303ZM38.3535 6.29492V8.15723C38.3451 8.11193 38.338 8.06634 38.3271 8.02148C38.25 7.7014 38.1142 7.41557 37.9014 7.10938H37.9023C37.6545 6.73107 37.3689 6.46864 36.9697 6.29492H38.3535Z" fill="#F6FBFC" stroke="#F6FBFC"/>
<mask id="path-7-inside-2_261_2662" fill="white">
<path d="M125.02 20.1142C124.63 18.9875 124.228 17.8117 123.826 16.6289C123.065 14.3264 122.304 12.0658 121.554 9.88922C121.463 9.60927 121.366 9.32932 121.274 9.04938H121.262C121.116 8.62946 120.97 8.20254 120.83 7.78962C120.452 6.70483 119.697 6.13094 118.723 5.73901C119.271 6.05395 119.49 6.53686 119.868 7.61465C120.257 8.74144 120.659 9.91721 121.061 11.1C121.822 13.4025 122.584 15.6631 123.333 17.8397C123.424 18.1196 123.522 18.3996 123.613 18.6795H123.625C123.771 19.0994 123.917 19.5264 124.057 19.9393C124.435 21.0241 125.19 21.598 126.165 21.9899C125.616 21.6749 125.397 21.199 125.02 20.1142Z"/>
</mask>
<path d="M125.02 20.1142C124.63 18.9875 124.228 17.8117 123.826 16.6289C123.065 14.3264 122.304 12.0658 121.554 9.88922C121.463 9.60927 121.366 9.32932 121.274 9.04938H121.262C121.116 8.62946 120.97 8.20254 120.83 7.78962C120.452 6.70483 119.697 6.13094 118.723 5.73901C119.271 6.05395 119.49 6.53686 119.868 7.61465C120.257 8.74144 120.659 9.91721 121.061 11.1C121.822 13.4025 122.584 15.6631 123.333 17.8397C123.424 18.1196 123.522 18.3996 123.613 18.6795H123.625C123.771 19.0994 123.917 19.5264 124.057 19.9393C124.435 21.0241 125.19 21.598 126.165 21.9899C125.616 21.6749 125.397 21.199 125.02 20.1142Z" fill="#F6FBFC"/>
<path d="M125.02 20.1142L124.075 20.4411L124.075 20.443L125.02 20.1142ZM123.826 16.6289L122.877 16.9428L122.879 16.9507L123.826 16.6289ZM121.554 9.88922L120.604 10.1994L120.606 10.207L120.609 10.2146L121.554 9.88922ZM121.274 9.04938L122.225 8.73917L122 8.04938H121.274V9.04938ZM121.262 9.04938L120.318 9.3781L120.551 10.0494H121.262V9.04938ZM120.83 7.78962L121.777 7.46837L121.774 7.4609L120.83 7.78962ZM118.723 5.73901L119.096 4.81125L118.224 6.60607L118.723 5.73901ZM119.868 7.61465L120.813 7.28775L120.811 7.28403L119.868 7.61465ZM121.061 11.1L122.011 10.7861L122.008 10.7782L121.061 11.1ZM123.333 17.8397L124.283 17.5295L124.281 17.5219L124.278 17.5143L123.333 17.8397ZM123.613 18.6795L122.662 18.9897L122.887 19.6795H123.613V18.6795ZM123.625 18.6795L124.569 18.3508L124.336 17.6795H123.625V18.6795ZM124.057 19.9393L123.11 20.2605L123.113 20.268L124.057 19.9393ZM126.165 21.9899L125.791 22.9177L126.663 21.1228L126.165 21.9899ZM125.02 20.1142L125.965 19.7874C125.576 18.6628 125.174 17.4889 124.773 16.3072L123.826 16.6289L122.879 16.9507C123.281 18.1345 123.684 19.3121 124.075 20.4411L125.02 20.1142ZM123.826 16.6289L124.775 16.315C124.013 14.0091 123.251 11.7447 122.5 9.5638L121.554 9.88922L120.609 10.2146C121.356 12.3869 122.116 14.6436 122.877 16.9428L123.826 16.6289ZM121.554 9.88922L122.505 9.579C122.458 9.43359 122.409 9.28897 122.362 9.14978C122.315 9.00902 122.269 8.8737 122.225 8.73917L121.274 9.04938L120.324 9.35959C120.371 9.505 120.42 9.64963 120.467 9.78881C120.514 9.92957 120.56 10.0649 120.604 10.1994L121.554 9.88922ZM121.274 9.04938V8.04938H121.262V9.04938V10.0494H121.274V9.04938ZM121.262 9.04938L122.207 8.72066C122.062 8.30389 121.916 7.87957 121.777 7.46839L120.83 7.78962L119.883 8.11085C120.023 8.52551 120.17 8.95503 120.318 9.3781L121.262 9.04938ZM120.83 7.78962L121.774 7.4609C121.272 6.01745 120.24 5.27165 119.096 4.81125L118.723 5.73901L118.349 6.66678C119.154 6.99022 119.633 7.3922 119.885 8.11834L120.83 7.78962ZM118.723 5.73901L118.224 6.60607C118.404 6.70948 118.529 6.81723 118.924 7.94527L119.868 7.61465L120.811 7.28403C120.451 6.25649 120.137 5.39843 119.221 4.87196L118.723 5.73901ZM119.868 7.61465L118.923 7.94155C119.311 9.06606 119.713 10.24 120.114 11.4217L121.061 11.1L122.008 10.7782C121.606 9.59442 121.203 8.41682 120.813 7.28776L119.868 7.61465ZM121.061 11.1L120.112 11.4139C120.874 13.7198 121.637 15.9843 122.387 18.1651L123.333 17.8397L124.278 17.5143C123.531 15.342 122.771 13.0853 122.011 10.7861L121.061 11.1ZM123.333 17.8397L122.382 18.1499C122.43 18.2953 122.478 18.4399 122.525 18.5791C122.573 18.7199 122.618 18.8552 122.662 18.9897L123.613 18.6795L124.564 18.3693C124.516 18.2239 124.467 18.0793 124.42 17.9401C124.373 17.7993 124.327 17.664 124.283 17.5295L123.333 17.8397ZM123.613 18.6795V19.6795H123.625V18.6795V17.6795H123.613V18.6795ZM123.625 18.6795L122.681 19.0082C122.826 19.425 122.971 19.8493 123.11 20.2605L124.057 19.9393L125.004 19.618C124.864 19.2034 124.717 18.7739 124.569 18.3508L123.625 18.6795ZM124.057 19.9393L123.113 20.268C123.615 21.7114 124.647 22.4572 125.791 22.9177L126.165 21.9899L126.538 21.0621C125.734 20.7387 125.255 20.3367 125.002 19.6106L124.057 19.9393ZM126.165 21.9899L126.663 21.1228C126.482 21.019 126.357 20.9155 125.964 19.7855L125.02 20.1142L124.075 20.443C124.437 21.4826 124.751 22.3309 125.666 22.8569L126.165 21.9899Z" fill="#F6FBFC" mask="url(#path-7-inside-2_261_2662)"/>
<path d="M118.227 17.6309C118.235 17.936 118.245 18.2051 118.256 18.4434L118.302 19.4385V19.4434C118.332 20.1346 118.502 20.7182 119 21.1172C119.141 21.2298 119.301 21.3179 119.476 21.3916H117.038C117.193 21.3197 117.336 21.2335 117.464 21.125C117.862 20.7869 118.045 20.3179 118.118 19.7598L118.143 19.5146L118.144 19.5117C118.176 19.0487 118.205 18.4732 118.227 17.6309ZM127.874 6.30176C127.741 6.36006 127.618 6.42855 127.508 6.5127C127.098 6.8252 126.931 7.26989 126.876 7.79492L126.858 8.02441V8.03711C126.846 8.56283 126.819 9.20062 126.802 10.2373C126.792 9.58098 126.777 9.07987 126.754 8.67188L126.704 8.02051C126.673 7.40248 126.505 6.86133 125.978 6.50195C125.862 6.42344 125.734 6.35792 125.594 6.30176H127.874ZM118.191 6.29492V8.15723C118.183 8.11193 118.176 8.06634 118.165 8.02148C118.088 7.7014 117.952 7.41557 117.739 7.10938H117.74C117.492 6.73107 117.207 6.46864 116.808 6.29492H118.191Z" fill="#F6FBFC" stroke="#F6FBFC"/>
<path d="M61.3373 5.802V6.50187C63.1155 6.69083 63.3104 6.8728 63.3104 8.9374V17.2938C63.3104 19.3584 63.2738 20.8001 63.0972 21.9759C62.8475 23.4176 62.1655 24.5584 60.9414 25.2583L61.2824 26.0001C61.8549 25.6922 62.5735 25.3002 63.2738 24.5584C64.7293 23.0747 65.18 21.36 65.18 18.0986V8.9374C65.18 6.8728 65.3566 6.71183 67.0313 6.50187V5.802H61.3373Z" fill="#F6FBFC"/>
<path d="M76.0445 5.44507C71.5014 5.44507 68.7549 9.55328 68.7549 13.9904C68.7549 18.6515 71.7694 22.2628 75.9044 22.2628C79.8751 22.2628 83.0175 18.9385 83.0175 13.6195C83.0114 8.68544 79.7289 5.44507 76.0445 5.44507ZM76.2637 21.318C73.1944 21.318 71.0021 17.9307 71.0021 13.3325C71.0021 8.69244 73.1944 6.37589 75.6182 6.37589C78.4378 6.37589 80.8251 9.11936 80.8251 14.3194C80.8251 19.0854 78.8641 21.318 76.2637 21.318Z" fill="#F6FBFC"/>
<path d="M89.1689 6.29492C88.9956 6.38441 88.839 6.50573 88.71 6.6748C88.5019 6.94761 88.4093 7.286 88.3613 7.65234C88.3131 8.02087 88.3027 8.47952 88.3027 9.03516V15.2295C88.3028 17.0929 88.6852 18.6103 89.4668 19.6748C90.2648 20.7617 91.4392 21.3213 92.877 21.3213C93.6977 21.3213 94.4131 21.1755 95.0205 20.8633C95.6323 20.5487 96.107 20.0792 96.4619 19.4775C96.8698 18.786 97.12 17.9188 97.2578 16.9004C97.0965 18.2987 96.7257 19.4111 95.9717 20.3311C95.0818 21.3698 93.7994 21.7207 92.3838 21.7207C91.2742 21.7207 90.148 21.4784 89.3359 20.8457L89.1777 20.7139L89.1748 20.7109L88.9678 20.5176C87.9634 19.5177 87.4395 17.9993 87.4395 15.3477V9.03516C87.4395 8.47786 87.4288 8.0205 87.3799 7.6543C87.3312 7.28966 87.2377 6.95367 87.0273 6.68359C86.89 6.5074 86.7223 6.38422 86.5381 6.29492H89.1689ZM98.4268 6.30176C98.2914 6.36817 98.1661 6.4477 98.0537 6.54395C97.659 6.88205 97.493 7.34851 97.4375 7.87793L97.4199 8.1084V8.11621C97.4073 8.49926 97.3871 9.12131 97.375 10.2119C97.3684 9.92544 97.363 9.67298 97.3545 9.44824L97.2861 8.10449L97.2852 8.09961L97.2646 7.87109C97.1993 7.34484 97.0197 6.87448 96.5879 6.53711C96.4684 6.44379 96.3349 6.36692 96.1895 6.30176H98.4268Z" fill="#F6FBFC" stroke="#F6FBFC"/>
<path d="M108.196 14.3811C108.494 14.9805 109.09 16.066 109.642 17.0413L110.166 17.9573L110.172 17.968C110.877 19.1196 111.278 19.7641 111.723 20.3411L111.917 20.5852C112.288 21.0384 112.641 21.3335 112.989 21.5422C112.278 21.4805 111.778 21.3438 111.355 21.0823C110.975 20.8467 110.621 20.4878 110.234 19.9133L110.066 19.6536L110.065 19.6526L109.773 19.1731C109.096 18.0305 108.445 16.7253 107.816 15.594H107.817C107.595 15.1806 107.361 14.8238 106.963 14.6116C106.869 14.5613 106.769 14.5217 106.665 14.4905C107.195 14.4319 107.647 14.3037 108.043 14.0735L108.196 14.3811ZM105.158 6.302C105.009 6.35148 104.863 6.42275 104.744 6.52954C104.546 6.69329 104.436 6.90149 104.378 7.15161C104.326 7.37704 104.313 7.65439 104.313 7.9856V14.5325H104.325V18.7776C104.325 19.3005 104.339 19.7334 104.395 20.0833C104.45 20.4354 104.556 20.7568 104.778 21.0149C104.928 21.1881 105.108 21.3061 105.304 21.3918H102.506C102.707 21.3044 102.892 21.1828 103.042 21.0002C103.256 20.7385 103.348 20.4146 103.395 20.0696C103.441 19.7253 103.449 19.2962 103.449 18.7776V8.89575C103.449 8.36783 103.435 7.93372 103.381 7.58521C103.326 7.23483 103.222 6.91481 103 6.65942C102.858 6.49663 102.69 6.38368 102.508 6.302H105.158ZM107.399 6.33521C108.343 6.40697 109.002 6.60397 109.52 6.95337L109.65 7.04712L109.658 7.05298C110.395 7.59015 110.927 8.54281 110.927 9.9104C110.927 11.6814 110.013 12.8402 108.684 13.5725C109.561 12.7403 109.893 11.6384 109.893 10.2815C109.893 8.86456 109.479 7.81844 108.771 7.12817C108.372 6.73998 107.901 6.48397 107.399 6.33521Z" fill="#F6FBFC" stroke="#F6FBFC"/>
<path d="M146.4 6.302C146.202 6.39446 146.013 6.52556 145.894 6.73267C145.738 7.00289 145.765 7.28288 145.82 7.49341C145.847 7.59516 145.886 7.70112 145.93 7.80688L146.07 8.12036L146.071 8.12329C146.965 10.0034 147.98 12.2574 148.895 14.1135L149.326 14.9905C149.284 15.2205 149.269 15.4524 149.269 15.7258V18.7776C149.269 19.2877 149.281 19.7174 149.338 20.0667C149.396 20.4214 149.509 20.7474 149.753 21.0081C149.919 21.186 150.121 21.3056 150.342 21.3918H147.312C147.549 21.3053 147.769 21.1829 147.946 20.9905C148.184 20.7322 148.29 20.4094 148.344 20.0608C148.396 19.7176 148.405 19.2908 148.405 18.7776V15.5793C148.405 15.2952 148.378 15.0624 148.294 14.7952C148.216 14.5478 148.093 14.279 147.926 13.926H147.927C147.176 12.3125 146.436 10.7614 145.265 8.42603H145.264C144.855 7.60848 144.549 7.0127 144.122 6.6311C143.965 6.49095 143.796 6.38569 143.615 6.302H146.4ZM154.186 6.302C154 6.38135 153.828 6.47992 153.667 6.60962C153.329 6.88179 153.063 7.26521 152.773 7.76587L152.473 8.30688L152.47 8.31079C152.386 8.46735 152.305 8.62324 152.224 8.77856C152.288 8.63504 152.35 8.50162 152.405 8.37817L152.409 8.37134L152.412 8.36353C152.538 8.05553 152.646 7.76474 152.694 7.50903C152.743 7.24839 152.746 6.93559 152.551 6.65747C152.436 6.49395 152.28 6.38192 152.112 6.302H154.186Z" fill="#F6FBFC" stroke="#F6FBFC"/>
<path d="M157.073 19.1091C157.264 19.5451 157.499 19.9756 157.793 20.3611C158.298 21.0229 158.985 21.5585 159.896 21.7556C158.96 21.6923 158.127 21.397 157.404 21.0857C157.303 20.6139 157.185 19.8832 157.073 19.1091ZM158.759 6.77417C158.725 6.81729 158.692 6.86171 158.661 6.90698C158.231 7.53258 158.075 8.31829 158.075 9.02124C158.075 9.98402 158.342 10.7434 158.878 11.4021C159.396 12.0386 160.144 12.556 161.051 13.0857V13.0847C162.336 13.853 163.191 14.4837 163.73 15.1755C164.186 15.76 164.436 16.4127 164.489 17.2927L164.5 17.6843V17.6853C164.5 19.2147 163.75 20.5027 162.518 21.2029C162.65 21.0939 162.775 20.9736 162.887 20.8406C163.407 20.2234 163.673 19.3899 163.673 18.49C163.673 17.452 163.429 16.6716 162.892 15.99C162.506 15.5004 161.98 15.0802 161.346 14.6492L160.676 14.2117L160.672 14.2097L160.265 13.9509C159.347 13.3564 158.658 12.8117 158.182 12.2087C157.653 11.5399 157.37 10.7788 157.37 9.74194C157.37 8.59606 157.851 7.49226 158.759 6.77417ZM161.935 5.98706C162.613 6.05519 163.239 6.21132 163.677 6.32495C163.722 6.78428 163.771 7.27298 163.829 7.87378C163.7 7.57443 163.544 7.28888 163.353 7.03101C163 6.55571 162.537 6.18721 161.935 5.98706Z" fill="#F6FBFC" stroke="#F6FBFC"/>
<path d="M0.304495 5.80188V6.50175C1.91832 6.66972 2.15583 6.78869 2.15583 9.00027V18.7844C2.15583 20.807 2.00967 21.031 0 21.1989V21.8988H4.01934V5.80188H0.304495ZM8.31272 0L4.73795 3.80027L5.17033 4.41615L9.82302 1.5467L9.84129 1.34374C9.62206 0.972813 8.76338 0.125976 8.31272 0Z" fill="#F6FBFC"/>
<path d="M9.99328 5.81592V9.37823C9.99328 7.55158 8.78139 6.03987 7.2041 5.81592H9.99328Z" fill="#F6FBFC"/>
<path d="M11.3946 21.8848V18.3225C11.3946 20.1492 10.1828 21.6609 8.60547 21.8848H11.3946Z" fill="#F6FBFC"/>
<path d="M6.32129 13.5215C7.89858 13.7455 9.11047 15.2572 9.11047 17.0839V13.5215V9.95923C9.11656 11.7859 7.89858 13.2976 6.32129 13.5215Z" fill="#F6FBFC"/>
<path d="M134.428 6.302V21.3987H132.578C132.782 21.3105 132.965 21.1891 133.116 21.0159C133.35 20.7478 133.453 20.416 133.505 20.0637C133.556 19.7148 133.564 19.2871 133.564 18.7844V9.00024C133.564 8.44534 133.549 7.99174 133.496 7.62817C133.443 7.2657 133.345 6.93669 133.135 6.6731C133.001 6.50589 132.841 6.3883 132.666 6.302H134.428Z" fill="#F6FBFC" stroke="#F6FBFC"/>
<path d="M140.401 6.31592V6.57764C140.324 6.48647 140.244 6.39908 140.159 6.31592H140.401Z" fill="#F6FBFC" stroke="#F6FBFC"/>
<path d="M141.803 21.3853H141.561C141.645 21.3019 141.726 21.2139 141.803 21.1226V21.3853Z" fill="#F6FBFC" stroke="#F6FBFC"/>
<path d="M139.519 14.2825C139.266 13.9832 138.971 13.7266 138.644 13.5217C138.971 13.3166 139.265 13.0588 139.519 12.759V14.2825Z" fill="#F6FBFC" stroke="#F6FBFC"/>
<path d="M75.8848 12.1597C76.211 12.7854 76.6829 13.3095 77.2578 13.6694C76.6836 14.03 76.2131 14.555 75.8867 15.1792C75.5597 14.5538 75.0875 14.0291 74.5117 13.6685C75.0867 13.3084 75.5577 12.784 75.8848 12.1597Z" fill="#F6FBFC" stroke="#F6FBFC"/>
</svg>
