<svg width="330" height="52" viewBox="0 0 330 52" fill="none" xmlns="http://www.w3.org/2000/svg">
<path d="M25.8194 11.6038V12.9895C29.2663 13.3814 29.6926 13.6334 29.6926 17.8466V37.4988C29.6926 41.698 29.3516 41.9499 25.4297 42.3978V43.7836H33.444V37.9887V29.5903V17.8466C33.444 13.5914 33.919 13.3954 37.3659 12.9895V11.6038H25.8194Z" fill="#F6FBFC"/>
<path d="M46.1018 43.7696V36.645C46.1018 40.2983 43.678 43.3217 40.5234 43.7696H46.1018Z" fill="#F6FBFC"/>
<path d="M69.9272 42.3839V43.7836H59.2943V42.3839C62.0956 41.9639 62.4245 41.474 61.8033 39.6124C61.0847 37.3868 59.2577 31.6899 59.2212 31.396C59.1481 31.06 54.9826 17.3567 54.9826 17.3567C53.5819 21.6539 52.1447 26.147 50.8536 30.0242C50.8536 30.0662 50.2081 32.0819 50.2081 32.0819C50.135 32.3758 50.0254 32.6137 49.9523 32.8657L48.9414 29.6883L55.2993 11.1559L56.6999 10.8619C59.3917 19.3163 62.3757 28.6945 65.104 37.2749C66.4803 41.6 66.8701 41.9779 69.9272 42.3839Z" fill="#F6FBFC"/>
<path d="M79.8311 13.2463C80.5649 13.8742 81.1338 14.672 81.5059 15.7385V15.7395C81.7863 16.5662 82.0792 17.4215 82.3721 18.2629L82.4893 18.5989H82.5088C82.5644 18.7658 82.62 18.9324 82.6758 19.0979L82.9541 19.9329L82.9561 19.9407C84.0791 23.2038 85.2162 26.5618 86.3564 29.9788L87.498 33.4143L87.499 33.4182C87.901 34.6012 88.3031 35.7809 88.7021 36.9465L89.8867 40.3918L89.8877 40.3928C90.1339 41.1001 90.3529 41.6973 90.5801 42.2073C89.9326 41.6523 89.4129 40.9652 89.0449 40.0764L88.9072 39.7141C88.6272 38.8886 88.3354 38.0347 88.043 37.1946L87.9258 36.8586H87.9062C87.8506 36.6917 87.7951 36.5251 87.7393 36.3596L87.4609 35.5237L87.459 35.5168L86.3311 32.2229C85.577 30.0079 84.8188 27.7559 84.0586 25.4778L82.917 22.0432L82.916 22.0393L81.7129 18.51L80.5283 15.0657L80.5273 15.0637L80.2578 14.3098C80.1136 13.918 79.9736 13.5655 79.8311 13.2463Z" fill="#F6FBFC" stroke="#F6FBFC"/>
<path d="M98.3018 12.1034V12.5634C97.1606 12.7188 96.2605 12.94 95.6279 13.4227C94.9608 13.9319 94.6616 14.6664 94.5586 15.6405L94.5264 16.0731L94.5254 16.0858C94.4891 17.685 94.3799 19.7711 94.3799 24.3553V43.2977H93.4785L93.4434 24.3544C93.4434 20.338 93.3871 18.1794 93.2734 16.6903L93.2217 16.0897C93.1663 14.9173 92.8595 14.0149 91.9834 13.4178C91.24 12.9113 90.1485 12.6769 88.6689 12.5438V12.1034H98.3018ZM77.2061 12.0897V30.7098C77.2061 31.8477 77.2057 32.89 77.2422 33.7675V33.7684C77.2605 35.0296 77.2973 36.0393 77.334 36.8651L77.4258 38.8593V38.8641C77.4832 40.1838 77.798 41.1753 78.6289 41.8427C79.3426 42.4157 80.3654 42.6834 81.6885 42.8339V43.2831H72.2383V42.8309C73.3683 42.6888 74.2725 42.4242 74.9258 41.869C75.592 41.3027 75.9254 40.5008 76.0625 39.455L76.1094 38.9921V38.9891C76.22 37.4075 76.3301 35.1561 76.3301 30.6542V18.0282C76.3301 17.3217 76.3034 16.7263 76.167 16.16C76.0453 15.655 75.842 15.1918 75.5205 14.6952L75.375 14.4803C74.9251 13.7974 74.427 13.3472 73.7354 13.0468C73.1642 12.7987 72.4786 12.664 71.6289 12.5507V12.0897H77.2061Z" fill="#F6FBFC" stroke="#F6FBFC"/>
<path d="M239.511 13.2463C240.16 13.802 240.681 14.4904 241.05 15.3811L241.188 15.7434C241.468 16.5689 241.759 17.4228 242.052 18.2629L242.169 18.5989H242.188C242.244 18.7658 242.3 18.9324 242.355 19.0979L242.634 19.9329L242.636 19.9407C243.759 23.2038 244.896 26.5618 246.036 29.9788L247.178 33.4143L247.179 33.4182C247.581 34.6012 247.983 35.7809 248.382 36.9465L249.566 40.3918L249.567 40.3928C249.814 41.1001 250.033 41.6973 250.26 42.2073C249.612 41.6523 249.093 40.9652 248.725 40.0764L248.587 39.7141C248.307 38.8886 248.015 38.0347 247.723 37.1946L247.605 36.8586H247.586C247.53 36.6917 247.475 36.5251 247.419 36.3596L247.141 35.5237L247.139 35.5168L246.011 32.2229C245.257 30.0079 244.498 27.7559 243.738 25.4778L242.597 22.0432L242.596 22.0393L241.393 18.51L240.208 15.0657L240.207 15.0637L239.938 14.3098C239.793 13.918 239.653 13.5655 239.511 13.2463Z" fill="#F6FBFC" stroke="#F6FBFC"/>
<path d="M257.993 12.1034V12.5634C256.852 12.7188 255.953 12.9402 255.32 13.4227C254.653 13.9319 254.354 14.6665 254.251 15.6405L254.218 16.0731V16.0858C254.181 17.685 254.071 19.7711 254.071 24.3553V43.2977H253.17L253.135 24.3544C253.135 20.338 253.079 18.1794 252.966 16.6903L252.913 16.0897C252.858 14.9173 252.552 14.0149 251.676 13.4178C250.932 12.9112 249.84 12.6769 248.36 12.5438V12.1034H257.993ZM236.886 12.0897V30.7098C236.886 31.8477 236.885 32.89 236.922 33.7675V33.7684C236.94 35.0296 236.977 36.0393 237.014 36.8651L237.105 38.8593V38.8641C237.163 40.1853 237.481 41.1768 238.313 41.8436C239.028 42.416 240.05 42.6833 241.368 42.8339V43.2831H231.918V42.8309C233.048 42.6888 233.952 42.4242 234.605 41.869C235.272 41.3027 235.605 40.5008 235.742 39.455L235.789 38.9921V38.9891C235.9 37.4075 236.01 35.1561 236.01 30.6542V18.0282C236.01 17.3217 235.983 16.7263 235.847 16.16C235.725 15.655 235.522 15.1918 235.2 14.6952L235.055 14.4803C234.605 13.7974 234.107 13.3472 233.415 13.0468C232.844 12.7987 232.158 12.664 231.309 12.5507V12.0897H236.886Z" fill="#F6FBFC" stroke="#F6FBFC"/>
<path d="M122.675 11.6038V13.0035C126.231 13.3814 126.621 13.7453 126.621 17.8746V34.5873C126.621 38.7165 126.548 41.6 126.194 43.9515C125.695 46.835 124.331 49.1165 121.883 50.5163L122.565 52C123.71 51.3841 125.147 50.6002 126.548 49.1165C129.459 46.1491 130.36 42.7198 130.36 36.197V17.8746C130.36 13.7453 130.713 13.4234 134.063 13.0035V11.6038H122.675Z" fill="#F6FBFC"/>
<path d="M152.091 10.8899C143.005 10.8899 137.512 19.1063 137.512 27.9806C137.512 37.3028 143.541 44.5254 151.811 44.5254C159.752 44.5254 166.037 37.8767 166.037 27.2387C166.025 17.3706 159.46 10.8899 152.091 10.8899ZM152.529 42.6358C146.391 42.6358 142.006 35.8611 142.006 26.6649C142.006 17.3846 146.391 12.7515 151.238 12.7515C156.878 12.7515 161.652 18.2385 161.652 28.6385C161.652 38.1706 157.73 42.6358 152.529 42.6358Z" fill="#F6FBFC"/>
<path d="M180.918 12.0897V12.5282C180.26 12.5844 179.698 12.6552 179.232 12.7811C178.647 12.9393 178.166 13.1951 177.817 13.6522C177.479 14.0956 177.31 14.67 177.219 15.369C177.127 16.0702 177.105 16.9581 177.105 18.0702V30.4579C177.105 34.1272 177.859 37.0434 179.336 39.0546C180.829 41.0878 183.022 42.1415 185.754 42.1415C187.337 42.1415 188.685 41.8615 189.812 41.2821C190.944 40.7003 191.826 39.8311 192.492 38.701C193.811 36.4652 194.293 33.2032 194.293 29.0585V24.0194C194.293 20.6071 194.21 18.6766 194.138 17.369L194.072 16.2372V16.2323L194.032 15.8026C193.911 14.8261 193.588 14.0318 192.867 13.4686C192.157 12.9137 191.133 12.6471 189.762 12.537V12.1034H199.151V12.5409C197.986 12.6533 197.077 12.9163 196.434 13.4667C195.778 14.0282 195.476 14.8189 195.372 15.8055L195.34 16.2411L195.339 16.2479C195.302 17.3578 195.229 19.4775 195.229 24.0194V29.3807C195.229 34.2474 194.71 37.8903 192.538 40.7177L192.322 40.9882C190.41 43.2203 187.673 43.9413 184.768 43.9413C182.493 43.9413 180.111 43.4467 178.364 42.0848L178.023 41.8007L178.02 41.7977L177.795 41.5946C175.509 39.4623 174.379 36.2358 174.379 30.6962V18.0702C174.379 16.9546 174.357 16.0698 174.264 15.3739C174.171 14.6794 174 14.1114 173.659 13.6737C173.309 13.2246 172.828 12.9752 172.249 12.8153C171.785 12.6872 171.224 12.6082 170.566 12.538V12.0897H180.918Z" fill="#F6FBFC" stroke="#F6FBFC"/>
<path d="M213.012 12.1038C215.934 12.1038 217.862 12.507 219.318 13.4905L219.604 13.6956L219.611 13.7014C221.231 14.8825 222.354 16.9483 222.354 19.8206C222.353 23.8258 220.131 26.3619 217.066 27.8674L216.616 28.0891L216.84 28.5393C217.43 29.7266 218.616 31.8882 219.717 33.8342L220.765 35.6643L220.771 35.6741C222.386 38.3129 223.184 39.5904 224.221 40.8538V40.8528C225.29 42.16 226.258 42.7669 227.248 43.1506L227.179 43.6663C226.805 43.6525 226.457 43.624 226.035 43.593H226.036C224.519 43.4705 223.404 43.182 222.447 42.5891C221.607 42.0688 220.852 41.2914 220.054 40.1057L219.709 39.5725L219.708 39.5706L219.12 38.6047C217.755 36.3011 216.435 33.6585 215.193 31.425H215.194C214.756 30.6092 214.347 30.0149 213.69 29.6653C213.052 29.3256 212.253 29.2581 211.161 29.2581H209.15V37.5549C209.15 38.5992 209.179 39.4306 209.283 40.0881C209.387 40.7479 209.575 41.286 209.935 41.7024C210.297 42.1226 210.783 42.3603 211.361 42.5208C211.831 42.651 212.397 42.7379 213.061 42.8235V43.2834H202.562V42.8215C203.246 42.7307 203.822 42.6404 204.293 42.5081C204.869 42.346 205.348 42.1081 205.696 41.6829C206.04 41.2637 206.206 40.7242 206.294 40.0725C206.382 39.4216 206.399 38.5949 206.399 37.5549V17.7903C206.399 16.7357 206.371 15.9016 206.269 15.2463C206.166 14.5895 205.979 14.0564 205.623 13.6467C205.263 13.233 204.781 13.0062 204.215 12.8538C203.758 12.7308 203.206 12.6462 202.562 12.5627V12.1038H213.012ZM212.428 12.8391C211.772 12.8391 211.23 12.8901 210.802 12.9866C210.438 13.0684 210.11 13.1936 209.869 13.3889L209.808 13.4436C209.512 13.6879 209.338 13.9997 209.242 14.4153C209.152 14.806 209.126 15.3108 209.126 15.9709V28.5647H211.673C213.987 28.5646 215.545 28.1797 216.755 27.0266L216.754 27.0256C218.579 25.4595 219.285 23.3292 219.285 20.5618C219.285 17.8258 218.491 15.8768 217.193 14.6135C215.9 13.3544 214.173 12.8392 212.428 12.8391Z" fill="#F6FBFC" stroke="#F6FBFC"/>
<path d="M294.702 12.1038V12.5823C294.109 12.6904 293.631 12.8083 293.257 12.9495C292.805 13.12 292.429 13.352 292.22 13.7151C292.003 14.0925 292.03 14.4983 292.125 14.8606C292.172 15.0383 292.24 15.2264 292.321 15.4221L292.593 16.0286L292.595 16.0315C294.389 19.808 296.409 24.2945 298.236 28.0051L298.696 28.9397L299.138 27.9963C300.686 24.6894 303.136 19.2841 304.354 16.553L304.358 16.5452L304.361 16.5374C304.613 15.9198 304.813 15.3818 304.898 14.926C304.985 14.4653 304.972 13.9998 304.692 13.6018C304.425 13.2205 303.982 13.0045 303.47 12.8567C303.042 12.7333 302.504 12.6415 301.853 12.5598V12.1038H310.56V12.5667C309.287 12.7498 308.4 13.0027 307.648 13.6077C306.94 14.1779 306.39 15.0339 305.692 16.2893L305.384 16.8518L305.381 16.8557C303.438 20.5062 301.848 23.9368 299.733 28.3088L299.729 28.3176L299.725 28.3274C299.471 28.9111 299.295 29.3787 299.186 29.8635C299.076 30.3515 299.038 30.8364 299.038 31.4524V37.5549C299.038 38.5759 299.063 39.3981 299.17 40.052C299.278 40.7112 299.478 41.2543 299.871 41.675C300.263 42.0941 300.792 42.3337 301.433 42.4993C301.972 42.6385 302.632 42.7343 303.423 42.8284V43.2834H292.072V42.8137C292.848 42.6975 293.493 42.5916 294.015 42.4504C294.633 42.2831 295.147 42.0522 295.525 41.6418C295.906 41.2287 296.093 40.6954 296.192 40.0461C296.291 39.4022 296.311 38.5844 296.311 37.5549V31.1584C296.311 30.6294 296.26 30.2167 296.111 29.7405C296.004 29.3977 295.846 29.0264 295.632 28.5608L295.398 28.0608C293.899 24.8385 292.423 21.7411 290.083 17.0764H290.082C289.25 15.4117 288.679 14.3211 287.91 13.635C287.188 12.9904 286.333 12.7316 285.105 12.5627V12.1038H294.702Z" fill="#F6FBFC" stroke="#F6FBFC"/>
<path d="M322.606 11.4039C324.691 11.4039 326.729 11.9723 327.818 12.2526C327.981 13.8622 328.142 15.6478 328.424 18.4342L328.014 18.524C327.665 17.038 327.174 15.5331 326.304 14.359C325.313 13.0224 323.853 12.1394 321.682 12.1393C319.824 12.1393 318.537 12.931 317.734 14.0973C316.949 15.2382 316.65 16.6992 316.65 18.0426C316.65 19.8627 317.15 21.2676 318.144 22.4889C319.119 23.6879 320.55 24.6843 322.354 25.7389V25.7379C324.934 27.2796 326.714 28.581 327.855 30.0436C328.908 31.3923 329.438 32.9079 329.495 34.9537L329.5 35.3698V35.3717C329.5 40.2932 325.823 44.0396 320.524 44.0397C318.146 44.0397 316.076 43.2767 314.378 42.5299C314.056 41.1296 313.625 38.2798 313.315 35.8209L313.781 35.692C314.225 37.2529 314.902 39.0042 315.982 40.4196C317.191 42.0017 318.916 43.1774 321.353 43.1774C323.044 43.1773 324.433 42.4952 325.392 41.359C326.343 40.2309 326.846 38.6857 326.846 36.9811C326.846 34.9947 326.382 33.5497 325.39 32.2906C324.541 31.2144 323.323 30.2986 321.771 29.2867L321.084 28.8463L321.08 28.8434L320.26 28.3239C318.406 27.1233 316.974 25.997 315.972 24.7281C314.842 23.2982 314.24 21.6652 314.24 19.484C314.24 15.3245 317.233 11.4042 322.606 11.4039Z" fill="#F6FBFC" stroke="#F6FBFC"/>
<path d="M0.608991 11.6038V13.0035C3.83664 13.3394 4.31166 13.5774 4.31166 18.0005V37.5688C4.31166 41.614 4.01934 42.0619 0 42.3978V43.7976H8.03868V11.6038H0.608991ZM16.6254 0L9.4759 7.60054L10.3407 8.8323L19.646 3.0934L19.6826 2.68748C19.2441 1.94563 17.5268 0.251952 16.6254 0Z" fill="#F6FBFC"/>
<path d="M19.9885 11.6317V18.7563C19.9885 15.103 17.5647 12.0796 14.4102 11.6317H19.9885Z" fill="#F6FBFC"/>
<path d="M22.7893 43.7695V36.6449C22.7893 40.2982 20.3655 43.3216 17.2109 43.7695H22.7893Z" fill="#F6FBFC"/>
<path d="M12.6445 27.0427C15.7991 27.4906 18.2229 30.5141 18.2229 34.1673V27.0427V19.9181C18.2351 23.5714 15.7991 26.5948 12.6445 27.0427Z" fill="#F6FBFC"/>
<path d="M269.355 12.1038V43.2971H262.316V42.8538C263.112 42.7792 263.773 42.6933 264.311 42.5549C264.954 42.3894 265.476 42.1389 265.856 41.7034C266.234 41.2704 266.418 40.7153 266.515 40.0549C266.611 39.398 266.628 38.5769 266.628 37.5686V18.0002C266.628 16.8925 266.599 16.0167 266.498 15.3284C266.398 14.6411 266.219 14.0847 265.878 13.6575C265.529 13.2199 265.058 12.9778 264.5 12.8225C264.06 12.7 263.533 12.6237 262.926 12.5549V12.1038H269.355Z" fill="#F6FBFC" stroke="#F6FBFC"/>
<path d="M281.305 12.1315V14.7653C280.716 13.6854 279.894 12.7773 278.91 12.1315H281.305Z" fill="#F6FBFC" stroke="#F6FBFC"/>
<path d="M284.105 43.2699H281.71C282.694 42.624 283.517 41.7155 284.105 40.6351V43.2699Z" fill="#F6FBFC" stroke="#F6FBFC"/>
<path d="M279.539 30.1769C278.777 28.7777 277.622 27.6669 276.231 27.0421C277.622 26.4173 278.777 25.3074 279.539 23.9083V30.1769Z" fill="#F6FBFC" stroke="#F6FBFC"/>
<path d="M151.771 23.0891C152.464 25.012 153.833 26.5592 155.574 27.3391C153.834 28.1232 152.467 29.6699 151.773 31.5872C151.079 29.6673 149.709 28.1192 147.966 27.3362C149.708 26.5535 151.077 25.0074 151.771 23.0891Z" fill="#F6FBFC" stroke="#F6FBFC"/>
</svg>
