<svg width="281" height="44" viewBox="0 0 281 44" fill="none" xmlns="http://www.w3.org/2000/svg">
<path d="M22.2402 9.81836V10.9909C25.1649 11.3225 25.5266 11.5357 25.5266 15.1007V31.7295C25.5266 35.2827 25.2372 35.4959 21.9095 35.8749V37.0474H28.7096V32.1441V25.0377V15.1007C28.7096 11.5002 29.1126 11.3344 32.0372 10.9909V9.81836H22.2402Z" fill="#142E3F"/>
<path d="M39.447 37.0359V31.0073C39.447 34.0986 37.3905 36.6569 34.7139 37.0359H39.447Z" fill="#142E3F"/>
<path d="M59.6611 35.8633V37.0477H50.6392V35.8633C53.0161 35.508 53.2951 35.0935 52.768 33.5182C52.1583 31.6351 50.6081 26.8146 50.5771 26.5659C50.5151 26.2816 46.9808 14.6865 46.9808 14.6865C45.7923 18.3225 44.5729 22.1244 43.4774 25.4052C43.4774 25.4407 42.9297 27.1462 42.9297 27.1462C42.8677 27.395 42.7747 27.5963 42.7127 27.8095L41.8549 25.1209L47.2495 9.43964L48.4379 9.19092C50.7218 16.3446 53.2538 24.28 55.5687 31.5403C56.7364 35.2001 57.0671 35.5199 59.6611 35.8633Z" fill="#142E3F"/>
<path d="M68.2774 11.5029C68.7014 11.9223 69.0474 12.4249 69.3047 13.0449L69.42 13.3467C69.6576 14.0451 69.9053 14.7676 70.1534 15.4785L70.2706 15.8145H70.2862C70.3277 15.9383 70.3687 16.0619 70.4102 16.1846L70.6465 16.8906L70.6495 16.8984C71.6023 19.6594 72.5668 22.5005 73.5342 25.3916L74.502 28.2979L74.503 28.3027C74.8441 29.3038 75.1859 30.3017 75.5245 31.2881L76.5294 34.2031L76.5303 34.2041C76.6882 34.6564 76.8322 35.0577 76.9776 35.415C76.5566 34.9969 76.2121 34.4968 75.9561 33.8799L75.8419 33.5781C75.6043 32.8797 75.3556 32.1572 75.1075 31.4463L74.9903 31.1113H74.9747C74.9331 30.9873 74.8922 30.8631 74.8506 30.7402L74.6153 30.0342L74.6124 30.0273L73.6563 27.2402C73.0166 25.3663 72.3725 23.4615 71.7276 21.5342L70.7598 18.627L70.7579 18.623L69.7374 15.6377L68.7315 12.7227V12.7207L68.502 12.082C68.4264 11.8772 68.3517 11.6846 68.2774 11.5029Z" fill="#142E3F" stroke="#142E3F"/>
<path d="M83.6637 10.3184V10.5625C82.7244 10.6939 81.9667 10.8849 81.4264 11.2959C80.837 11.7445 80.5775 12.3902 80.4889 13.2266L80.4606 13.5957V13.6094C80.4298 14.9609 80.3365 16.7284 80.3365 20.6084V36.5596H79.7233L79.693 20.6074C79.693 17.2089 79.6461 15.3797 79.5494 14.1162L79.5045 13.6064C79.4564 12.6047 79.1919 11.8138 78.4215 11.29C77.7859 10.8581 76.8652 10.6569 75.6422 10.543V10.3184H83.6637ZM65.7653 10.3066V25.9854C65.7653 26.9466 65.7646 27.8293 65.7955 28.5732V28.5742C65.811 29.6412 65.8425 30.4969 65.8737 31.1963L65.9508 32.8838V32.8887C66 34.015 66.2712 34.881 67.0016 35.4658C67.6117 35.9542 68.474 36.1843 69.568 36.3135V36.5479H61.7008V36.3086C62.6345 36.1856 63.396 35.959 63.9537 35.4863C64.5391 34.9903 64.8282 34.291 64.9459 33.3945L64.986 32.999V32.9961C65.0799 31.6557 65.1735 29.7488 65.1735 25.9385V15.2549C65.1735 14.6559 65.1509 14.144 65.0328 13.6553C64.9272 13.2182 64.7499 12.8188 64.4733 12.3926L64.3483 12.208C63.96 11.6208 63.5272 11.2294 62.9254 10.9688C62.4464 10.7613 61.8771 10.6463 61.1842 10.5518V10.3066H65.7653Z" fill="#142E3F" stroke="#142E3F"/>
<path d="M203.761 11.5029C204.185 11.9223 204.531 12.4249 204.789 13.0449L204.904 13.3467C205.141 14.0451 205.389 14.7676 205.637 15.4785L205.754 15.8145H205.77C205.812 15.9383 205.853 16.0619 205.894 16.1846L206.13 16.8906L206.133 16.8984C207.086 19.6594 208.051 22.5005 209.018 25.3916L209.986 28.2979L209.987 28.3027C210.328 29.3038 210.67 30.3017 211.008 31.2881L212.013 34.2031L212.014 34.2041C212.172 34.6564 212.316 35.0577 212.461 35.415C212.04 34.9969 211.696 34.4968 211.44 33.8799L211.326 33.5781C211.088 32.8797 210.839 32.1572 210.591 31.4463L210.474 31.1113H210.458C210.417 30.9873 210.376 30.8631 210.334 30.7402L210.099 30.0342L210.096 30.0273L209.14 27.2402C208.5 25.3663 207.856 23.4615 207.211 21.5342L206.244 18.627L206.242 18.623L205.221 15.6377L204.215 12.7227V12.7207L203.986 12.082C203.91 11.8772 203.836 11.6846 203.761 11.5029Z" fill="#142E3F" stroke="#142E3F"/>
<path d="M219.158 10.3184V10.5625C218.219 10.6939 217.46 10.8846 216.92 11.2959C216.331 11.7445 216.072 12.3902 215.984 13.2266L215.955 13.5957L215.954 13.6094C215.923 14.9609 215.83 16.7284 215.83 20.6084V36.5596H215.217L215.188 20.6074C215.188 17.2089 215.14 15.3797 215.043 14.1162L214.999 13.6064C214.951 12.6045 214.686 11.8138 213.915 11.29C213.279 10.8581 212.359 10.6568 211.136 10.543V10.3184H219.158ZM201.248 10.3066V25.9854C201.248 26.9466 201.249 27.8293 201.279 28.5732V28.5742C201.295 29.6412 201.326 30.4969 201.358 31.1963L201.435 32.8838V32.8887C201.484 34.0163 201.758 34.8816 202.489 35.4658C203.1 35.9537 203.962 36.1842 205.052 36.3135V36.5479H197.185V36.3086C198.118 36.1856 198.88 35.959 199.438 35.4863C200.023 34.9903 200.312 34.291 200.43 33.3945L200.47 32.999V32.9961C200.564 31.6557 200.657 29.7488 200.657 25.9385V15.2549C200.657 14.6559 200.635 14.144 200.517 13.6553C200.411 13.2182 200.234 12.8188 199.957 12.3926L199.832 12.208C199.444 11.6208 199.011 11.2294 198.409 10.9688C197.93 10.7613 197.361 10.6463 196.668 10.5518V10.3066H201.248Z" fill="#142E3F" stroke="#142E3F"/>
<path d="M104.419 9.81836V11.0027C107.437 11.3225 107.768 11.6305 107.768 15.1244V29.266C107.768 32.7599 107.706 35.1998 107.406 37.1896C106.982 39.6294 105.825 41.5599 103.748 42.7443L104.326 43.9998C105.298 43.4786 106.517 42.8154 107.706 41.5599C110.176 39.049 110.94 36.1473 110.94 30.628V15.1244C110.94 11.6305 111.24 11.3581 114.082 11.0027V9.81836H104.419Z" fill="#142E3F"/>
<path d="M129.377 9.21436C121.667 9.21436 117.007 16.1667 117.007 23.6757C117.007 31.5637 122.122 37.6752 129.139 37.6752C135.877 37.6752 141.21 32.0493 141.21 23.048C141.199 14.6981 135.629 9.21436 129.377 9.21436ZM129.749 36.0763C124.54 36.0763 120.82 30.3438 120.82 22.5624C120.82 14.7099 124.54 10.7896 128.653 10.7896C133.438 10.7896 137.489 15.4324 137.489 24.2324C137.489 32.2981 134.162 36.0763 129.749 36.0763Z" fill="#142E3F"/>
<path d="M153.762 10.3066V10.5293C153.232 10.5761 152.773 10.6365 152.388 10.7402C151.882 10.8767 151.457 11.1004 151.147 11.5049C150.848 11.8957 150.703 12.3976 150.625 12.9941C150.546 13.5931 150.528 14.3492 150.528 15.29V25.7725C150.528 28.886 151.168 31.3719 152.434 33.0918C153.717 34.8339 155.602 35.7353 157.941 35.7354C159.293 35.7354 160.45 35.4962 161.419 34.999C162.393 34.4997 163.151 33.7543 163.723 32.7871C164.854 30.8763 165.262 28.0974 165.262 24.5879V20.3242C165.262 17.4347 165.192 15.7995 165.13 14.6924L165.075 13.7344V13.7295L165.041 13.3613C164.936 12.5233 164.656 11.8284 164.023 11.335C163.415 10.8616 162.551 10.6331 161.418 10.5361V10.3184H169.233V10.542C168.271 10.6414 167.504 10.8665 166.954 11.3359C166.376 11.8287 166.116 12.5199 166.027 13.3662L165.999 13.7383V13.7461C165.967 14.6859 165.905 16.4802 165.905 20.3242V24.8604C165.905 29.1044 165.436 32.2253 163.462 34.626C161.86 36.4957 159.561 37.1045 157.104 37.1045C155.183 37.1045 153.181 36.6867 151.717 35.5488L151.432 35.3115L151.428 35.3086L151.24 35.1387C149.323 33.3553 148.365 30.6514 148.365 25.9736V15.29C148.365 14.3462 148.346 13.5926 148.266 12.998C148.187 12.405 148.04 11.9085 147.739 11.5225C147.428 11.1248 147.003 10.9073 146.503 10.7695C146.119 10.664 145.661 10.5969 145.13 10.5391V10.3066H153.762Z" fill="#142E3F" stroke="#142E3F"/>
<path d="M181.266 10.3184C183.905 10.3184 185.569 10.7064 186.813 11.6494L187.115 11.252L186.813 11.6504L186.821 11.6562C188.173 12.6394 189.115 14.3619 189.116 16.7705C189.116 20.1226 187.254 22.246 184.673 23.5107L184.221 23.7324L184.446 24.1826C184.947 25.1889 185.954 27.0196 186.889 28.667L187.778 30.2158L187.784 30.2266C189.154 32.4575 189.834 33.5427 190.717 34.6162V34.6172C191.614 35.71 192.431 36.2313 193.262 36.5615L193.221 36.8682C192.931 36.8557 192.654 36.8339 192.322 36.8096H192.323C191.042 36.7063 190.108 36.4638 189.31 35.9707C188.609 35.5379 187.976 34.8891 187.303 33.8916L187.012 33.4424L187.011 33.4404L186.512 32.625C185.52 30.9552 184.557 29.0755 183.637 27.3789L183.18 26.5469C182.808 25.858 182.453 25.3394 181.876 25.0332C181.316 24.7361 180.621 24.6797 179.695 24.6797H177.913V31.7773C177.913 32.6611 177.937 33.3697 178.027 33.9326C178.116 34.498 178.279 34.9702 178.597 35.3379C178.918 35.7091 179.347 35.9149 179.845 36.0527C180.233 36.16 180.695 36.2328 181.231 36.3027V36.5479H172.475V36.3018C173.027 36.2276 173.498 36.1511 173.887 36.042C174.384 35.9028 174.807 35.6954 175.117 35.3184C175.421 34.9476 175.565 34.4754 175.64 33.918C175.715 33.3613 175.73 32.6569 175.73 31.7773V15.0537C175.73 14.161 175.707 13.4497 175.618 12.8887C175.53 12.326 175.369 11.8583 175.053 11.4961C174.734 11.13 174.308 10.9326 173.821 10.8018C173.444 10.7006 172.994 10.6295 172.475 10.5615V10.3184H181.266ZM180.77 10.7871C180.21 10.7871 179.744 10.8298 179.373 10.9131C179.061 10.9833 178.769 11.0924 178.551 11.2686L178.498 11.3154C178.232 11.5348 178.078 11.8147 177.993 12.1797C177.915 12.5197 177.893 12.9547 177.893 13.5137V24.2471H180.129C182.087 24.247 183.429 23.9242 184.473 22.9434C186.058 21.5975 186.664 19.7633 186.664 17.3984C186.664 15.0678 185.985 13.3965 184.866 12.3096C183.751 11.2271 182.264 10.7872 180.77 10.7871Z" fill="#142E3F" stroke="#142E3F"/>
<path d="M250.306 10.3184V10.582C249.829 10.6708 249.439 10.7682 249.13 10.8848C248.74 11.0313 248.401 11.2355 248.211 11.5654C248.012 11.9102 248.039 12.2779 248.122 12.5938C248.162 12.7481 248.222 12.9111 248.292 13.0791L248.524 13.5957L248.525 13.5986C250.047 16.7917 251.762 20.5913 253.313 23.7314L253.773 24.6621L254.214 23.7227C255.529 20.9239 257.607 16.3493 258.641 14.0381L258.647 14.0225C258.861 13.5003 259.033 13.0388 259.107 12.6445C259.182 12.245 259.175 11.8253 258.921 11.4639C258.678 11.1197 258.282 10.9312 257.842 10.8047C257.489 10.703 257.05 10.6259 256.525 10.5586V10.3184H263.761V10.5654C262.712 10.7203 261.96 10.9399 261.32 11.4541C260.794 11.8761 260.371 12.4772 259.888 13.3096L259.379 14.2217L259.377 14.2256C257.727 17.3162 256.376 20.221 254.583 23.9189L254.579 23.9287L254.575 23.9375C254.359 24.4331 254.206 24.8345 254.112 25.252C254.017 25.6724 253.985 26.0889 253.985 26.6133V31.7773C253.985 32.641 254.005 33.3421 254.097 33.9023C254.19 34.4684 254.365 34.9448 254.714 35.3164C255.06 35.686 255.524 35.8934 256.074 36.0352C256.521 36.1503 257.063 36.2304 257.706 36.3076V36.5479H248.226V36.291C248.856 36.1963 249.386 36.1107 249.818 35.9941C250.349 35.851 250.8 35.6498 251.135 35.2871C251.473 34.9216 251.636 34.4534 251.721 33.8965C251.806 33.3451 251.823 32.6477 251.823 31.7773V26.3643C251.823 25.9105 251.779 25.5535 251.65 25.1416C251.588 24.9453 251.508 24.738 251.407 24.5049L251.041 23.71C249.768 20.9831 248.516 18.3615 246.53 14.4141H246.529C245.825 13.0103 245.335 12.0718 244.67 11.4795C244.053 10.9309 243.327 10.7063 242.315 10.5625V10.3184H250.306Z" fill="#142E3F" stroke="#142E3F"/>
<path d="M274.059 9.72656C275.786 9.72664 277.472 10.1879 278.41 10.4297C278.546 11.7661 278.679 13.2459 278.911 15.5371L278.703 15.583C278.407 14.3458 277.988 13.091 277.255 12.1045C276.401 10.9543 275.14 10.1953 273.273 10.1953C271.673 10.1954 270.557 10.8761 269.862 11.8838C269.183 12.8661 268.929 14.1201 268.929 15.2666C268.929 16.8233 269.358 18.03 270.213 19.0781C271.049 20.103 272.272 20.9507 273.802 21.8428V21.8438C275.991 23.1485 277.493 24.2426 278.452 25.4688C279.334 26.5953 279.779 27.8616 279.827 29.5791L279.831 29.9287V29.9297C279.831 34.0491 276.748 37.1875 272.291 37.1875C270.305 37.1875 268.572 36.5573 267.141 35.9316C266.873 34.7514 266.519 32.4099 266.26 30.3662L266.518 30.2949C266.896 31.6021 267.47 33.0625 268.378 34.249C269.415 35.6023 270.9 36.6123 272.994 36.6123C274.451 36.6122 275.651 36.0248 276.479 35.0459C277.3 34.0751 277.731 32.7492 277.731 31.292C277.731 29.597 277.334 28.3559 276.479 27.2744C275.751 26.3536 274.708 25.5731 273.389 24.7158L272.807 24.3428L272.803 24.3408L272.107 23.9014C270.536 22.8872 269.331 21.939 268.488 20.875C267.54 19.6793 267.035 18.3158 267.035 16.4873C267.035 13.0072 269.544 9.72656 274.059 9.72656Z" fill="#142E3F" stroke="#142E3F"/>
<path d="M0.848079 9.81857V11.003C3.58669 11.2872 3.98973 11.4886 3.98973 15.2312V31.789C3.98973 35.2118 3.74171 35.5908 0.33136 35.8751V37.0595H7.15206V9.81857H0.848079ZM14.4378 0L8.37152 6.43122L9.10526 7.47349L17.0007 2.6175L17.0317 2.27402C16.6597 1.6463 15.2025 0.21319 14.4378 0Z" fill="#142E3F"/>
<path d="M17.2901 9.84229V15.8708C17.2901 12.7796 15.2336 10.2213 12.5569 9.84229H17.2901Z" fill="#142E3F"/>
<path d="M19.667 37.0359V31.0073C19.667 34.0986 17.6104 36.6569 14.9338 37.0359H19.667Z" fill="#142E3F"/>
<path d="M11.0585 22.8825C13.7351 23.2615 15.7916 25.8198 15.7916 28.9111V22.8825V16.854C15.802 19.9453 13.7351 22.5035 11.0585 22.8825Z" fill="#142E3F"/>
<path d="M228.8 10.3184V36.5596H222.979V36.3311C223.626 36.2692 224.168 36.1965 224.614 36.082C225.168 35.94 225.627 35.7226 225.964 35.3379C226.298 34.9558 226.457 34.4698 226.54 33.9043C226.623 33.342 226.638 32.6417 226.638 31.7891V15.2314C226.638 14.2937 226.613 13.5475 226.526 12.959C226.44 12.3714 226.286 11.8848 225.984 11.5078C225.675 11.1207 225.259 10.9093 224.776 10.7754C224.414 10.6747 223.985 10.6101 223.496 10.5537V10.3184H228.8Z" fill="#142E3F" stroke="#142E3F"/>
<path d="M238.938 10.3418V12.21C238.491 11.4673 237.91 10.8301 237.229 10.3418H238.938Z" fill="#142E3F" stroke="#142E3F"/>
<path d="M241.315 36.5352H239.606C240.286 36.0468 240.868 35.4097 241.315 34.667V36.5352Z" fill="#142E3F" stroke="#142E3F"/>
<path d="M237.44 25.25C236.818 24.2178 235.938 23.3887 234.892 22.8818C235.938 22.3749 236.818 21.5459 237.44 20.5137V25.25Z" fill="#142E3F" stroke="#142E3F"/>
<path d="M129.107 19.7529C129.699 21.255 130.781 22.4723 132.148 23.1338C130.783 23.7981 129.701 25.0136 129.108 26.5107C128.515 25.011 127.43 23.7945 126.061 23.1309C127.429 22.4675 128.513 21.2517 129.107 19.7529Z" fill="#142E3F" stroke="#142E3F"/>
</svg>
