<svg width="21" height="21" viewBox="0 0 21 21" fill="none" xmlns="http://www.w3.org/2000/svg">
<path d="M19.62 11.5715H7.04832C6.82099 11.5715 6.60297 11.4812 6.44222 11.3205C6.28147 11.1598 6.19116 10.9418 6.19116 10.7146C6.19116 10.4873 6.28147 10.2693 6.44222 10.1087C6.60297 9.94793 6.82099 9.85767 7.04832 9.85767H19.62C19.8473 9.85767 20.0654 9.94793 20.2261 10.1087C20.3869 10.2693 20.4772 10.4873 20.4772 10.7146C20.4772 10.9418 20.3869 11.1598 20.2261 11.3205C20.0654 11.4812 19.8473 11.5715 19.62 11.5715Z" fill="#F6FBFC"/>
<path d="M15.0482 16.1417C14.9357 16.1422 14.824 16.1203 14.72 16.0771C14.616 16.0339 14.5216 15.9704 14.4425 15.8903C14.282 15.7297 14.1919 15.5119 14.1919 15.2848C14.1919 15.0577 14.282 14.8399 14.4425 14.6792L18.4083 10.7146L14.4425 6.74995C14.3583 6.6715 14.2907 6.5769 14.2439 6.47178C14.197 6.36667 14.1719 6.25319 14.1698 6.13814C14.1678 6.02308 14.189 5.90879 14.2321 5.80209C14.2752 5.69539 14.3393 5.59847 14.4208 5.51709C14.5022 5.43572 14.5991 5.37158 14.7058 5.32848C14.8126 5.28538 14.9269 5.26421 15.0419 5.26625C15.157 5.26827 15.2705 5.29346 15.3757 5.3403C15.4808 5.38713 15.5754 5.45465 15.654 5.53885L20.2255 10.109C20.3861 10.2697 20.4761 10.4876 20.4761 10.7146C20.4761 10.9417 20.3861 11.1595 20.2255 11.3201L15.654 15.8903C15.5749 15.9704 15.4805 16.0339 15.3765 16.0771C15.2725 16.1203 15.1608 16.1422 15.0482 16.1417Z" fill="#F6FBFC"/>
<path d="M7.04861 20.7119H3.61997C3.22367 20.7288 2.82792 20.6673 2.45539 20.5311C2.08285 20.3949 1.74085 20.1866 1.44893 19.9181C1.15701 19.6496 0.920911 19.3262 0.754154 18.9664C0.587384 18.6066 0.493223 18.2174 0.477051 17.8212V3.60797C0.493223 3.21176 0.587384 2.82261 0.754154 2.46281C0.920911 2.10301 1.15701 1.77961 1.44893 1.51112C1.74085 1.24263 2.08285 1.03432 2.45539 0.898122C2.82792 0.761907 3.22367 0.700472 3.61997 0.717325H7.04861C7.27594 0.717325 7.49397 0.807609 7.65472 0.968308C7.81546 1.12902 7.90577 1.34697 7.90577 1.57424C7.90577 1.80151 7.81546 2.01946 7.65472 2.18016C7.49397 2.34087 7.27594 2.43115 7.04861 2.43115H3.61997C3.28062 2.40165 2.94293 2.50387 2.67695 2.71659C2.41095 2.92932 2.23708 3.23624 2.19137 3.57369V17.8212C2.23708 18.1587 2.41095 18.4656 2.67695 18.6784C2.94293 18.8911 3.28062 18.9934 3.61997 18.9638H7.04861C7.27594 18.9638 7.49397 19.0541 7.65472 19.2148C7.81546 19.3755 7.90577 19.5934 7.90577 19.8207C7.90577 20.048 7.81546 20.2659 7.65472 20.4267C7.49397 20.5873 7.27594 20.6776 7.04861 20.6776V20.7119Z" fill="#F6FBFC"/>
</svg>
