<svg width="32" height="32" viewBox="0 0 32 32" fill="none" xmlns="http://www.w3.org/2000/svg">
<path d="M31.7227 16.271C31.7227 24.5553 25.0069 31.271 16.7227 31.271C8.43839 31.271 1.72266 24.5553 1.72266 16.271C1.72266 7.98672 8.43839 1.271 16.7227 1.271C25.0069 1.271 31.7227 7.98672 31.7227 16.271Z" fill="#F6FBFC"/>
<path d="M16.7217 8.87158C18.7448 8.87158 20.3847 10.5116 20.3848 12.5347C20.3848 13.5639 19.9598 14.4932 19.2764 15.1587C22.6017 16.1139 25.1188 18.8854 25.4785 22.3003L25.5654 23.1284H7.87793L7.96484 22.3003C8.3246 18.8854 10.8417 16.1139 14.167 15.1587C13.4837 14.4932 13.0586 13.5638 13.0586 12.5347C13.0587 10.5116 14.6986 8.87166 16.7217 8.87158ZM16.7217 16.3003C13.2133 16.3003 10.3288 18.6045 9.59961 21.6284H23.8438C23.1146 18.6045 20.2301 16.3003 16.7217 16.3003ZM16.7217 10.3716C15.5271 10.3717 14.5587 11.3401 14.5586 12.5347C14.5586 13.7293 15.527 14.6977 16.7217 14.6978C17.9164 14.6978 18.8848 13.7294 18.8848 12.5347C18.8847 11.34 17.9164 10.3716 16.7217 10.3716Z" fill="#142E3F"/>
</svg>
