<svg width="38" height="34" viewBox="0 0 38 34" fill="none" xmlns="http://www.w3.org/2000/svg">
<path d="M30.7715 18.271C30.7715 26.5553 24.0558 33.271 15.7715 33.271C7.48721 33.271 0.771484 26.5553 0.771484 18.271C0.771484 9.98672 7.48721 3.271 15.7715 3.271C24.0558 3.271 30.7715 9.98672 30.7715 18.271Z" fill="#F6FBFC"/>
<path fill-rule="evenodd" clip-rule="evenodd" d="M8.5918 11.5925C8.5918 11.3158 8.81606 11.0916 9.0927 11.0916C10.4073 11.0916 11.1317 11.8206 11.4377 12.4273H22.45C22.5986 12.4273 22.7394 12.4932 22.8346 12.6072C22.9298 12.7213 22.9694 12.8717 22.9428 13.0178L21.6086 20.3562C21.5984 20.4184 21.5768 20.4768 21.5459 20.5291C21.54 20.5391 21.5337 20.5489 21.5272 20.5584C21.5052 20.5903 21.4798 20.6194 21.4514 20.6452C21.4461 20.65 21.4407 20.6547 21.4352 20.6593C21.3477 20.7323 21.2353 20.7756 21.1143 20.7756L11.2504 20.7756C10.7189 20.7756 10.3838 20.8931 10.1938 21.0368C10.0218 21.1669 9.92752 21.3477 9.92752 21.6105C9.92752 21.8733 10.0218 22.054 10.1938 22.1841C10.3838 22.3278 10.7189 22.4453 11.2504 22.4453H20.7804C21.6103 22.4453 22.2831 23.1181 22.2831 23.948C22.2831 24.7779 21.6103 25.4507 20.7804 25.4507C19.9505 25.4507 19.2777 24.7779 19.2777 23.948C19.2777 23.7724 19.3078 23.6038 19.3632 23.4471H15.5189C15.5743 23.6038 15.6044 23.7724 15.6044 23.948C15.6044 24.7779 14.9316 25.4507 14.1017 25.4507C13.2718 25.4507 12.599 24.7779 12.599 23.948C12.599 23.7724 12.6291 23.6038 12.6845 23.4471H11.2504C10.5903 23.4471 10.0134 23.3037 9.58948 22.9831C9.14748 22.6488 8.92572 22.1616 8.92572 21.6105C8.92572 21.0593 9.14748 20.5721 9.58948 20.2378C10.0134 19.9172 10.5903 19.7738 11.2504 19.7738H11.8318L10.6069 13.0364C10.5308 12.7604 10.1381 12.0934 9.0927 12.0934C8.81606 12.0934 8.5918 11.8691 8.5918 11.5925ZM12.8501 19.7738H20.6963L21.8498 13.4291H11.6965L12.8501 19.7738Z" fill="#142E3F"/>
<path d="M19.0781 23.948C19.0781 23.8455 19.0871 23.745 19.1045 23.6472H15.7773C15.7948 23.745 15.8047 23.8454 15.8047 23.948C15.8047 24.8883 15.0419 25.6511 14.1016 25.6511C13.1612 25.6511 12.3994 24.8883 12.3994 23.948C12.3994 23.8455 12.4083 23.7449 12.4258 23.6472H11.25C10.6501 23.6472 10.0966 23.5333 9.65234 23.2664L9.46875 23.1423C8.97286 22.7672 8.72559 22.2187 8.72559 21.6101C8.72568 21.0016 8.97284 20.453 9.46875 20.0779L9.65234 19.9548C10.0966 19.6879 10.65 19.574 11.25 19.574H11.5918L10.4121 13.0857C10.3523 12.8762 10.0258 12.2937 9.09277 12.2937C8.7057 12.2937 8.39164 11.9796 8.3916 11.5925C8.3916 11.2054 8.70568 10.8914 9.09277 10.8914C10.418 10.8914 11.1934 11.5913 11.5566 12.2273H22.4502C22.658 12.2273 22.8551 12.3197 22.9883 12.4792C23.1046 12.6187 23.1618 12.7971 23.1494 12.9763L23.1396 13.0535L21.8057 20.3923L21.8037 20.3914C21.7966 20.4338 21.7868 20.475 21.7725 20.5144L21.7178 20.6306L21.6924 20.6716C21.677 20.694 21.6603 20.7158 21.6426 20.7361L21.5859 20.7927L21.5635 20.8132C21.4716 20.8898 21.3598 20.9428 21.2383 20.9646L21.1143 20.9753H11.25C10.8076 20.9754 10.5328 21.0618 10.375 21.156L10.3145 21.196C10.1962 21.2855 10.128 21.4054 10.1279 21.6101C10.1279 21.8149 10.1962 21.9347 10.3145 22.0242L10.375 22.0652C10.5328 22.1593 10.8077 22.2448 11.25 22.2449H20.7803C21.7206 22.2449 22.4834 23.0076 22.4834 23.948C22.4834 24.8883 21.7206 25.6511 20.7803 25.6511C19.84 25.6511 19.0781 24.8883 19.0781 23.948ZM21.8496 13.2292C21.9087 13.2292 21.9649 13.2553 22.0029 13.3005C22.0409 13.346 22.0574 13.4063 22.0469 13.4646L20.8926 19.8093C20.8753 19.9044 20.7929 19.9734 20.6963 19.9734H12.8496C12.7531 19.9732 12.6706 19.9043 12.6533 19.8093L11.5 13.4646C11.4895 13.4063 11.505 13.346 11.543 13.3005C11.5809 13.2552 11.6372 13.2293 11.6963 13.2292H21.8496ZM13.0166 19.574H20.5293L21.6104 13.6287H11.9365L13.0166 19.574ZM8.79199 11.5925C8.79203 11.7587 8.92662 11.8933 9.09277 11.8933C10.1001 11.8933 10.5783 12.4625 10.7461 12.8367L10.7998 12.9832L10.8037 13.0007L12.0283 19.738C12.0389 19.7964 12.0234 19.8566 11.9854 19.9021C11.9474 19.9475 11.8912 19.9733 11.832 19.9734H11.25C10.6948 19.9734 10.2209 20.08 9.8584 20.2976L9.70996 20.3972C9.32209 20.6906 9.12607 21.1165 9.12598 21.6101C9.12598 22.1039 9.32197 22.5305 9.70996 22.824L9.8584 22.9236C10.2209 23.1412 10.6949 23.2468 11.25 23.2468H12.6846C12.7495 23.2469 12.8102 23.2788 12.8477 23.3318C12.8851 23.3847 12.8946 23.4523 12.873 23.5134C12.8251 23.649 12.7988 23.7954 12.7988 23.948C12.7988 24.6674 13.3822 25.2507 14.1016 25.2507C14.821 25.2507 15.4043 24.6674 15.4043 23.948C15.4043 23.7954 15.378 23.649 15.3301 23.5134C15.3086 23.4524 15.3182 23.3847 15.3555 23.3318C15.3929 23.2789 15.4538 23.2469 15.5186 23.2468H19.3633C19.4282 23.2469 19.4889 23.2788 19.5264 23.3318C19.5638 23.3847 19.5733 23.4523 19.5518 23.5134C19.5038 23.649 19.4775 23.7954 19.4775 23.948C19.4775 24.6674 20.0609 25.2507 20.7803 25.2507C21.4997 25.2507 22.083 24.6674 22.083 23.948C22.083 23.2286 21.4997 22.6453 20.7803 22.6453H11.25C10.7626 22.6452 10.4084 22.5513 10.1689 22.408L10.0732 22.3435C9.8476 22.1728 9.72754 21.9308 9.72754 21.6101C9.72762 21.2896 9.84775 21.0483 10.0732 20.8777L10.1689 20.8132C10.4084 20.6699 10.7625 20.576 11.25 20.5759H21.1143L21.168 20.571C21.2199 20.5617 21.2672 20.5385 21.3066 20.5056L21.3164 20.4968L21.3623 20.4451L21.374 20.4275L21.3975 20.3777C21.4037 20.3605 21.4081 20.3425 21.4111 20.324L21.4121 20.3201L22.7461 12.9822L22.751 12.9158C22.7483 12.8502 22.7235 12.7864 22.6807 12.7351C22.6235 12.6669 22.5392 12.6277 22.4502 12.6277H11.4375C11.3621 12.6276 11.2928 12.5847 11.2588 12.5173C10.9809 11.9664 10.3195 11.2918 9.09277 11.2917C8.92659 11.2917 8.79199 11.4263 8.79199 11.5925Z" fill="#142E3F"/>
</svg>
