<svg width="48" height="48" viewBox="0 0 48 48" fill="none" xmlns="http://www.w3.org/2000/svg">
<path d="M6.6365 10.9601V12.1555C9.37343 12.4424 9.77622 12.6456 9.77622 16.423V33.1345C9.77622 36.5892 9.52835 36.9717 6.1201 37.2586V38.454H12.9366V10.9601H6.6365ZM20.2179 1.05029L14.1553 7.54126L14.8886 8.5932L22.7792 3.6921L22.8102 3.34544C22.4384 2.71188 20.9821 1.26546 20.2179 1.05029Z" fill="#142E3F"/>
<path d="M23.0685 10.9839V17.0684C23.0685 13.9485 21.0132 11.3664 18.3383 10.9839H23.0685Z" fill="#142E3F"/>
<path d="M25.4437 38.43V32.3455C25.4437 35.4654 23.3884 38.0475 20.7134 38.43H25.4437Z" fill="#142E3F"/>
<path d="M16.8407 24.1452C19.5157 24.5277 21.5709 27.1098 21.5709 30.2297V24.1452V18.0607C21.5813 21.1806 19.5157 23.7627 16.8407 24.1452Z" fill="#142E3F"/>
<path d="M31.8126 10.9839V12.2301C34.9566 12.5666 35.3012 12.8906 35.3012 16.5669V31.4467C35.3012 35.1231 35.2366 37.6903 34.9243 39.7839C34.4829 42.3511 33.2769 44.3824 31.1127 45.6287L31.7157 46.9496C32.7278 46.4013 33.9983 45.7034 35.2366 44.3824C37.8099 41.7405 38.6067 38.6872 38.6067 32.8799V16.5669C38.6067 12.8906 38.9189 12.604 41.8799 12.2301V10.9839H31.8126Z" fill="#142E3F"/>
</svg>
