<svg width="165" height="26" viewBox="0 0 165 26" fill="none" xmlns="http://www.w3.org/2000/svg">
<path d="M67.0312 6.50195C65.3569 6.71189 65.1807 6.87306 65.1807 8.9375V18.0986C65.1807 21.3599 64.7299 23.0749 63.2744 24.5586C62.5742 25.3003 61.8556 25.6921 61.2832 26L60.9414 25.2578C62.1655 24.5579 62.848 23.4173 63.0977 21.9756C63.2742 20.7999 63.3105 19.3583 63.3105 17.2939V8.9375C63.3105 6.87303 63.1158 6.6909 61.3379 6.50195V5.80176H67.0312V6.50195ZM161.304 5.45215C162.509 5.45221 163.691 5.82276 164.142 5.92773C164.233 6.80955 164.318 7.80345 164.482 9.41309L163.818 9.56055C163.465 7.92993 162.85 6.31946 160.841 6.31934C159.148 6.31934 158.575 7.74073 158.575 9.02148C158.575 10.736 159.507 11.6036 161.304 12.6533C163.892 14.2 165.006 15.3341 165 17.6855C165 20.289 163.045 22.2695 160.262 22.2695C158.965 22.2695 157.85 21.8362 156.974 21.4443C156.797 20.7445 156.547 19.0713 156.383 17.7275L157.064 17.5391C157.497 19.1906 158.429 21.3386 160.676 21.3389C162.223 21.3389 163.173 20.0999 163.173 18.4902C163.173 16.5938 162.296 15.8305 160.408 14.6338C158.143 13.2271 156.87 12.0306 156.87 9.74219C156.87 7.53761 158.466 5.45215 161.304 5.45215ZM76.0449 5.44531C79.7292 5.44545 83.0114 8.68533 83.0176 13.6191C83.0176 18.9381 79.8749 22.2627 75.9043 22.2627C71.7694 22.2625 68.7549 18.6512 68.7549 13.9902C68.7549 9.55312 71.5019 5.44531 76.0449 5.44531ZM90.709 6.49512C88.9797 6.62109 88.8027 6.80978 88.8027 9.03516V15.2295C88.8029 18.8404 90.289 20.8212 92.877 20.8213C95.928 20.8213 96.8965 18.6584 96.8965 14.5293V12.0098C96.8965 9.74265 96.8237 8.79067 96.7871 8.13281C96.714 7.02003 96.2264 6.58594 94.6309 6.50195V5.80176H99.8262V6.50195C98.4559 6.58594 97.9747 6.99903 97.9199 8.13281C97.9016 8.68581 97.8652 9.74271 97.8652 12.0098V14.6904C97.8652 17.2098 97.5907 19.1487 96.3545 20.6533C95.3314 21.8499 93.8757 22.2207 92.3838 22.2207C91.1415 22.2207 89.7957 21.9337 88.8457 21.0869C87.5486 19.9531 86.9395 18.2381 86.9395 15.3477V9.03516C86.9394 6.80269 86.7566 6.66308 85.0332 6.49512V5.79492H90.709V6.49512ZM106.507 5.80176C108.084 5.8018 109.143 6.03275 109.953 6.64844C110.836 7.29231 111.427 8.40545 111.427 9.91016C111.427 12.0307 110.239 13.3744 108.644 14.1582C109.033 14.9421 109.953 16.5942 110.599 17.707C111.408 19.0296 111.798 19.6527 112.304 20.2686C112.876 20.9683 113.376 21.2342 113.899 21.4092L113.809 22.0879C113.516 22.0879 113.284 22.0669 112.998 22.0459C111.439 21.9199 110.593 21.4436 109.643 19.918C108.851 18.6582 108.077 17.0907 107.377 15.8311C106.945 15.0263 106.677 14.8789 105.581 14.8789H104.825V18.7773C104.825 20.8629 105.057 20.9824 106.78 21.1924V21.8916H101.031V21.1924C102.803 20.9684 102.95 20.8629 102.95 18.7773V8.89551C102.95 6.78891 102.718 6.71191 101.031 6.50195V5.80176H106.507ZM38.8838 5.73926C39.8581 6.13114 40.6136 6.70452 40.9912 7.78906C41.1312 8.20189 41.2777 8.62901 41.4238 9.04883H41.4355C41.5269 9.32864 41.6245 9.60886 41.7158 9.88867C42.4649 12.0653 43.2261 14.3263 43.9873 16.6289C44.3892 17.8117 44.7909 18.9875 45.1807 20.1143C45.5582 21.199 45.7781 21.6753 46.3262 21.9902C45.3519 21.5983 44.5964 21.0241 44.2188 19.9395C44.0787 19.5266 43.9323 19.0996 43.7861 18.6797H43.7744C43.6831 18.3998 43.5855 18.1197 43.4941 17.8398C42.7451 15.6633 41.9839 13.4022 41.2227 11.0996C40.8207 9.91691 40.419 8.74098 40.0293 7.61426C39.6518 6.53657 39.4319 6.05418 38.8838 5.73926ZM118.723 5.73926C119.697 6.13114 120.452 6.7045 120.83 7.78906C120.97 8.2019 121.117 8.62899 121.263 9.04883H121.274C121.366 9.32866 121.463 9.60884 121.555 9.88867C122.304 12.0653 123.065 14.3263 123.826 16.6289C124.228 17.8116 124.63 18.9875 125.02 20.1143C125.397 21.199 125.617 21.6753 126.165 21.9902C125.191 21.5983 124.435 21.0241 124.058 19.9395C123.918 19.5266 123.771 19.0995 123.625 18.6797H123.613C123.522 18.3998 123.424 18.1197 123.333 17.8398C122.584 15.6633 121.823 13.4022 121.062 11.0996C120.66 9.91689 120.257 8.74099 119.867 7.61426C119.49 6.53679 119.271 6.05416 118.723 5.73926ZM4.01953 21.8984H0V21.1992C2.00967 21.0313 2.15625 20.8068 2.15625 18.7842V9C2.15623 6.78878 1.91826 6.6699 0.304688 6.50195V5.80176H4.01953V21.8984ZM49.4014 6.50195C48.0372 6.66292 47.5685 6.91505 47.5137 8.04883C47.4954 8.85362 47.4404 9.88953 47.4404 12.1777V21.8984H46.4902L46.4717 12.1777C46.4717 9.88218 46.4354 8.81119 46.3623 8.06934C46.3136 6.95667 45.8082 6.62793 44.085 6.50195V5.80176H49.4014V6.50195ZM129.246 6.50195C127.882 6.66292 127.413 6.91506 127.358 8.04883C127.34 8.85362 127.285 9.88953 127.285 12.1777V21.8984H126.335L126.316 12.1777C126.316 9.88218 126.28 8.81119 126.207 8.06934C126.158 6.95666 125.653 6.62793 123.93 6.50195V5.80176H129.246V6.50195ZM134.928 21.8984H130.909V21.1992C132.918 21.0313 133.064 20.8066 133.064 18.7842V9C133.064 6.78868 132.827 6.66991 131.213 6.50195V5.80176H134.928V21.8984ZM18.6836 6.49512C16.9605 6.69804 16.7227 6.7958 16.7227 8.92285V21.8916H12.7158V21.1992C14.6767 20.9753 14.8477 20.8486 14.8477 18.749V8.92285C14.8476 6.81667 14.6335 6.69107 12.9102 6.49512V5.80176H18.6836V6.49512ZM32.5508 18.6377C33.2388 20.7999 33.4336 20.9894 34.9619 21.1924V21.8916H29.6455V21.1924C31.046 20.9825 31.2108 20.7371 30.9004 19.8066C30.5413 18.6946 29.6288 15.8486 29.6094 15.6982C29.573 15.5311 27.5097 8.74289 27.4902 8.67871C26.79 10.8271 26.0712 13.0733 25.4258 15.0117C25.4258 15.0327 25.1025 16.041 25.1025 16.041C25.066 16.1879 25.0111 16.3067 24.9746 16.4326L24.4697 14.8438L27.6484 5.57812L28.3486 5.43066C29.6945 9.65785 31.1866 14.3475 32.5508 18.6377ZM38.8535 5.87891V15.3555C38.8535 15.9292 38.8538 16.4471 38.8721 16.8809C38.8903 18.1403 38.9446 18.882 38.9629 19.4209C39.0177 20.6807 39.554 21.0524 41.0947 21.1924V21.8916H35.8691V21.1924C37.1966 21.0664 37.7152 20.6951 37.8066 19.4775C37.8614 18.6937 37.916 17.5736 37.916 15.3271V9.01465C37.916 8.31485 37.8609 7.92261 37.4834 7.38379C37.0754 6.76099 36.6248 6.62108 35.5654 6.49512V5.79492H38.7988L38.8535 5.87891ZM118.692 5.87891V15.3555C118.692 15.9292 118.693 16.4471 118.711 16.8809C118.729 18.1403 118.783 18.882 118.802 19.4209C118.857 20.6807 119.399 21.0524 120.934 21.1924V21.8916H115.708V21.1924C117.035 21.0664 117.553 20.6951 117.645 19.4775C117.699 18.6937 117.755 17.5736 117.755 15.3271V9.01465C117.755 8.31488 117.7 7.92257 117.322 7.38379C116.914 6.76091 116.463 6.62109 115.403 6.49512V5.79492H118.638L118.692 5.87891ZM147.602 6.50195C146.037 6.75389 146.128 7.06147 146.523 7.9082C147.425 9.80484 148.429 12.0379 149.343 13.8926C150.116 12.241 151.34 9.53965 151.949 8.1748C152.455 6.9361 152.382 6.69091 150.677 6.50195V5.80176H155.53V6.50195C154.026 6.69091 153.776 6.95638 152.911 8.54492C151.943 10.3646 151.151 12.0731 150.092 14.2637C149.842 14.8372 149.77 15.1311 149.77 15.7256V18.7773C149.77 20.821 149.971 20.9684 151.962 21.1924V21.8916H145.786V21.1924C147.741 20.9054 147.905 20.8419 147.905 18.7773V15.5791C147.905 15.0893 147.814 14.8582 147.474 14.1377C146.725 12.528 145.988 10.9808 144.818 8.65039C143.972 6.95672 143.758 6.66992 142.303 6.50195V5.80176H147.602V6.50195ZM11.3945 21.8848H8.60547C10.1825 21.6606 11.3945 20.1488 11.3945 18.3223V21.8848ZM23.0508 21.8848H20.2607C21.838 21.6608 23.0508 20.1489 23.0508 18.3223V21.8848ZM142.303 21.8848H139.514C141.091 21.6608 142.303 20.1489 142.303 18.3223V21.8848ZM75.6182 6.37598C73.1945 6.37612 71.0021 8.69234 71.002 13.332C71.002 17.93 73.1945 21.3182 76.2637 21.3184C78.864 21.3184 80.8252 19.0854 80.8252 14.3193C80.8252 9.11934 78.4378 6.37598 75.6182 6.37598ZM75.8867 10.1064C75.8869 11.9399 77.0986 13.451 78.6758 13.668C77.0986 13.8919 75.8868 15.4039 75.8867 17.2305C75.8866 15.4041 74.6747 13.8921 73.0977 13.668C74.6746 13.4438 75.8865 11.9327 75.8867 10.1064ZM9.11035 17.084C9.11035 15.2573 7.89858 13.7454 6.32129 13.5215C7.89858 13.2975 9.11644 11.7856 9.11035 9.95898V17.084ZM140.02 17.084C140.02 15.2575 138.808 13.7457 137.23 13.5215C138.808 13.2973 140.02 11.7855 140.02 9.95898V17.084ZM106.214 6.66992C105.581 6.66994 105.21 6.76809 105.063 6.91504C104.869 7.076 104.813 7.32756 104.813 7.98535V14.0322H105.837C106.969 14.0322 107.669 13.8429 108.205 13.332C109.052 12.6112 109.393 11.6249 109.393 10.2812C109.393 7.64276 107.864 6.66992 106.214 6.66992ZM9.99316 9.37793C9.99305 7.5514 8.78131 6.03938 7.2041 5.81543H9.99316V9.37793ZM140.902 9.37793C140.902 7.55142 139.69 6.03948 138.113 5.81543H140.902V9.37793ZM8.3125 0C8.76307 0.125953 9.62139 0.972717 9.84082 1.34375L9.82324 1.54688L5.16992 4.41602L4.73828 3.7998L8.3125 0Z" fill="#F6FBFC"/>
</svg>
