<svg width="49" height="48" viewBox="0 0 49 48" fill="none" xmlns="http://www.w3.org/2000/svg">
<g clip-path="url(#clip0_114_15)">
<path d="M31.0376 23.7816C30.4013 23.9291 29.6759 24.1147 28.9116 24.348C26.548 25.0693 23.7061 26.2579 21.9858 28.1419L21.8237 28.3265C20.3129 30.0969 19.391 32.9302 18.8452 35.2484C18.7567 35.6242 18.6794 35.9895 18.6089 36.3372C18.5403 35.9907 18.4647 35.6268 18.3784 35.2523C17.878 33.0793 17.0492 30.4529 15.7085 28.6722L15.4341 28.3284C13.7327 26.3221 10.7675 25.0785 8.31396 24.3372C7.55689 24.1085 6.83773 23.9267 6.20459 23.7816C6.84224 23.6189 7.56779 23.417 8.33154 23.1663C10.7104 22.3854 13.5637 21.1234 15.2759 19.1888L15.438 18.9993C16.8898 17.2447 17.7968 14.4764 18.3423 12.2142C18.4428 11.7973 18.5307 11.3939 18.6089 11.014C18.6893 11.3948 18.7784 11.7991 18.8813 12.2171C19.404 14.3385 20.2465 16.9042 21.5522 18.6605L21.8198 19.0003C23.5079 21.0273 26.4532 22.3461 28.895 23.1556C29.6657 23.411 30.3971 23.6163 31.0376 23.7816ZM48.0952 23.9974C48.0874 24.5817 47.812 25.2165 47.189 25.9359L46.9009 26.2493L29.6157 43.511H22.6011C23.1335 42.9949 23.8808 42.2704 24.7739 41.4046C26.6131 39.6217 29.071 37.2387 31.5464 34.8392C36.4979 30.0394 41.5178 25.1735 41.7954 24.9056C41.9185 24.7869 42.0634 24.6534 42.1685 24.5335C42.2763 24.4105 42.4093 24.2305 42.4438 23.9886C42.4802 23.7332 42.3949 23.5089 42.2798 23.3235C42.1683 23.1441 42.002 22.9585 41.8003 22.7581C41.4134 22.3738 36.7182 17.5969 32.1138 12.9105C29.8126 10.5683 27.5351 8.25034 25.8335 6.51788C25.0162 5.68578 24.3321 4.98833 23.8413 4.48859H29.6157L46.9058 21.7562L46.9087 21.7581C47.7716 22.6061 48.1039 23.3365 48.0952 23.9974Z" fill="#F6FBFC" stroke="#F6FBFC"/>
</g>
<defs>
<clipPath id="clip0_114_15">
<rect width="48" height="48" fill="white" transform="translate(0.595337)"/>
</clipPath>
</defs>
</svg>
