<svg width="48" height="48" viewBox="0 0 48 48" fill="none" xmlns="http://www.w3.org/2000/svg">
<path d="M20.6508 23.7816C21.287 23.9291 22.0125 24.1147 22.7767 24.348C25.1404 25.0693 27.9822 26.2579 29.7025 28.1419L29.8646 28.3265C31.3755 30.0969 32.2973 32.9302 32.8431 35.2484C32.9316 35.6242 33.0089 35.9895 33.0795 36.3372C33.148 35.9907 33.2237 35.6268 33.3099 35.2523C33.8104 33.0793 34.6391 30.4529 35.9799 28.6722L36.2543 28.3284C37.9557 26.3221 40.9208 25.0785 43.3744 24.3372C44.1315 24.1085 44.8506 23.9267 45.4838 23.7816C44.8461 23.6189 44.1206 23.417 43.3568 23.1663C40.978 22.3854 38.1247 21.1234 36.4125 19.1888L36.2504 18.9993C34.7985 17.2447 33.8915 14.4764 33.3461 12.2142C33.2456 11.7973 33.1577 11.3939 33.0795 11.014C32.9991 11.3948 32.91 11.7991 32.807 12.2171C32.2843 14.3385 31.4419 16.9042 30.1361 18.6605L29.8685 19.0003C28.1805 21.0273 25.2352 22.3461 22.7933 23.1556C22.0227 23.411 21.2913 23.6163 20.6508 23.7816ZM3.59314 23.9974C3.60091 24.5817 3.87631 25.2165 4.49939 25.9359L4.78748 26.2493L22.0726 43.511H29.0873C28.5549 42.9949 27.8076 42.2704 26.9144 41.4046C25.0752 39.6217 22.6174 37.2387 20.142 34.8392C15.1905 30.0394 10.1706 25.1735 9.89294 24.9056C9.7699 24.7869 9.62499 24.6534 9.5199 24.5335C9.41206 24.4105 9.27904 24.2305 9.24451 23.9886C9.20811 23.7332 9.29343 23.5089 9.40857 23.3235C9.52009 23.1441 9.6864 22.9585 9.88806 22.7581C10.2749 22.3738 14.9702 17.5969 19.5746 12.9105C21.8758 10.5683 24.1533 8.25034 25.8549 6.51788C26.6721 5.68578 27.3563 4.98833 27.847 4.48859H22.0726L4.78259 21.7562L4.77966 21.7581C3.91677 22.6061 3.58447 23.3365 3.59314 23.9974Z" fill="#F6FBFC" stroke="#F6FBFC"/>
<path d="M31.5752 22.4022C32.7105 21.3166 33.1011 18.6806 33.1011 18.6806C33.1011 18.6806 33.4558 21.323 34.5897 22.4022C35.7249 23.4828 38.6462 23.7048 38.6462 23.7048C38.6462 23.7048 35.7048 24.2908 34.5897 25.4912C33.5973 26.5594 33.1011 28.9151 33.1011 28.9151C33.1011 28.9151 32.5787 26.557 31.5752 25.4912C30.3428 24.1823 27.3325 23.7048 27.3325 23.7048C27.3325 23.7048 30.3226 23.6001 31.5752 22.4022Z" fill="#142E3F" stroke="#142E3F" stroke-width="0.01"/>
</svg>
